<svg width="52" height="52" viewBox="0 0 52 52" fill="none" xmlns="http://www.w3.org/2000/svg">
<g opacity="0.5" clip-path="url(#clip0_1268_15131)">
<path d="M51.6563 25.1667L39.8384 13.3487C39.4139 12.8529 38.6678 12.7952 38.1721 13.2198C37.6764 13.6443 37.6186 14.3904 38.0432 14.8861C38.0828 14.9323 38.1259 14.9755 38.1721 15.015L47.9692 24.8239H1.18176C0.529131 24.8239 0 25.353 0 26.0058C0 26.6585 0.529131 27.1875 1.18176 27.1875H47.9692L38.1721 36.9846C37.6764 37.4091 37.6186 38.1552 38.0432 38.6509C38.4678 39.1466 39.2138 39.2044 39.7095 38.7798C39.7557 38.7402 39.7989 38.6971 39.8384 38.6509L51.6564 26.8329C52.1146 26.3721 52.1146 25.6277 51.6563 25.1667Z" fill="white"/>
</g>
<defs>
<clipPath id="clip0_1268_15131">
<rect width="52" height="52" fill="white"/>
</clipPath>
</defs>
</svg>
