<svg width="52" height="52" viewBox="0 0 52 52" fill="none" xmlns="http://www.w3.org/2000/svg">
<g opacity="0.5" clip-path="url(#clip0_1268_15127)">
<path d="M0.343679 26.8333L12.1616 38.6513C12.5861 39.1471 13.3322 39.2048 13.8279 38.7802C14.3236 38.3557 14.3814 37.6096 13.9568 37.1139C13.9172 37.0677 13.8741 37.0245 13.8279 36.985L4.03084 27.1761L50.8182 27.1761C51.4709 27.1761 52 26.647 52 25.9942C52 25.3415 51.4709 24.8125 50.8182 24.8125L4.03084 24.8125L13.8279 15.0154C14.3236 14.5909 14.3814 13.8448 13.9568 13.3491C13.5322 12.8534 12.7862 12.7956 12.2905 13.2202C12.2443 13.2598 12.2011 13.3029 12.1616 13.3491L0.343577 25.1671C-0.114564 25.6279 -0.114563 26.3723 0.343679 26.8333Z" fill="white"/>
</g>
<defs>
<clipPath id="clip0_1268_15127">
<rect width="52" height="52" fill="white" transform="matrix(-1 0 0 -1 52 52)"/>
</clipPath>
</defs>
</svg>
