<svg width="512" height="512" viewBox="0 0 512 512" fill="none" xmlns="http://www.w3.org/2000/svg">
<path d="M509.987 264.097C505.845 256.921 496.672 254.464 489.497 258.605L478.401 265.01C479.072 258.933 479.509 252.787 479.682 246.574L507.499 218.757C513.357 212.899 513.357 203.402 507.499 197.544C501.642 191.686 492.144 191.686 486.286 197.544L477.355 206.475C476.435 200.167 475.269 194.055 473.884 188.135L493.359 154.398C497.501 147.223 495.042 138.049 487.867 133.908C480.693 129.765 471.518 132.224 467.377 139.4L461.156 150.177C458.6 144.421 455.851 138.901 452.94 133.626L463.051 95.8896C465.195 87.8876 460.446 79.6626 452.444 77.5186C444.444 75.3726 436.217 80.1226 434.073 88.1246L430.699 100.72C426.73 95.8346 422.684 91.2616 418.627 86.9936V47.2176C417.889 27.3366 389.358 27.3516 388.627 47.2176V60.2826C380.77 54.3856 373.642 49.8036 367.904 46.4816C360.737 42.3316 351.559 44.7766 347.407 51.9476C343.257 59.1166 345.703 68.2936 352.873 72.4446C358.598 75.7596 365.888 80.5016 373.888 86.7426L364.814 89.7666C356.955 92.3856 352.707 100.881 355.326 108.74C357.854 116.326 366.185 120.932 374.299 118.228L399.091 109.966C402.676 113.861 406.237 118.03 409.714 122.484L400.061 123.064C391.792 123.561 385.491 130.667 385.988 138.936C386.481 147.158 393.534 153.501 401.86 153.01L428.419 151.415C430.919 156.183 433.263 161.172 435.423 166.375L425.489 164.341C417.374 162.682 409.447 167.912 407.785 176.028C406.124 184.144 411.355 192.07 419.472 193.732L445.553 199.072C446.656 204.293 447.563 209.681 448.25 215.239L439.364 210.796C431.954 207.091 422.944 210.094 419.24 217.504C415.535 224.914 418.538 233.923 425.948 237.629L449.556 249.433C449.298 254.944 448.809 260.395 448.098 265.777L440.745 259.257C434.545 253.759 425.067 254.33 419.569 260.528C414.073 266.726 414.642 276.207 420.84 281.703L440.598 299.223C438.924 304.452 437.037 309.585 434.941 314.611L429.538 306.428C424.974 299.514 415.667 297.611 408.756 302.175C401.843 306.739 399.939 316.044 404.503 322.958L419.013 344.934C416.054 349.527 412.898 353.981 409.573 358.299L406.503 349.088C403.884 341.23 395.389 336.982 387.53 339.6C379.671 342.219 375.423 350.714 378.042 358.573L386.357 383.525C382.321 387.2 378.123 390.699 373.788 394.028L373.206 384.337C372.71 376.067 365.622 369.78 357.335 370.262C349.065 370.759 342.764 377.865 343.261 386.134L344.84 412.449C339.996 414.959 335.032 417.265 329.962 419.367L331.928 409.764C333.589 401.648 328.357 393.722 320.241 392.06C312.127 390.403 304.199 395.631 302.537 403.747L297.241 429.617C270.822 435.498 241.178 435.498 214.759 429.617L209.463 403.747C207.801 395.631 199.873 390.404 191.759 392.06C183.644 393.722 178.411 401.648 180.072 409.764L182.038 419.367C176.968 417.265 172.003 414.959 167.16 412.449L168.739 386.134C169.236 377.865 162.934 370.759 154.665 370.262C146.378 369.78 139.29 376.067 138.794 384.337L138.212 394.028C133.877 390.699 129.679 387.201 125.643 383.525L133.958 358.573C136.577 350.714 132.329 342.219 124.47 339.6C116.612 336.981 108.116 341.229 105.497 349.088L102.427 358.299C99.1008 353.982 95.9458 349.528 92.9868 344.934L107.497 322.958C112.061 316.044 110.157 306.74 103.244 302.175C96.3328 297.611 87.0258 299.514 82.4618 306.428L77.0588 314.611C74.9628 309.585 73.0748 304.452 71.4018 299.223L91.1598 281.703C97.3578 276.207 97.9278 266.726 92.4308 260.528C86.9328 254.33 77.4548 253.759 71.2548 259.257L63.9018 265.777C63.1908 260.394 62.7018 254.944 62.4438 249.433L86.0518 237.629C93.4618 233.924 96.4648 224.914 92.7598 217.504C89.0558 210.094 80.0458 207.091 72.6358 210.796L63.7498 215.239C64.4368 209.68 65.3438 204.292 66.4468 199.072L92.5278 193.732C100.644 192.07 105.876 184.144 104.215 176.028C102.553 167.912 94.6258 162.682 86.5108 164.341L76.5798 166.375C78.7408 161.172 81.0848 156.183 83.5848 151.415L110.139 153.009C118.465 153.5 125.518 147.157 126.011 138.935C126.508 130.666 120.206 123.56 111.938 123.063L102.289 122.484C105.766 118.03 109.327 113.861 112.912 109.967L137.7 118.228C145.814 120.933 154.144 116.326 156.673 108.74C159.292 100.881 155.044 92.3856 147.185 89.7666L138.113 86.7436C146.128 80.4906 153.421 75.7486 159.126 72.4456C166.296 68.2946 168.742 59.1176 164.592 51.9486C160.441 44.7796 151.265 42.3336 144.095 46.4826C138.339 49.8156 131.215 54.3956 123.372 60.2806V47.2176C122.634 27.3366 94.1028 27.3516 93.3718 47.2176V86.9876C89.3128 91.2566 85.2678 95.8306 81.2988 100.716L77.9258 88.1256C75.7808 80.1236 67.5548 75.3736 59.5548 77.5196C51.5528 79.6636 46.8038 87.8886 48.9478 95.8906L59.0578 133.624C56.1468 138.9 53.3978 144.419 50.8418 150.176L44.6228 139.403C40.4808 132.228 31.3068 129.769 24.1328 133.911C16.9578 138.052 14.4988 147.226 18.6408 154.401L38.1148 188.137C36.7298 194.058 35.5638 200.17 34.6438 206.478L25.7128 197.547C19.8558 191.689 10.3578 191.689 4.49979 197.547C-1.35821 203.404 -1.35821 212.902 4.49979 218.76L32.3168 246.577C32.4898 252.789 32.9258 258.935 33.5978 265.013L22.5018 258.608C15.3268 254.466 6.15279 256.924 2.01179 264.1C-2.13021 271.275 0.328785 280.448 7.50379 284.59L41.5568 304.247C43.3298 310.181 45.3338 316.016 47.5758 321.734L35.2018 318.419C27.2118 316.276 18.9758 321.023 16.8308 329.025C14.6868 337.027 19.4358 345.252 27.4378 347.396L65.5288 357.602C68.7738 362.85 72.2278 367.955 75.8818 372.904H62.9478C43.0668 373.642 43.0818 402.173 62.9478 402.904H102.452C106.918 407.123 111.56 411.156 116.36 415L103.857 418.35C95.8548 420.494 91.1058 428.719 93.2498 436.721C95.4728 445.017 103.918 449.394 111.621 447.327L149.668 437.133C155.062 440.058 160.595 442.756 166.243 445.239L155.131 451.654C147.956 455.796 145.497 464.969 149.639 472.144C153.163 478.249 161.933 482.368 170.129 477.636L204.176 457.982C237.22 466.035 274.777 466.035 307.821 457.982L341.868 477.636C350.064 482.368 358.834 478.249 362.358 472.144C366.5 464.97 364.041 455.796 356.866 451.654L345.754 445.239C351.402 442.756 356.935 440.058 362.329 437.133L400.376 447.327C408.079 449.393 416.524 445.016 418.747 436.721C420.891 428.719 416.142 420.494 408.14 418.35L395.637 415C400.437 411.156 405.079 407.123 409.545 402.904H449.049C468.93 402.166 468.915 373.635 449.049 372.904H436.119C439.773 367.955 443.227 362.85 446.472 357.602L484.563 347.396C492.565 345.252 497.314 337.027 495.17 329.025C493.024 321.022 484.789 316.276 476.799 318.419L464.425 321.734C466.667 316.017 468.671 310.181 470.444 304.247L504.496 284.59C511.67 280.445 514.129 271.272 509.987 264.097Z" fill="#FFC533"/>
<path d="M320.125 289.565C306.708 289.56 301.495 281.82 300.944 280.937C290.497 264.006 265.684 278.091 274.847 295.733C279.719 304.581 294.735 319.556 320.12 319.565C393.225 316.783 393.169 211.987 320.12 209.231H302.987V191.031H352.254C372.135 190.293 372.12 161.762 352.254 161.031H287.987C279.703 161.031 272.987 167.747 272.987 176.031V224.231C272.987 232.515 279.703 239.231 287.987 239.231H320.12C353.469 240.5 353.444 288.305 320.125 289.565Z" fill="#FFC533"/>
<path d="M146.378 184.863C137.215 202.521 162.042 216.58 172.475 199.659C173.026 198.776 178.255 191.036 191.671 191.031C216.448 190.788 227.231 225.254 203.699 236.384L182.796 245.676C159.545 255.999 144.521 279.112 144.521 304.565C144.521 312.849 151.237 319.565 159.521 319.565H223.788C243.669 318.827 243.654 290.296 223.788 289.565H177.962C181.444 282.375 187.393 276.46 194.986 273.088L215.887 263.797C268.724 239.335 248.814 161.088 191.65 161.031C166.266 161.04 151.249 176.016 146.378 184.863Z" fill="#FFC533"/>
</svg>
