<svg width="512" height="512" viewBox="0 0 512 512" fill="none" xmlns="http://www.w3.org/2000/svg">
<g clip-path="url(#clip0_1048_18541)">
<path d="M165.86 96.7699C135.73 98.2899 108.61 100.47 95.02 102.28C49.61 108.55 10.93 145.76 5.33 189.21C5.33 189.21 3.33 205.13 2.62 218.8L0.409998 263.33C0.209998 274.79 0.219998 287.13 0.519998 300.47C1.65 349.56 5.84 385.53 10.2 411.91C17.72 455.52 56.68 494.31 100.54 501.84C127.1 506.63 206.63 512.45 256 512C305.37 512.5 384.9 506.68 411.46 501.89C455.32 494.36 494.28 455.57 501.8 411.96C506.16 385.58 510.35 349.61 511.48 300.52C511.78 287.13 511.79 274.74 511.59 263.25L509.37 218.75C509.103 208.872 508.201 199.022 506.67 189.26C501.07 145.81 462.39 108.6 416.98 102.33C403.39 100.52 376.27 98.3299 346.14 96.8199L299.14 95.0299C283.71 94.6299 268.88 94.4399 256.02 94.4399C243.16 94.4399 228.33 94.6299 212.9 95.0299L165.86 96.7699Z" fill="#FFC533"/>
<path d="M346.14 96.77C345.5 80.15 344.39 65.66 343.08 55.82C341.174 42.096 334.975 29.3268 325.37 19.34C315.8 9.41002 303.46 3.00002 290.51 1.33002C290.51 1.33002 279.37 0.0200195 256 0.0200195C232.63 0.0200195 221.5 1.33002 221.5 1.33002C208.5 2.96002 196.2 9.41002 186.63 19.33C177.025 29.3168 170.826 42.086 168.92 55.81C167.61 65.66 166.5 80.14 165.86 96.76L212.86 94.97C213.26 80.46 214.03 67.62 214.96 59.65C215.286 56.8807 216.512 54.2949 218.45 52.29C220.357 50.3123 222.884 49.0486 225.61 48.71C225.61 48.71 238.91 47.95 255.09 47.95C272.8 47.95 286.34 48.71 286.34 48.71C289.071 49.0417 291.604 50.3063 293.51 52.29C295.45 54.2975 296.676 56.8871 297 59.66C297.92 67.66 298.7 80.47 299.1 94.98L346.14 96.77Z" fill="#00254D"/>
<path d="M238.89 284.05C246.529 285.432 254.352 285.459 262 284.13L510.48 241L509.37 218.7C509.103 208.822 508.201 198.972 506.67 189.21C501.07 145.76 462.39 108.55 416.98 102.28C403.39 100.47 376.27 98.2801 346.14 96.7701L299.14 94.9801C283.71 94.5801 268.88 94.3901 256.02 94.3901C243.16 94.3901 228.33 94.5801 212.9 94.9801L165.9 96.7701C135.77 98.2901 108.65 100.47 95.06 102.28C49.65 108.55 10.97 145.76 5.37 189.21C5.37 189.21 3.37 205.13 2.66 218.8L1.5 241.32L238.89 284.05Z" fill="#FFB700"/>
<path d="M321.195 279.012C314.933 286.781 308.383 294.823 301.833 303.015C300.527 304.635 299.811 306.648 299.803 308.724C299.803 318.904 299.584 329.078 299.148 339.244C298.84 345.462 292.506 350.421 286.932 348.629C277.762 345.703 268.441 342.451 258.937 338.997C257.033 338.306 254.945 338.306 253.042 338.997C243.538 342.451 234.191 345.703 225.047 348.629C219.473 350.421 213.139 345.462 212.831 339.244C212.394 329.078 212.176 318.904 212.176 308.724C212.166 306.648 211.45 304.636 210.145 303.015C203.595 294.823 197.084 286.781 190.803 279.012C186.932 274.268 189.611 267.281 195.827 265.294C205.94 262.139 216.021 258.926 226.042 255.765C228.064 255.12 229.815 253.831 231.027 252.096C237.079 243.422 243.066 234.689 248.823 226.027C249.576 224.798 250.635 223.781 251.896 223.076C253.158 222.37 254.581 222 256.029 222C257.476 222 258.899 222.37 260.161 223.076C261.422 223.781 262.481 224.798 263.234 226.027C268.991 234.702 274.978 243.435 281.03 252.096C282.242 253.831 283.993 255.12 286.015 255.765C296.036 258.926 306.117 262.139 316.23 265.294C322.387 267.262 325.066 274.268 321.195 279.012Z" fill="white"/>
</g>
<defs>
<clipPath id="clip0_1048_18541">
<rect width="512" height="512" fill="white"/>
</clipPath>
</defs>
</svg>
