<svg width="512" height="512" viewBox="0 0 512 512" fill="none" xmlns="http://www.w3.org/2000/svg">
<g clip-path="url(#clip0_1048_18535)">
<path d="M485.07 147C476.36 97.6901 431.57 52.9001 382.26 44.1901C352.34 39.1901 311.61 34.5501 256 34.4901C200.39 34.4301 159.66 39.2101 129.74 44.1901C80.43 52.8801 35.64 97.6601 26.93 147C21.93 176.92 17.29 217.65 17.23 273.26C17.17 328.87 21.95 369.6 26.93 399.52C35.64 448.83 80.43 493.62 129.74 502.33C159.66 507.33 200.39 511.97 256 512.03C311.61 512.09 352.34 507.31 382.26 502.33C431.57 493.62 476.36 448.83 485.07 399.52C490.07 369.6 494.71 328.87 494.77 273.26C494.83 217.65 490 176.89 485.07 147Z" fill="#FFB700"/>
<path d="M256 34.46C200.39 34.52 159.66 39.18 129.74 44.16C80.43 52.88 35.64 97.66 26.93 147C21.93 176.92 17.29 217.65 17.23 273.26C17.28 319.71 20.54 355.77 24.52 383.83C55.2667 395.115 87.7677 400.87 120.52 400.83C274.14 400.83 398.68 276.29 398.68 122.67C398.701 96.5017 395.028 70.4615 387.77 45.32C385.93 44.89 384.08 44.5 382.22 44.17C352.34 39.18 311.61 34.52 256 34.46Z" fill="#FFC533"/>
<path d="M178.38 390.93C177.679 394.208 176.042 397.213 173.667 399.579C171.292 401.945 168.281 403.571 165 404.26C154.148 405.941 143.102 405.941 132.25 404.26C128.993 403.549 126.01 401.913 123.66 399.549C121.309 397.184 119.691 394.191 119 390.93C117.319 380.078 117.319 369.032 119 358.18C119.695 354.906 121.325 351.904 123.69 349.537C126.056 347.169 129.057 345.538 132.33 344.84C143.182 343.159 154.228 343.159 165.08 344.84C168.355 345.536 171.358 347.167 173.726 349.534C176.093 351.902 177.724 354.905 178.42 358.18C180.101 369.032 180.101 380.078 178.42 390.93H178.38ZM178.38 289.63C177.686 292.916 176.052 295.929 173.676 298.303C171.301 300.677 168.286 302.308 165 303C154.148 304.681 143.102 304.681 132.25 303C128.988 302.286 126.001 300.644 123.65 298.272C121.299 295.9 119.684 292.899 119 289.63C117.32 278.775 117.32 267.725 119 256.87C119.697 253.598 121.327 250.598 123.693 248.233C126.058 245.867 129.058 244.237 132.33 243.54C143.182 241.859 154.228 241.859 165.08 243.54C168.354 244.235 171.356 245.865 173.723 248.23C176.091 250.596 177.722 253.597 178.42 256.87C180.1 267.725 180.1 278.775 178.42 289.63H178.38ZM285.71 390.93C285.013 394.202 283.383 397.202 281.017 399.567C278.652 401.933 275.652 403.563 272.38 404.26C261.525 405.94 250.475 405.94 239.62 404.26C236.348 403.563 233.348 401.933 230.983 399.567C228.617 397.202 226.987 394.202 226.29 390.93C224.609 380.078 224.609 369.032 226.29 358.18C226.985 354.906 228.615 351.904 230.98 349.537C233.346 347.169 236.347 345.538 239.62 344.84C250.475 343.16 261.525 343.16 272.38 344.84C275.653 345.538 278.654 347.169 281.02 349.537C283.385 351.904 285.014 354.906 285.71 358.18C287.391 369.032 287.391 380.078 285.71 390.93ZM285.71 289.63C285.02 292.909 283.393 295.918 281.027 298.291C278.661 300.664 275.657 302.3 272.38 303C261.525 304.68 250.475 304.68 239.62 303C236.348 302.303 233.348 300.673 230.983 298.307C228.617 295.942 226.987 292.942 226.29 289.67C224.61 278.815 224.61 267.765 226.29 256.91C226.987 253.638 228.617 250.638 230.983 248.273C233.348 245.907 236.348 244.277 239.62 243.58C250.475 241.9 261.525 241.9 272.38 243.58C275.652 244.277 278.652 245.907 281.017 248.273C283.383 250.638 285.013 253.638 285.71 256.91C287.39 267.765 287.39 278.815 285.71 289.67V289.63ZM393.04 289.63C392.35 292.909 390.723 295.918 388.357 298.291C385.991 300.664 382.987 302.3 379.71 303C368.871 304.676 357.839 304.676 347 303C343.726 302.304 340.724 300.675 338.357 298.31C335.989 295.944 334.358 292.943 333.66 289.67C331.98 278.815 331.98 267.765 333.66 256.91C334.351 253.629 335.979 250.62 338.347 248.247C340.715 245.873 343.721 244.238 347 243.54C357.852 241.859 368.898 241.859 379.75 243.54C383.007 244.251 385.99 245.887 388.34 248.251C390.691 250.616 392.309 253.609 393 256.87C394.68 267.725 394.68 278.775 393 289.63H393.04Z" fill="white"/>
<path d="M489.28 177.13C487.95 166.07 486.49 156.13 484.99 147.13C476.44 98.74 433.12 54.72 384.89 44.9V25.24C384.758 18.6316 382.041 12.3383 377.321 7.71128C372.601 3.08426 366.255 0.492501 359.645 0.492501C353.035 0.492501 346.689 3.08426 341.969 7.71128C337.249 12.3383 334.532 18.6316 334.4 25.24V38.14C318.7 36.67 301.1 35.53 281.4 34.99V25.24C281.4 21.9221 280.746 18.6367 279.475 15.5719C278.204 12.507 276.341 9.72277 273.993 7.3785C271.645 5.03423 268.858 3.17589 265.791 1.90982C262.724 0.643745 259.438 -0.00522651 256.12 3.16986e-05C249.426 3.16986e-05 243.006 2.65924 238.273 7.39266C233.539 12.1261 230.88 18.546 230.88 25.24V35C211.15 35.54 193.55 36.67 177.88 38.14V25.24C177.88 18.546 175.221 12.1261 170.487 7.39266C165.754 2.65924 159.334 3.16986e-05 152.64 3.16986e-05C145.946 3.16986e-05 139.526 2.65924 134.793 7.39266C130.059 12.1261 127.4 18.546 127.4 25.24V44.81C79 54.54 35.58 98.61 27 147.09C25.5 156.09 24 166.09 22.71 177.09C22.71 177.09 115.43 172.45 256.1 172.45C396.77 172.45 489.28 177.13 489.28 177.13Z" fill="#00254D"/>
</g>
<defs>
<clipPath id="clip0_1048_18535">
<rect width="512" height="512" fill="white"/>
</clipPath>
</defs>
</svg>
