<svg width="512" height="512" viewBox="0 0 512 512" fill="none" xmlns="http://www.w3.org/2000/svg">
<g clip-path="url(#clip0_1048_18524)">
<path d="M256.37 0.899902C278.76 0.899902 301.37 9.4599 320.13 26.1299C342.74 46.1299 373.13 75.1999 413.7 116.24C439.38 142.17 460.28 163.92 477.11 182.13C486.89 192.72 495.32 202.13 502.57 210.47C503.963 212.083 505.297 213.72 506.57 215.38C519.46 232.03 507.09 255.17 485.87 255.23C483.309 255.148 480.787 254.578 478.44 253.55C478.57 262.77 478.6 274.14 478.5 284.36C478.42 292.74 478.267 300.78 478.04 308.48C476.78 351.33 473.61 384.06 470.15 409.04C463.08 457.91 421.96 500.04 374.44 506.92C361.05 508.79 345.37 510.53 327.01 511.87C327.01 511.87 292.29 512 256.35 512H256.28C220.34 512 185.61 511.87 185.61 511.87C167.26 510.53 151.61 508.79 138.19 506.92C90.69 500 49.57 457.91 42.5 409C39.04 384 35.86 351.29 34.61 308.44C34.3833 300.727 34.23 292.687 34.15 284.32C34.05 274.1 34.08 262.73 34.21 253.51C31.8596 254.538 29.3343 255.109 26.77 255.19C5.56001 255.17 -6.81 232 6.08001 215.38C7.36001 213.72 8.69334 212.083 10.08 210.47C17.33 202.12 25.76 192.72 35.54 182.13C52.37 163.92 73.27 142.13 98.94 116.24C139.55 75.2399 169.94 46.1599 192.51 26.1299C211.32 9.4599 233.91 0.939902 256.3 0.899902H256.37Z" fill="#FFB700"/>
<path d="M399.24 121.5C399.24 114.58 398.99 107.727 398.49 100.94C365.4 67.8599 339.82 43.5799 320.13 26.1299C301.35 9.4599 278.76 0.939902 256.37 0.899902H256.3C233.91 0.899902 211.3 9.4599 192.53 26.1299C169.93 46.1299 139.53 75.1999 98.96 116.24C73.29 142.17 52.39 163.92 35.56 182.13C25.78 192.72 17.35 202.13 10.1 210.47C8.70669 212.083 7.37335 213.72 6.10002 215.38C4.26499 217.723 2.863 220.374 1.96002 223.21V237.39C3.64144 242.631 6.96189 247.194 11.4322 250.406C15.9024 253.618 21.2861 255.309 26.79 255.23C29.3544 255.149 31.8796 254.578 34.23 253.55C34.1 262.77 34.07 274.14 34.17 284.36C34.2367 292.74 34.39 300.78 34.63 308.48C35.55 339.95 37.51 365.96 39.85 387.48C66.3398 395.636 93.9032 399.772 121.62 399.75C274.94 399.73 399.24 275.16 399.24 121.5Z" fill="#FFC533"/>
<path d="M256.33 0.899902C278.73 0.899902 301.51 9.4599 320.33 26.1299C342.93 46.1299 373.33 75.1999 413.9 116.24C439.57 142.17 460.47 163.92 477.31 182.13C487.1 192.72 495.52 202.13 502.77 210.47C504.157 212.083 505.49 213.72 506.77 215.38C519.66 232.03 507.29 255.17 486.08 255.23H486C481.318 255.221 476.823 253.388 473.47 250.12L280.13 61.7799C273.765 55.5721 265.226 52.0975 256.335 52.0975C247.444 52.0975 238.905 55.5721 232.54 61.7799L39.22 250.12C35.8669 253.388 31.3723 255.221 26.69 255.23H26.61C5.40001 255.17 -6.99999 232 5.91001 215.38C7.19001 213.72 8.52334 212.083 9.91001 210.47C17.16 202.12 25.58 192.72 35.37 182.13C52.21 163.92 73.11 142.13 98.78 116.24C139.38 75.2399 169.78 46.1599 192.35 26.1299C211.16 9.4599 233.94 0.939902 256.33 0.899902Z" fill="#00254D"/>
<path d="M312.76 348C304.281 339.489 293.121 334.172 281.17 332.95H280.8C266.23 331.46 258.27 332.13 258.26 332.13C249.252 331.779 240.23 332.053 231.26 332.95H230.89C218.931 334.137 207.76 339.46 199.306 348.002C190.852 356.544 185.644 367.769 184.58 379.74C182.94 397.37 182.98 451.05 183.69 478.35C183.92 487.79 184.32 500.11 184.85 511.84L185.68 511.9C185.68 511.9 220.41 512.03 256.35 512.03H256.42C292.36 512.03 327.08 511.9 327.08 511.9H327.24C327.77 500.14 328.17 487.81 328.4 478.35C329.12 451.05 329.16 397.35 327.52 379.74C326.439 367.766 321.22 356.543 312.76 348Z" fill="white"/>
</g>
<defs>
<clipPath id="clip0_1048_18524">
<rect width="512" height="512" fill="white"/>
</clipPath>
</defs>
</svg>
