<svg width="512" height="512" viewBox="0 0 512 512" fill="none" xmlns="http://www.w3.org/2000/svg">
<g clip-path="url(#clip0_1048_18552)">
<path d="M256.02 512C362.489 512 448.8 486.153 448.8 454.27C448.8 422.387 362.489 396.54 256.02 396.54C149.551 396.54 63.24 422.387 63.24 454.27C63.24 486.153 149.551 512 256.02 512Z" fill="#00254D"/>
<path d="M376.14 53.9999C342.81 20.0899 300.56 -0.0700624 256 -6.24462e-05H254.79C164.42 1.46994 84.12 85.8599 81.87 175.87C81.5188 195.722 84.985 215.456 92.08 234L92.2 234.3C92.63 237.21 129.26 319.3 243.2 441.37C243.592 441.915 244.016 442.435 244.47 442.93C245.888 444.511 247.615 445.784 249.545 446.671C251.474 447.557 253.566 448.039 255.689 448.085C257.812 448.131 259.922 447.74 261.888 446.938C263.854 446.136 265.635 444.938 267.12 443.42C311.065 399.353 350.278 350.808 384.12 298.58C408.73 260.24 419.36 235.65 419.79 234.58C419.87 234.39 419.95 234.2 420.02 234.01C427.053 215.633 430.525 196.085 430.25 176.41C429.6 131.49 409.7 88.2899 376.14 53.9999Z" fill="#FFB700"/>
<path d="M256 -6.24462e-05H254.79C164.42 1.45994 84.12 85.8599 81.87 175.87C81.5188 195.722 84.985 215.456 92.08 234L92.2 234.3C92.57 236.78 119.2 296.77 197.62 390C313.76 356.58 398.73 249.54 398.73 122.66C398.734 106.981 397.42 91.3288 394.8 75.8699C389.091 68.1591 382.856 60.8517 376.14 53.9999C342.81 20.0899 300.56 -0.0700624 256 -6.24462e-05Z" fill="#FFC533"/>
<path d="M256 245.57C217.94 245.57 186.95 214.65 187.14 176.87C187.33 139.09 218.39 107.66 256 107.62C293.61 107.58 324.6 139.12 324.86 176.88C325.12 214.64 294.06 245.51 256 245.57Z" fill="white"/>
</g>
<defs>
<clipPath id="clip0_1048_18552">
<rect width="512" height="512" fill="white"/>
</clipPath>
</defs>
</svg>
