<svg width="512" height="512" viewBox="0 0 512 512" fill="none" xmlns="http://www.w3.org/2000/svg">
<g clip-path="url(#clip0_1048_18547)">
<path d="M256.23 0H255.77C138.71 0 43.77 94.9 43.77 212C43.77 342.89 180.61 481.21 247.23 510.2C250.021 511.412 253.032 512.037 256.075 512.037C259.118 512.037 262.129 511.412 264.92 510.2C331.52 481.2 468.15 342.88 468.15 212C468.19 94.9 373.29 0 256.23 0Z" fill="#009B77"/>
<path d="M43.8101 212C43.8101 278.06 78.6801 346 121.81 400.85C275 400.33 399.05 276 399.05 122.66C399.07 96.8299 395.493 71.1229 388.42 46.28C350.909 16.2568 304.277 -0.069203 256.23 -2.51994e-05H255.77C138.71 -2.51994e-05 43.8101 94.9 43.8101 212Z" fill="#33AF92"/>
<path d="M355.56 196.81C346 208.73 336 221.07 326 233.64C324.006 236.125 322.913 239.213 322.9 242.4C322.9 258.02 322.567 273.63 321.9 289.23C321.43 298.77 311.76 306.38 303.25 303.63C289.25 299.14 275.02 294.15 260.51 288.85C257.604 287.79 254.416 287.79 251.51 288.85C237 294.15 222.73 299.14 208.77 303.63C200.26 306.38 190.59 298.77 190.12 289.23C189.453 273.63 189.12 258.02 189.12 242.4C189.105 239.214 188.013 236.126 186.02 233.64C176.02 221.07 166.08 208.73 156.49 196.81C150.58 189.53 154.67 178.81 164.16 175.76C179.6 170.92 194.99 165.99 210.29 161.14C213.376 160.15 216.05 158.171 217.9 155.51C227.14 142.2 236.28 128.8 245.07 115.51C246.22 113.623 247.835 112.063 249.762 110.981C251.688 109.899 253.86 109.33 256.07 109.33C258.28 109.33 260.452 109.899 262.379 110.981C264.305 112.063 265.921 113.623 267.07 115.51C275.86 128.82 285 142.22 294.24 155.51C296.09 158.171 298.764 160.15 301.85 161.14C317.15 165.99 332.54 170.92 347.98 175.76C357.38 178.78 361.47 189.53 355.56 196.81Z" fill="white"/>
</g>
<defs>
<clipPath id="clip0_1048_18547">
<rect width="512" height="512" fill="white"/>
</clipPath>
</defs>
</svg>
