<svg width="512" height="512" viewBox="0 0 512 512" fill="none" xmlns="http://www.w3.org/2000/svg">
<g clip-path="url(#clip0_1048_18565)">
<path d="M237 394.58V437.88L172 476.68C169.803 477.93 167.878 479.607 166.338 481.61C164.797 483.614 163.672 485.905 163.027 488.349C162.383 490.793 162.233 493.341 162.586 495.843C162.938 498.346 163.787 500.753 165.081 502.924C166.376 505.095 168.091 506.985 170.125 508.485C172.159 509.985 174.473 511.064 176.929 511.659C179.386 512.253 181.936 512.352 184.431 511.949C186.926 511.545 189.316 510.648 191.46 509.31L256 470.79L320.59 509.31C322.734 510.648 325.124 511.545 327.619 511.949C330.114 512.352 332.664 512.253 335.121 511.659C337.577 511.064 339.89 509.985 341.925 508.485C343.959 506.985 345.674 505.095 346.969 502.924C348.263 500.753 349.112 498.346 349.464 495.843C349.817 493.341 349.667 490.793 349.022 488.349C348.378 485.905 347.253 483.614 345.712 481.61C344.171 479.607 342.246 477.93 340.05 476.68L275 437.88V394.66L237 394.58Z" fill="#00254D"/>
<path d="M275 394.66C316.37 393.87 381.61 389.66 399.16 386.13C432.38 379.69 464.5 349.34 471.83 316.21C476.01 296.1 480.11 231.31 480.17 193.96C480.12 162.09 477.17 91.2 473.65 63.42C429.26 56.16 328.2 47.25 256.27 48.05H255.74C185.81 47.28 88.4599 55.66 42.2799 62.8C38.7699 90.41 35.7399 161.8 35.6799 193.96C35.7499 231.31 39.8499 296.1 44.0299 316.21C51.3599 349.34 83.4799 379.69 116.69 386.13C133.69 389.53 195.54 393.61 236.99 394.58C237 394.58 256.83 395.17 275 394.66Z" fill="#FFB700"/>
<path d="M256.27 48.0501H255.74C185.81 47.2801 88.4599 55.6601 42.2799 62.8001C38.7699 90.4101 35.7399 161.8 35.6799 193.96C35.7499 231.31 39.8499 296.1 44.0299 316.21C45.0264 320.661 46.4255 325.012 48.2099 329.21C71.9072 335.601 96.3459 338.829 120.89 338.81C274.51 338.81 399.05 214.27 399.05 60.6401C399.05 58.6401 399.05 56.6401 398.98 54.6401C353.31 50.6001 299.52 47.5701 256.27 48.0501Z" fill="#FFC533"/>
<path d="M488 65.62C486.412 65.6207 484.827 65.4633 483.27 65.15C445.84 57.67 334.02 47.15 256.27 48.05H255.74C177.92 47.2 66.13 57.67 28.74 65.15C22.4981 66.4019 16.0146 65.1228 10.7158 61.5943C5.41691 58.0658 1.73679 52.5769 0.48497 46.335C-0.766852 40.0932 0.512171 33.6097 4.04067 28.3108C7.56916 23.012 13.0581 19.3318 19.3 18.08C63.3 9.28003 181.07 -0.729973 256 0.0800274C291.66 -0.299973 338.15 1.63003 387 5.54003C431.71 9.11003 471.25 13.81 492.74 18.11C498.557 19.3037 503.725 22.6114 507.245 27.3939C510.765 32.1763 512.387 38.0939 511.797 44.0028C511.208 49.9116 508.449 55.3921 504.053 59.3849C499.658 63.3777 493.938 65.5992 488 65.62Z" fill="#00254D"/>
<path d="M157.35 300.87C138.712 300.93 120.796 293.674 107.451 280.663C94.1072 267.652 86.4011 249.924 85.9898 231.291C85.5784 212.658 92.4947 194.607 105.252 181.02C118.009 167.432 135.588 159.393 154.21 158.63C154.616 158.611 155.021 158.675 155.401 158.817C155.781 158.959 156.129 159.177 156.422 159.458C156.716 159.738 156.95 160.075 157.109 160.449C157.268 160.822 157.35 161.224 157.35 161.63V222.63C157.343 223.558 157.521 224.478 157.873 225.336C158.225 226.194 158.744 226.974 159.4 227.63C160.056 228.286 160.836 228.805 161.694 229.157C162.552 229.509 163.472 229.687 164.4 229.68H225.4C225.806 229.68 226.208 229.762 226.581 229.921C226.955 230.081 227.292 230.314 227.572 230.608C227.853 230.901 228.071 231.249 228.213 231.629C228.355 232.009 228.419 232.415 228.4 232.82C227.599 251.13 219.765 268.424 206.529 281.101C193.293 293.778 175.677 300.859 157.35 300.87ZM246.35 208.82H181.26C180.464 208.82 179.701 208.504 179.139 207.941C178.576 207.379 178.26 206.616 178.26 205.82V140.75C178.259 140.343 178.342 139.94 178.502 139.566C178.662 139.192 178.896 138.855 179.191 138.574C179.486 138.293 179.834 138.076 180.216 137.934C180.597 137.792 181.004 137.73 181.41 137.75C199.176 138.537 216.003 145.948 228.577 158.523C241.152 171.097 248.563 187.924 249.35 205.69C249.368 206.098 249.302 206.506 249.157 206.888C249.011 207.269 248.789 207.617 248.505 207.911C248.22 208.204 247.879 208.435 247.501 208.592C247.124 208.748 246.718 208.826 246.31 208.82H246.35ZM351.77 277.43H304.29C299.251 277.43 294.418 275.428 290.855 271.865C287.292 268.302 285.29 263.469 285.29 258.43C285.29 253.391 287.292 248.558 290.855 244.995C294.418 241.432 299.251 239.43 304.29 239.43H351.73C356.769 239.43 361.602 241.432 365.165 244.995C368.728 248.558 370.73 253.391 370.73 258.43C370.73 263.469 368.728 268.302 365.165 271.865C361.602 275.428 356.769 277.43 351.73 277.43H351.77ZM406.77 206.28H304.29C299.251 206.28 294.418 204.278 290.855 200.715C287.292 197.152 285.29 192.319 285.29 187.28C285.29 182.241 287.292 177.408 290.855 173.845C294.418 170.282 299.251 168.28 304.29 168.28H406.78C411.819 168.28 416.652 170.282 420.215 173.845C423.778 177.408 425.78 182.241 425.78 187.28C425.78 192.319 423.778 197.152 420.215 200.715C416.652 204.278 411.819 206.28 406.78 206.28H406.77Z" fill="white"/>
</g>
<defs>
<clipPath id="clip0_1048_18565">
<rect width="512" height="512" fill="white"/>
</clipPath>
</defs>
</svg>
