<svg width="512" height="512" viewBox="0 0 512 512" fill="none" xmlns="http://www.w3.org/2000/svg">
<g clip-path="url(#clip0_1048_18530)">
<path d="M463 84.7101C458.549 76.1191 451.134 69.4328 442.13 65.8901C382.13 42.6201 323.13 20.4101 265.61 1.46014C259.768 -0.488668 253.452 -0.488668 247.61 1.46014C190.1 20.3601 131.11 42.5301 71.12 65.7701C63.2135 68.9146 56.5157 74.4984 52 81.7101C52.33 81.7601 39.66 121.31 37.51 208.71C36.18 296 47.06 322.19 46.7 322.22C52.58 341.41 63.6 360.95 79.4 380.81C97.05 402.99 120.9 425.9 149.7 448.43C197.4 485.86 242.03 508.23 243.9 509.02C247.866 510.987 252.233 512.01 256.66 512.01C261.087 512.01 265.454 510.987 269.42 509.02C271.3 508.23 315.98 485.79 363.65 448.37C392.46 425.83 416.32 402.92 433.98 380.75C450.9 359.48 462.34 338.61 467.87 318.11C467.65 318.11 475.65 286 474.54 212.48C473.13 139 462.89 84.7501 463 84.7101Z" fill="#009B77"/>
<path d="M256.66 1.42497e-06C253.602 -0.00096395 250.563 0.488587 247.66 1.45C190.15 20.35 131.16 42.52 71.17 65.76C63.2436 68.898 56.5271 74.4864 52 81.71C52.33 81.76 39.66 121.31 37.51 208.71C36.18 296 47.06 322.19 46.7 322.22C52.58 341.41 63.6 360.95 79.4 380.81C83.9867 386.577 88.9867 392.393 94.4 398.26C102.86 399.027 111.423 399.417 120.09 399.43C273.98 399.43 398.74 274.67 398.74 120.78C398.759 95.2584 395.277 69.8548 388.39 45.28C346.85 29.58 305.87 14.72 265.62 1.46C262.73 0.500402 259.705 0.00755398 256.66 1.42497e-06Z" fill="#33AF92"/>
<path d="M382 206.31C339.67 249.9 296.16 295.54 253.52 340.59C250.059 344.264 245.882 347.192 241.248 349.192C236.613 351.192 231.618 352.222 226.57 352.22H226.4C221.348 352.163 216.358 351.098 211.721 349.09C207.085 347.081 202.897 344.167 199.4 340.52C176.57 316.89 153.58 293.31 130.74 270.18C116.13 255.42 116.58 232.18 131.68 217.75C146.78 203.32 170.58 203.24 185.02 218.06C198.593 231.96 212.217 245.96 225.89 260.06C259.77 224.52 293.78 188.7 326.89 153.9C340.96 139.09 364.48 139.27 379.79 153.9C395.1 168.53 396.18 191.7 382 206.31Z" fill="white"/>
</g>
<defs>
<clipPath id="clip0_1048_18530">
<rect width="512" height="512" fill="white"/>
</clipPath>
</defs>
</svg>
