<svg width="45" height="45" viewBox="0 0 45 45" fill="none" xmlns="http://www.w3.org/2000/svg">
<path d="M22 1.42383C33.334 1.42383 42.582 10.6718 42.582 22.0059C42.582 33.3391 33.3349 42.5771 22 42.5771C10.6651 42.5771 1.41797 33.3391 1.41797 22.0059C1.41797 10.6718 10.6659 1.42383 22 1.42383Z" fill="url(#paint0_linear_1299_11323)" stroke="#FFB700" stroke-width="2.75"/>
<g clip-path="url(#clip0_1299_11323)">
<path fill-rule="evenodd" clip-rule="evenodd" d="M17.8613 8.27734H26.1383L27.0873 9.22631C29.2344 11.3735 31.38 13.519 33.5255 15.6645V28.3365C33.5255 32.3991 30.201 35.7237 26.1383 35.7237H17.8613C13.7987 35.7237 10.4741 32.3991 10.4741 28.3365V15.6661C10.4742 11.6019 13.7987 8.27734 17.8613 8.27734Z" fill="#D50040"/>
<path fill-rule="evenodd" clip-rule="evenodd" d="M26.1384 8.27734L33.5096 15.6485H29.824C27.7967 15.6485 26.1384 13.9903 26.1384 11.9629V8.27734Z" fill="#E3547F"/>
<path d="M16.6488 20.2705H14.2988C13.9096 20.2705 13.5942 20.586 13.5942 20.975V21.5102V23.7915V26.2869C13.5942 26.6761 13.9097 26.9915 14.2988 26.9915C14.6878 26.9915 15.0033 26.676 15.0033 26.2869V24.4961H16.6488C17.8134 24.4961 18.7608 23.5486 18.7608 22.3841C18.7608 21.2187 17.8134 20.2705 16.6488 20.2705ZM16.6488 23.0871H15.0033V21.6796H16.6488C17.0364 21.6796 17.3517 21.9956 17.3517 22.3841C17.3517 22.7717 17.0364 23.0871 16.6488 23.0871ZM22.3505 20.2705H20.459C20.0699 20.2705 19.7545 20.586 19.7545 20.975V26.2869C19.7545 26.6761 20.07 26.9915 20.459 26.9915H22.3505C23.782 26.9915 24.9466 25.8262 24.9466 24.3938V22.8665C24.9466 21.4351 23.782 20.2705 22.3505 20.2705ZM23.5375 24.3938C23.5375 25.0492 23.005 25.5825 22.3505 25.5825H21.1636V21.6796H22.3506C23.0051 21.6796 23.5376 22.2121 23.5376 22.8666V24.3938H23.5375ZM30.4391 23.5871C30.4391 23.9762 30.1236 24.2916 29.7345 24.2916H27.5714V26.287C27.5714 26.6761 27.256 26.9915 26.8669 26.9915C26.4778 26.9915 26.1624 26.6761 26.1624 26.287V20.9751C26.1624 20.586 26.4778 20.2706 26.8669 20.2706H29.7345C30.1237 20.2706 30.4391 20.586 30.4391 20.9751C30.4391 21.3642 30.1236 21.6796 29.7345 21.6796H27.5714V22.8826H29.7345C30.1237 22.8826 30.4391 23.198 30.4391 23.5871Z" fill="url(#paint1_linear_1299_11323)"/>
</g>
<path d="M36.9721 44.6108C41.191 44.6108 44.611 41.1907 44.611 36.9719C44.611 32.7531 41.191 29.333 36.9721 29.333C32.7533 29.333 29.3333 32.7531 29.3333 36.9719C29.3333 41.1907 32.7533 44.6108 36.9721 44.6108Z" fill="#FFB700"/>
<path d="M33.4123 35.0804H40.532C40.6188 35.0804 40.7015 35.0446 40.761 34.9816C40.8206 34.9186 40.8515 34.8338 40.8466 34.7472L40.8426 34.6654C40.7914 33.8379 40.0998 33.1898 39.2678 33.1898H38.8628V32.8747C38.8628 32.7007 38.7217 32.5596 38.5477 32.5596C38.3738 32.5596 38.2326 32.7007 38.2326 32.8747V33.1898H35.7118V32.8747C35.7118 32.7007 35.5706 32.5596 35.3967 32.5596C35.2228 32.5596 35.0816 32.7007 35.0816 32.8747V33.1898H34.6767C33.8447 33.1898 33.1528 33.8381 33.1016 34.666L33.0977 34.7473C33.0927 34.8338 33.1237 34.9186 33.1831 34.9818C33.2425 35.045 33.3257 35.0804 33.4123 35.0804Z" fill="white"/>
<path d="M40.8958 36.0182C40.8917 35.8472 40.7518 35.7109 40.5808 35.7109H33.3634C33.1924 35.7109 33.0527 35.8472 33.0483 36.0182C33.0201 37.147 33.0401 38.2719 33.1078 39.362C33.157 40.153 33.7905 40.7863 34.5811 40.8355C35.3745 40.8853 36.1733 40.9102 36.9721 40.9102C37.7707 40.9102 38.5698 40.8853 39.3628 40.8353C40.1537 40.7862 40.7871 40.1526 40.8364 39.3619C40.9041 38.2719 40.9241 37.1469 40.8958 36.0182ZM38.5476 37.6016C38.2866 37.6016 38.075 37.39 38.075 37.1289C38.075 36.8678 38.2866 36.6562 38.5476 36.6562C38.8087 36.6562 39.0203 36.8678 39.0203 37.1289C39.0203 37.39 38.8087 37.6016 38.5476 37.6016ZM39.0203 38.7044C39.0203 38.9655 38.8087 39.1771 38.5476 39.1771C38.2866 39.1771 38.075 38.9655 38.075 38.7044C38.075 38.4434 38.2866 38.2318 38.5476 38.2318C38.8087 38.2318 39.0203 38.4434 39.0203 38.7044ZM35.3966 38.2318C35.6577 38.2318 35.8692 38.4434 35.8692 38.7044C35.8692 38.9655 35.6577 39.1771 35.3966 39.1771C35.1355 39.1771 34.9239 38.9655 34.9239 38.7044C34.9239 38.4434 35.1355 38.2318 35.3966 38.2318ZM34.9239 37.1289C34.9239 36.8678 35.1355 36.6562 35.3966 36.6562C35.6577 36.6562 35.8692 36.8678 35.8692 37.1289C35.8692 37.39 35.6577 37.6016 35.3966 37.6016C35.1355 37.6016 34.9239 37.39 34.9239 37.1289ZM36.4995 38.7044C36.4995 38.4434 36.711 38.2318 36.9721 38.2318C37.2332 38.2318 37.4448 38.4434 37.4448 38.7044C37.4448 38.9655 37.2332 39.1771 36.9721 39.1771C36.711 39.1771 36.4995 38.9655 36.4995 38.7044ZM36.9721 37.6016C36.711 37.6016 36.4995 37.39 36.4995 37.1289C36.4995 36.8678 36.711 36.6562 36.9721 36.6562C37.2332 36.6562 37.4448 36.8678 37.4448 37.1289C37.4448 37.39 37.2332 37.6016 36.9721 37.6016Z" fill="white"/>
<defs>
<linearGradient id="paint0_linear_1299_11323" x1="22" y1="0.0488281" x2="22" y2="43.9526" gradientUnits="userSpaceOnUse">
<stop stop-color="#D50040" stop-opacity="0.24"/>
<stop offset="1" stop-color="#D50040" stop-opacity="0.05"/>
</linearGradient>
<linearGradient id="paint1_linear_1299_11323" x1="22.0167" y1="20.2705" x2="22.0167" y2="26.9915" gradientUnits="userSpaceOnUse">
<stop stop-color="#FFC8D1"/>
<stop offset="1" stop-color="#FFECF0"/>
</linearGradient>
<clipPath id="clip0_1299_11323">
<rect width="27.5" height="27.5" fill="white" transform="translate(8.25 8.25)"/>
</clipPath>
</defs>
</svg>
