<svg width="44" height="44" viewBox="0 0 44 44" fill="none" xmlns="http://www.w3.org/2000/svg">
<g clip-path="url(#clip0_1299_12573)">
<path fill-rule="evenodd" clip-rule="evenodd" d="M22 43.9526C34.0935 43.9526 43.957 34.0994 43.957 22.0059C43.957 9.91248 34.0935 0.0488281 22 0.0488281C9.90653 0.0488281 0.0429688 9.91239 0.0429688 22.0059C0.0429688 34.0993 9.90653 43.9526 22 43.9526Z" fill="url(#paint0_linear_1299_12573)"/>
<g clip-path="url(#clip1_1299_12573)">
<path fill-rule="evenodd" clip-rule="evenodd" d="M17.8613 8.27734H26.1383L27.0873 9.22631C29.2344 11.3735 31.38 13.519 33.5255 15.6645V28.3365C33.5255 32.3991 30.201 35.7237 26.1383 35.7237H17.8613C13.7987 35.7237 10.4741 32.3991 10.4741 28.3365V15.6661C10.4742 11.6019 13.7987 8.27734 17.8613 8.27734Z" fill="#D50040"/>
<path fill-rule="evenodd" clip-rule="evenodd" d="M26.1384 8.27734L33.5096 15.6485H29.824C27.7967 15.6485 26.1384 13.9903 26.1384 11.9629V8.27734Z" fill="#E3547F"/>
<path d="M16.6488 20.2705H14.2988C13.9096 20.2705 13.5942 20.586 13.5942 20.975V21.5102V23.7915V26.2869C13.5942 26.6761 13.9097 26.9915 14.2988 26.9915C14.6878 26.9915 15.0033 26.676 15.0033 26.2869V24.4961H16.6488C17.8134 24.4961 18.7608 23.5486 18.7608 22.3841C18.7608 21.2187 17.8134 20.2705 16.6488 20.2705ZM16.6488 23.0871H15.0033V21.6796H16.6488C17.0364 21.6796 17.3517 21.9956 17.3517 22.3841C17.3517 22.7717 17.0364 23.0871 16.6488 23.0871ZM22.3505 20.2705H20.459C20.0699 20.2705 19.7545 20.586 19.7545 20.975V26.2869C19.7545 26.6761 20.07 26.9915 20.459 26.9915H22.3505C23.782 26.9915 24.9466 25.8262 24.9466 24.3938V22.8665C24.9466 21.4351 23.782 20.2705 22.3505 20.2705ZM23.5375 24.3938C23.5375 25.0492 23.005 25.5825 22.3505 25.5825H21.1636V21.6796H22.3506C23.0051 21.6796 23.5376 22.2121 23.5376 22.8666V24.3938H23.5375ZM30.4391 23.5871C30.4391 23.9762 30.1236 24.2916 29.7345 24.2916H27.5714V26.287C27.5714 26.6761 27.256 26.9915 26.8669 26.9915C26.4778 26.9915 26.1624 26.6761 26.1624 26.287V20.9751C26.1624 20.586 26.4778 20.2706 26.8669 20.2706H29.7345C30.1237 20.2706 30.4391 20.586 30.4391 20.9751C30.4391 21.3642 30.1236 21.6796 29.7345 21.6796H27.5714V22.8826H29.7345C30.1237 22.8826 30.4391 23.198 30.4391 23.5871Z" fill="url(#paint1_linear_1299_12573)"/>
</g>
</g>
<defs>
<linearGradient id="paint0_linear_1299_12573" x1="22" y1="0.0488281" x2="22" y2="43.9526" gradientUnits="userSpaceOnUse">
<stop stop-color="#D50040" stop-opacity="0.24"/>
<stop offset="1" stop-color="#D50040" stop-opacity="0.05"/>
</linearGradient>
<linearGradient id="paint1_linear_1299_12573" x1="22.0167" y1="20.2705" x2="22.0167" y2="26.9915" gradientUnits="userSpaceOnUse">
<stop stop-color="#FFC8D1"/>
<stop offset="1" stop-color="#FFECF0"/>
</linearGradient>
<clipPath id="clip0_1299_12573">
<rect width="44" height="44" fill="white"/>
</clipPath>
<clipPath id="clip1_1299_12573">
<rect width="27.5" height="27.5" fill="white" transform="translate(8.25 8.25)"/>
</clipPath>
</defs>
</svg>
