<svg width="40" height="40" viewBox="0 0 40 40" fill="none" xmlns="http://www.w3.org/2000/svg">
<path d="M36.4491 9.7378C35.8026 6.81896 32.973 4.14514 30.0461 3.57721C28.2625 3.22075 23.2874 2.78037 19.998 2.81461C16.7086 2.77835 11.7342 3.21739 9.95052 3.5752C7.02361 4.14514 4.19405 6.81896 3.55094 9.7378C3.17971 11.5101 2.81787 13.9214 2.8125 17.2128C2.81787 20.5022 3.17971 22.9142 3.55094 24.6872C4.19741 27.606 7.02697 30.2798 9.95387 30.8478C10.9165 31.0397 12.8103 31.2573 14.8658 31.4103C15.0986 31.776 15.3514 32.1653 15.6244 32.5784C16.7153 34.2311 17.5497 35.3824 18.1828 36.1847C19.2354 37.5192 20.7673 37.5192 21.8199 36.1847C22.453 35.3824 23.2874 34.2311 24.3783 32.5784C24.6513 32.1658 24.9041 31.7764 25.1368 31.4103C27.1931 31.2573 29.0862 31.0397 30.0495 30.8478C32.9764 30.2798 35.8059 27.606 36.4524 24.6872C36.8203 22.9142 37.1815 20.5036 37.1875 17.2128C37.1781 13.9207 36.8169 11.5107 36.4491 9.7378Z" fill="#FFB700"/>
<path d="M19.998 2.81461C16.7086 2.77835 11.7342 3.21739 9.95052 3.5752C7.02361 4.14514 4.19405 6.81896 3.55094 9.7378C3.17971 11.5101 2.81787 13.9214 2.8125 17.2128C2.81787 20.5022 3.17971 22.9142 3.55094 24.6872C3.93157 26.405 5.06877 28.0383 6.53692 29.2071C7.96902 29.55 9.43656 29.7228 10.9091 29.722C21.2225 29.722 29.5829 21.3615 29.5829 11.0489C29.5853 8.36316 29.0059 5.70881 27.8845 3.26841C25.5907 3.01063 22.3603 2.79044 19.998 2.81461Z" fill="#FFB700"/>
<path d="M21.8965 27.1922C21.8519 27.4013 21.7478 27.593 21.5966 27.7442C21.4454 27.8953 21.2537 27.9995 21.0446 28.0441C20.3512 28.1506 19.6455 28.1506 18.9521 28.0441C18.743 27.9996 18.5512 27.8954 18.4001 27.7443C18.2489 27.5931 18.1447 27.4013 18.1002 27.1922C17.9928 26.4986 17.9928 25.7926 18.1002 25.099C18.1447 24.8899 18.2489 24.6982 18.4001 24.547C18.5512 24.3958 18.743 24.2916 18.9521 24.2472C19.6455 24.1406 20.3512 24.1406 21.0446 24.2472C21.254 24.2919 21.446 24.3965 21.5972 24.5482C21.7484 24.6999 21.8524 24.8921 21.8965 25.1017C22.0039 25.7953 22.0039 26.5013 21.8965 27.1949V27.1922ZM25.9834 16.1968C25.4652 16.9299 24.6885 17.5992 23.5392 18.3021C22.0845 19.1989 21.8515 19.5675 21.8515 20.2891V20.5744C21.8562 20.8211 21.8117 21.0663 21.7205 21.2955C21.6294 21.5248 21.4934 21.7336 21.3206 21.9097C21.1478 22.0858 20.9416 22.2257 20.7141 22.3212C20.4867 22.4167 20.2424 22.4659 19.9957 22.4659C19.7489 22.4659 19.5047 22.4167 19.2772 22.3212C19.0497 22.2257 18.8435 22.0858 18.6707 21.9097C18.498 21.7336 18.362 21.5248 18.2708 21.2955C18.1797 21.0663 18.1352 20.8211 18.1398 20.5744V19.9132C18.1398 19.062 18.3526 18.3397 18.7903 17.7053C19.2146 17.0903 19.851 16.5439 20.7935 15.9834C22.5315 14.961 22.8497 14.387 22.8497 13.6251C22.8497 12.6678 22.0341 12.0488 20.7687 12.0488C19.3865 12.0488 18.4862 12.6772 18.0935 13.9171C17.9663 14.316 17.7149 14.6637 17.376 14.9096C17.0371 15.1555 16.6285 15.2866 16.2098 15.2839C16.1615 15.2839 16.1125 15.2839 16.0648 15.2785C15.7641 15.2573 15.4721 15.1676 15.2113 15.0164C14.9504 14.8651 14.7276 14.6563 14.5598 14.4058C14.3921 14.1597 14.2829 13.8786 14.2406 13.5839C14.1982 13.2892 14.2238 12.9887 14.3154 12.7054C14.7182 11.4143 15.5442 10.2966 16.6603 9.53276C17.7854 8.76613 19.2066 8.36133 20.7687 8.36133C22.3912 8.36133 23.897 8.87891 25.0087 9.81874C26.1532 10.7854 26.7829 12.1193 26.7829 13.574C26.7863 14.5743 26.5238 15.4349 25.9834 16.1968Z" fill="white"/>
</svg>
