<svg width="24" height="24" viewBox="0 0 24 24" fill="none" xmlns="http://www.w3.org/2000/svg">
<path d="M4 11.7744C4 11.3947 4.28215 11.0809 4.64823 11.0313L4.75 11.0244H19.75C20.1642 11.0244 20.5 11.3602 20.5 11.7744C20.5 12.1541 20.2178 12.4679 19.8518 12.5176L19.75 12.5244H4.75C4.33579 12.5244 4 12.1886 4 11.7744Z" fill="#2F2F2F"/>
<path d="M13.171 6.28147C12.8775 5.98921 12.8765 5.51434 13.1687 5.22081C13.4344 4.95397 13.851 4.92887 14.1451 5.14609L14.2294 5.21853L20.2794 11.2425C20.547 11.509 20.5714 11.9271 20.3524 12.2212L20.2794 12.3054L14.2294 18.3304C13.9359 18.6227 13.4611 18.6217 13.1688 18.3282C12.9031 18.0614 12.8797 17.6447 13.0982 17.3515L13.171 17.2676L18.687 11.7737L13.171 6.28147Z" fill="#2F2F2F"/>
</svg>
