<svg width="24" height="24" viewBox="0 0 24 24" fill="none" xmlns="http://www.w3.org/2000/svg">
<path d="M19 5.59623V14.6525C19 14.9818 18.733 15.2487 18.4037 15.2487C18.0745 15.2487 17.8075 14.9818 17.8075 14.6525V7.03577L6.01787 18.8254C5.90141 18.9418 5.74886 19 5.59626 19C5.44365 19 5.2911 18.9418 5.17464 18.8254C4.94179 18.5925 4.94179 18.215 5.17464 17.9821L16.9643 6.19246H9.34746C9.01818 6.19246 8.75123 5.9255 8.75123 5.59623C8.75123 5.26696 9.01818 5 9.34746 5H18.4037C18.733 4.99997 19 5.26696 19 5.59623Z" fill="#2F2F2F"/>
</svg>
