<svg width="24" height="24" viewBox="0 0 24 24" fill="none" xmlns="http://www.w3.org/2000/svg">
<path fill-rule="evenodd" clip-rule="evenodd" d="M14.8434 21.2865V3.66433C14.8434 3.11253 14.5694 2.59594 14.1118 2.2858C13.6542 1.9766 13.0729 1.91381 12.5601 2.11931L4.94921 5.16368C4.31751 5.41579 3.90271 6.02847 3.90271 6.70965V21.2865C3.90271 21.6813 4.22237 22 4.61623 22H14.1299C14.5238 22 14.8434 21.6813 14.8434 21.2865ZM13.4164 3.66433V20.5729H5.32976V6.70965C5.32976 6.61166 5.38874 6.52413 5.47912 6.48798L13.09 3.44361C13.1633 3.41507 13.2461 3.42363 13.3117 3.46739C13.3774 3.51211 13.4164 3.58632 13.4164 3.66433Z" fill="#2F2F2F"/>
<path fill-rule="evenodd" clip-rule="evenodd" d="M20.5516 21.2866V8.9188C20.5516 7.99978 19.8058 7.25391 18.8867 7.25391C17.2628 7.25391 14.1299 7.25391 14.1299 7.25391C13.736 7.25391 13.4164 7.57357 13.4164 7.96743V21.2866C13.4164 21.6814 13.736 22.0001 14.1299 22.0001H19.8381C20.232 22.0001 20.5516 21.6814 20.5516 21.2866ZM19.1246 8.9188V20.573H14.8434V8.68191L18.8867 8.68095C19.018 8.68095 19.1246 8.78751 19.1246 8.9188Z" fill="#2F2F2F"/>
<path fill-rule="evenodd" clip-rule="evenodd" d="M21.7408 20.5728H2.71352C2.31966 20.5728 2 20.8934 2 21.2863C2 21.6801 2.31966 21.9998 2.71352 21.9998H21.7408C22.1347 21.9998 22.4544 21.6801 22.4544 21.2863C22.4544 20.8934 22.1347 20.5728 21.7408 20.5728Z" fill="#2F2F2F"/>
<path fill-rule="evenodd" clip-rule="evenodd" d="M7.47036 9.15654H11.2758C11.6697 9.15654 11.9893 8.83688 11.9893 8.44302C11.9893 8.0501 11.6697 7.72949 11.2758 7.72949H7.47036C7.07649 7.72949 6.75684 8.0501 6.75684 8.44302C6.75684 8.83688 7.07649 9.15654 7.47036 9.15654Z" fill="#2F2F2F"/>
<path fill-rule="evenodd" clip-rule="evenodd" d="M7.47036 12.4861H11.2758C11.6697 12.4861 11.9893 12.1665 11.9893 11.7726C11.9893 11.3797 11.6697 11.0591 11.2758 11.0591H7.47036C7.07649 11.0591 6.75684 11.3797 6.75684 11.7726C6.75684 12.1665 7.07649 12.4861 7.47036 12.4861Z" fill="#2F2F2F"/>
<path fill-rule="evenodd" clip-rule="evenodd" d="M7.47036 15.8162H11.2758C11.6697 15.8162 11.9893 15.4965 11.9893 15.1027C11.9893 14.7098 11.6697 14.3892 11.2758 14.3892H7.47036C7.07649 14.3892 6.75684 14.7098 6.75684 15.1027C6.75684 15.4965 7.07649 15.8162 7.47036 15.8162Z" fill="#2F2F2F"/>
<path fill-rule="evenodd" clip-rule="evenodd" d="M7.47036 19.1453H11.2758C11.6697 19.1453 11.9893 18.8257 11.9893 18.4318C11.9893 18.0389 11.6697 17.7183 11.2758 17.7183H7.47036C7.07649 17.7183 6.75684 18.0389 6.75684 18.4318C6.75684 18.8257 7.07649 19.1453 7.47036 19.1453Z" fill="#2F2F2F"/>
</svg>
