<svg width="24" height="24" viewBox="0 0 24 24" fill="none" xmlns="http://www.w3.org/2000/svg">
<path d="M19.37 22.3123H4.62992C3.65407 22.3105 2.71871 21.922 2.02868 21.232C1.33865 20.5419 0.95019 19.6066 0.948364 18.6307L0.948364 9.79637C0.948363 8.81933 1.33602 7.8822 2.02625 7.19067C2.71647 6.49915 3.65288 6.10974 4.62992 6.10791H19.37C20.347 6.10974 21.2834 6.49915 21.9736 7.19067C22.6639 7.8822 23.0515 8.81933 23.0515 9.79637V18.6307C23.0497 19.6066 22.6612 20.5419 21.9712 21.232C21.2812 21.922 20.3458 22.3105 19.37 22.3123ZM4.62992 7.58606C4.04371 7.58606 3.48151 7.81893 3.06699 8.23344C2.65248 8.64796 2.41961 9.21016 2.41961 9.79637V18.6307C2.41961 19.2169 2.65248 19.7791 3.06699 20.1937C3.48151 20.6082 4.04371 20.841 4.62992 20.841H19.37C19.9562 20.841 20.5184 20.6082 20.9329 20.1937C21.3474 19.7791 21.5803 19.2169 21.5803 18.6307V9.79637C21.5803 9.21016 21.3474 8.64796 20.9329 8.23344C20.5184 7.81893 19.9562 7.58606 19.37 7.58606H4.62992Z" fill="#2F2F2F"/>
<path d="M15.6815 5.36906C15.5844 5.36906 15.4883 5.34994 15.3987 5.3128C15.309 5.27565 15.2275 5.22121 15.1589 5.15259C15.0903 5.08396 15.0358 5.00248 14.9987 4.91281C14.9615 4.82314 14.9424 4.72704 14.9424 4.62998V3.89781C14.9424 3.70299 14.8655 3.51604 14.7284 3.37764C14.5913 3.23923 14.4051 3.16056 14.2103 3.15874H9.78963C9.59362 3.15874 9.40563 3.23661 9.26703 3.37521C9.12843 3.51381 9.05056 3.7018 9.05056 3.89781V4.62998C9.06051 4.73257 9.0489 4.83611 9.01646 4.93395C8.98402 5.03179 8.93147 5.12176 8.86219 5.19808C8.79292 5.2744 8.70844 5.33539 8.6142 5.37712C8.51995 5.41886 8.41801 5.44042 8.31494 5.44042C8.21187 5.44042 8.10993 5.41886 8.01568 5.37712C7.92144 5.33539 7.83696 5.2744 7.76769 5.19808C7.69841 5.12176 7.64586 5.03179 7.61342 4.93395C7.58098 4.83611 7.56937 4.73257 7.57932 4.62998V3.89781C7.57932 3.3116 7.81219 2.7494 8.22671 2.33489C8.64122 1.92037 9.20342 1.6875 9.78963 1.6875H14.2103C14.7965 1.6875 15.3587 1.92037 15.7732 2.33489C16.1877 2.7494 16.4206 3.3116 16.4206 3.89781V4.62998C16.4206 4.72704 16.4015 4.82314 16.3643 4.91281C16.3272 5.00248 16.2727 5.08396 16.2041 5.15259C16.1355 5.22121 16.054 5.27565 15.9643 5.3128C15.8747 5.34994 15.7786 5.36906 15.6815 5.36906Z" fill="#2F2F2F"/>
<path d="M11.9999 14.5278C11.2851 14.5211 10.5794 14.3658 9.92774 14.072L5.09267 11.9376C4.90948 11.8579 4.76545 11.7087 4.69226 11.5229C4.61907 11.337 4.62273 11.1296 4.70241 10.9464C4.7821 10.7632 4.9313 10.6192 5.11718 10.546C5.30307 10.4728 5.51041 10.4765 5.6936 10.5562L10.5287 12.7043C10.9996 12.9132 11.509 13.0211 12.0241 13.0211C12.5392 13.0211 13.0486 12.9132 13.5195 12.7043L18.3546 10.5562C18.4453 10.5167 18.5429 10.4955 18.6418 10.4938C18.7407 10.492 18.8389 10.5098 18.931 10.546C19.023 10.5823 19.107 10.6363 19.1782 10.705C19.2494 10.7737 19.3063 10.8557 19.3457 10.9464C19.3852 11.0371 19.4064 11.1347 19.4082 11.2336C19.4099 11.3325 19.3921 11.4308 19.3559 11.5229C19.3197 11.6149 19.2656 11.6989 19.1969 11.7701C19.1282 11.8412 19.0462 11.8982 18.9555 11.9376L14.0721 14.072C13.4204 14.3658 12.7148 14.5211 11.9999 14.5278Z" fill="#2F2F2F"/>
</svg>
