<svg width="24" height="24" viewBox="0 0 24 24" fill="none" xmlns="http://www.w3.org/2000/svg">
<path fill-rule="evenodd" clip-rule="evenodd" d="M7.87501 11.3105C8.01141 11.3105 8.14475 11.351 8.25816 11.4268C8.37157 11.5026 8.45997 11.6103 8.51216 11.7363C8.56436 11.8623 8.57802 12.001 8.55141 12.1347C8.5248 12.2685 8.45912 12.3914 8.36267 12.4879C8.26622 12.5843 8.14333 12.65 8.00956 12.6766C7.87578 12.7032 7.73711 12.6895 7.6111 12.6373C7.48508 12.5851 7.37737 12.4968 7.30159 12.3833C7.22581 12.2699 7.18536 12.1366 7.18536 12.0002C7.18536 11.9096 7.2032 11.8199 7.23786 11.7363C7.27252 11.6526 7.32332 11.5766 7.38736 11.5125C7.4514 11.4485 7.52742 11.3977 7.6111 11.363C7.69477 11.3284 7.78445 11.3105 7.87501 11.3105Z" fill="#2F2F2F"/>
<path fill-rule="evenodd" clip-rule="evenodd" d="M12.0001 11.3105C12.1365 11.3105 12.2698 11.351 12.3832 11.4268C12.4966 11.5026 12.585 11.6103 12.6372 11.7363C12.6894 11.8623 12.7031 12.001 12.6765 12.1347C12.6499 12.2685 12.5842 12.3914 12.4877 12.4879C12.3913 12.5843 12.2684 12.65 12.1346 12.6766C12.0008 12.7032 11.8622 12.6895 11.7362 12.6373C11.6101 12.5851 11.5024 12.4968 11.4267 12.3833C11.3509 12.2699 11.3104 12.1366 11.3104 12.0002C11.3104 11.8173 11.3831 11.6419 11.5124 11.5125C11.6418 11.3832 11.8172 11.3105 12.0001 11.3105Z" fill="#2F2F2F"/>
<path fill-rule="evenodd" clip-rule="evenodd" d="M16.1251 11.3105C16.2615 11.3105 16.3948 11.351 16.5082 11.4268C16.6216 11.5026 16.71 11.6103 16.7622 11.7363C16.8144 11.8623 16.8281 12.001 16.8015 12.1347C16.7749 12.2685 16.7092 12.3914 16.6127 12.4879C16.5163 12.5843 16.3934 12.65 16.2596 12.6766C16.1258 12.7032 15.9872 12.6895 15.8612 12.6373C15.7351 12.5851 15.6274 12.4968 15.5517 12.3833C15.4759 12.2699 15.4354 12.1366 15.4354 12.0002C15.4354 11.8173 15.5081 11.6419 15.6374 11.5125C15.7668 11.3832 15.9422 11.3105 16.1251 11.3105Z" fill="#2F2F2F"/>
<path fill-rule="evenodd" clip-rule="evenodd" d="M7.87507 14.0625C8.01147 14.0625 8.14481 14.1029 8.25822 14.1787C8.37163 14.2545 8.46003 14.3622 8.51223 14.4882C8.56442 14.6142 8.57808 14.7529 8.55147 14.8867C8.52486 15.0205 8.45918 15.1434 8.36273 15.2398C8.26628 15.3363 8.1434 15.4019 8.00962 15.4285C7.87584 15.4552 7.73717 15.4415 7.61116 15.3893C7.48514 15.3371 7.37743 15.2487 7.30165 15.1353C7.22587 15.0219 7.18542 14.8885 7.18542 14.7521C7.18542 14.6616 7.20326 14.5719 7.23792 14.4882C7.27258 14.4046 7.32338 14.3285 7.38742 14.2645C7.45146 14.2005 7.52748 14.1497 7.61116 14.115C7.69483 14.0803 7.78451 14.0625 7.87507 14.0625Z" fill="#2F2F2F"/>
<path fill-rule="evenodd" clip-rule="evenodd" d="M12.0001 14.0625C12.1365 14.0625 12.2698 14.1029 12.3832 14.1787C12.4966 14.2545 12.585 14.3622 12.6372 14.4882C12.6894 14.6142 12.7031 14.7529 12.6765 14.8867C12.6499 15.0205 12.5842 15.1434 12.4877 15.2398C12.3913 15.3363 12.2684 15.4019 12.1346 15.4285C12.0008 15.4552 11.8622 15.4415 11.7362 15.3893C11.6101 15.3371 11.5024 15.2487 11.4267 15.1353C11.3509 15.0219 11.3104 14.8885 11.3104 14.7521C11.3104 14.5692 11.3831 14.3938 11.5124 14.2645C11.6418 14.1352 11.8172 14.0625 12.0001 14.0625Z" fill="#2F2F2F"/>
<path fill-rule="evenodd" clip-rule="evenodd" d="M16.1251 14.0625C16.2615 14.0625 16.3948 14.1029 16.5082 14.1787C16.6216 14.2545 16.71 14.3622 16.7622 14.4882C16.8144 14.6142 16.8281 14.7529 16.8015 14.8867C16.7749 15.0205 16.7092 15.1434 16.6127 15.2398C16.5163 15.3363 16.3934 15.4019 16.2596 15.4285C16.1258 15.4552 15.9872 15.4415 15.8612 15.3893C15.7351 15.3371 15.6274 15.2487 15.5517 15.1353C15.4759 15.0219 15.4354 14.8885 15.4354 14.7521C15.4354 14.5692 15.5081 14.3938 15.6374 14.2645C15.7668 14.1352 15.9422 14.0625 16.1251 14.0625Z" fill="#2F2F2F"/>
<path fill-rule="evenodd" clip-rule="evenodd" d="M7.87507 16.8145C8.01147 16.8145 8.14481 16.8549 8.25822 16.9307C8.37163 17.0065 8.46003 17.1142 8.51223 17.2402C8.56442 17.3662 8.57808 17.5049 8.55147 17.6386C8.52486 17.7724 8.45918 17.8953 8.36273 17.9918C8.26628 18.0882 8.1434 18.1539 8.00962 18.1805C7.87584 18.2071 7.73717 18.1935 7.61116 18.1413C7.48514 18.0891 7.37743 18.0007 7.30165 17.8873C7.22587 17.7738 7.18542 17.6405 7.18542 17.5041C7.18542 17.4135 7.20326 17.3239 7.23792 17.2402C7.27258 17.1565 7.32338 17.0805 7.38742 17.0164C7.45146 16.9524 7.52748 16.9016 7.61116 16.8669C7.69483 16.8323 7.78451 16.8145 7.87507 16.8145Z" fill="#2F2F2F"/>
<path fill-rule="evenodd" clip-rule="evenodd" d="M12.0001 16.8145C12.1365 16.8145 12.2698 16.8549 12.3832 16.9307C12.4966 17.0065 12.585 17.1142 12.6372 17.2402C12.6894 17.3662 12.7031 17.5049 12.6765 17.6386C12.6499 17.7724 12.5842 17.8953 12.4877 17.9918C12.3913 18.0882 12.2684 18.1539 12.1346 18.1805C12.0008 18.2071 11.8622 18.1935 11.7362 18.1413C11.6101 18.0891 11.5024 18.0007 11.4267 17.8873C11.3509 17.7738 11.3104 17.6405 11.3104 17.5041C11.3104 17.3212 11.3831 17.1458 11.5124 17.0164C11.6418 16.8871 11.8172 16.8145 12.0001 16.8145Z" fill="#2F2F2F"/>
<path fill-rule="evenodd" clip-rule="evenodd" d="M16.1251 16.8145C16.2615 16.8145 16.3948 16.8549 16.5082 16.9307C16.6216 17.0065 16.71 17.1142 16.7622 17.2402C16.8144 17.3662 16.8281 17.5049 16.8015 17.6386C16.7749 17.7724 16.7092 17.8953 16.6127 17.9918C16.5163 18.0882 16.3934 18.1539 16.2596 18.1805C16.1258 18.2071 15.9872 18.1935 15.8612 18.1413C15.7351 18.0891 15.6274 18.0007 15.5517 17.8873C15.4759 17.7738 15.4354 17.6405 15.4354 17.5041C15.4354 17.3212 15.5081 17.1458 15.6374 17.0164C15.7668 16.8871 15.9422 16.8145 16.1251 16.8145Z" fill="#2F2F2F"/>
<path d="M21.307 4.07227C20.9887 3.75216 20.6101 3.49845 20.1929 3.32585C19.7758 3.15324 19.3286 3.06519 18.8772 3.0668H17.4979V1.6875H16.125V3.06035H7.87501V1.6875H6.50215V3.06035H5.12286C4.67118 3.06035 4.22393 3.14942 3.80672 3.32247C3.3895 3.49551 3.0105 3.74914 2.69142 4.06882C2.37233 4.38851 2.11942 4.76798 1.94715 5.18552C1.77489 5.60306 1.68666 6.05047 1.68751 6.50215V18.8771C1.68751 19.7883 2.04944 20.6621 2.6937 21.3063C3.33795 21.9506 4.21175 22.3125 5.12286 22.3125H18.8772C19.7883 22.3125 20.6621 21.9506 21.3063 21.3063C21.9506 20.6621 22.3125 19.7883 22.3125 18.8771V6.50215C22.3141 6.05073 22.2261 5.60349 22.0535 5.18637C21.8809 4.76925 21.6271 4.39056 21.307 4.07227ZM3.66622 5.03906C3.85696 4.84686 4.08389 4.69436 4.33391 4.59037C4.58393 4.48638 4.85208 4.43296 5.12286 4.4332H6.50215V5.8125H7.87501V4.43965H16.125V5.8125H17.4979V4.43965H18.8707C19.4177 4.43965 19.9423 4.65695 20.3291 5.04374C20.7159 5.43053 20.9332 5.95514 20.9332 6.50215V7.875H3.06036V6.50215C3.05926 6.23028 3.11227 5.96091 3.21628 5.70973C3.32029 5.45855 3.47324 5.23057 3.66622 5.03906ZM20.3338 20.3338C20.1431 20.526 19.9161 20.6785 19.6661 20.7825C19.4161 20.8865 19.1479 20.9399 18.8772 20.9396H5.12286C4.57585 20.9396 4.05124 20.7223 3.66445 20.3356C3.27766 19.9488 3.06036 19.4242 3.06036 18.8771V9.24785H20.9397V18.8771C20.9399 19.1479 20.8865 19.4161 20.7825 19.6661C20.6785 19.9161 20.526 20.143 20.3338 20.3338Z" fill="#2F2F2F"/>
</svg>
