<svg width="24" height="24" viewBox="0 0 24 24" fill="none" xmlns="http://www.w3.org/2000/svg">
<path d="M16.762 13.9165C17.288 13.9165 17.7143 13.4901 17.7143 12.9641C17.7143 12.4381 17.288 12.0117 16.762 12.0117C16.236 12.0117 15.8096 12.4381 15.8096 12.9641C15.8096 13.4901 16.236 13.9165 16.762 13.9165Z" fill="#2F2F2F"/>
<path d="M16.762 17.7261C17.288 17.7261 17.7143 17.2997 17.7143 16.7737C17.7143 16.2477 17.288 15.8213 16.762 15.8213C16.236 15.8213 15.8096 16.2477 15.8096 16.7737C15.8096 17.2997 16.236 17.7261 16.762 17.7261Z" fill="#2F2F2F"/>
<path d="M12.9524 12.9641C12.9524 13.4901 12.526 13.9165 12 13.9165C11.474 13.9165 11.0476 13.4901 11.0476 12.9641C11.0476 12.4381 11.474 12.0117 12 12.0117C12.526 12.0117 12.9524 12.4381 12.9524 12.9641Z" fill="#2F2F2F"/>
<path d="M12.9524 16.7737C12.9524 17.2997 12.526 17.7261 12 17.7261C11.474 17.7261 11.0476 17.2997 11.0476 16.7737C11.0476 16.2477 11.474 15.8213 12 15.8213C12.526 15.8213 12.9524 16.2477 12.9524 16.7737Z" fill="#2F2F2F"/>
<path d="M7.23815 13.9165C7.76414 13.9165 8.19053 13.4901 8.19053 12.9641C8.19053 12.4381 7.76414 12.0117 7.23815 12.0117C6.71217 12.0117 6.28577 12.4381 6.28577 12.9641C6.28577 13.4901 6.71217 13.9165 7.23815 13.9165Z" fill="#2F2F2F"/>
<path d="M7.23815 17.7261C7.76414 17.7261 8.19053 17.2997 8.19053 16.7737C8.19053 16.2477 7.76414 15.8213 7.23815 15.8213C6.71217 15.8213 6.28577 16.2477 6.28577 16.7737C6.28577 17.2997 6.71217 17.7261 7.23815 17.7261Z" fill="#2F2F2F"/>
<path fill-rule="evenodd" clip-rule="evenodd" d="M7.23815 2.25C7.63264 2.25 7.95244 2.5698 7.95244 2.96429V3.69069C8.58292 3.67856 9.27752 3.67856 10.0414 3.67857H13.9585C14.7225 3.67856 15.4172 3.67856 16.0477 3.69069V2.96429C16.0477 2.5698 16.3675 2.25 16.762 2.25C17.1564 2.25 17.4762 2.5698 17.4762 2.96429V3.75199C17.7238 3.77087 17.9582 3.79459 18.1801 3.82441C19.2966 3.97453 20.2004 4.29084 20.9132 5.00356C21.6259 5.7163 21.9422 6.62005 22.0923 7.73665C22.2382 8.8216 22.2382 10.2079 22.2382 11.9581V13.9704C22.2382 15.7206 22.2382 17.107 22.0923 18.1919C21.9422 19.3085 21.6259 20.2123 20.9132 20.925C20.2004 21.6377 19.2966 21.954 18.1801 22.1042C17.0951 22.25 15.7088 22.25 13.9586 22.25H10.0416C8.29134 22.25 6.90499 22.25 5.82004 22.1042C4.70345 21.954 3.79969 21.6377 3.08695 20.925C2.37423 20.2123 2.05793 19.3085 1.90781 18.1919C1.76193 17.107 1.76194 15.7207 1.76196 13.9704V11.9582C1.76194 10.2079 1.76193 8.82161 1.90781 7.73665C2.05793 6.62005 2.37423 5.7163 3.08695 5.00356C3.79969 4.29084 4.70345 3.97453 5.82004 3.82441C6.04187 3.79459 6.27631 3.77087 6.52387 3.75199V2.96429C6.52387 2.5698 6.84367 2.25 7.23815 2.25ZM6.01039 5.24025C5.05221 5.36907 4.50016 5.61066 4.09711 6.01371C3.69405 6.41677 3.45246 6.96882 3.32364 7.927C3.30182 8.08927 3.28358 8.2601 3.26833 8.44048H20.7318C20.7165 8.2601 20.6982 8.08928 20.6764 7.927C20.5477 6.96882 20.3061 6.41677 19.903 6.01371C19.5 5.61066 18.9479 5.36907 17.9898 5.24025C17.011 5.10866 15.7208 5.10714 13.9048 5.10714H10.0953C8.27928 5.10714 6.98912 5.10866 6.01039 5.24025ZM3.19053 12.0119C3.19053 11.1986 3.19084 10.4907 3.203 9.86905H20.7971C20.8093 10.4907 20.8096 11.1986 20.8096 12.0119V13.9167C20.8096 15.7327 20.8081 17.0229 20.6764 18.0016C20.5477 18.9597 20.3061 19.5118 19.903 19.9149C19.5 20.3179 18.9479 20.5595 17.9898 20.6883C17.011 20.8199 15.7208 20.8214 13.9048 20.8214H10.0953C8.27928 20.8214 6.98912 20.8199 6.01039 20.6883C5.05221 20.5595 4.50016 20.3179 4.09711 19.9149C3.69405 19.5118 3.45246 18.9597 3.32364 18.0016C3.19205 17.0229 3.19053 15.7327 3.19053 13.9167V12.0119Z" fill="#2F2F2F"/>
</svg>
