<svg width="24" height="24" viewBox="0 0 24 24" fill="none" xmlns="http://www.w3.org/2000/svg">
<path d="M13.2827 12.0001L18.7341 6.54851C19.0889 6.1939 19.0889 5.62056 18.7341 5.26595C18.3795 4.91135 17.8061 4.91135 17.4515 5.26595L11.9999 10.7176L6.54851 5.26595C6.19374 4.91135 5.62056 4.91135 5.26596 5.26595C4.91119 5.62056 4.91119 6.1939 5.26596 6.54851L10.7174 12.0001L5.26596 17.4517C4.91119 17.8063 4.91119 18.3797 5.26596 18.7343C5.44268 18.9111 5.67504 19 5.90723 19C6.13943 19 6.37162 18.9111 6.54851 18.7343L11.9999 13.2827L17.4515 18.7343C17.6284 18.9111 17.8606 19 18.0928 19C18.325 19 18.5572 18.9111 18.7341 18.7343C19.0889 18.3797 19.0889 17.8063 18.7341 17.4517L13.2827 12.0001Z" fill="#2F2F2F"/>
</svg>
