<svg height="512" viewBox="0 0 512 512" width="512" xmlns="http://www.w3.org/2000/svg"><g id="Layer_2" data-name="Layer 2"><g id="Layer_1-2" data-name="Layer 1"><g id="_58.Cookie" data-name="58.Cookie"><path d="m512 256c0 141.39-114.61 256-256 256s-256-114.64-256-256c0-139.33 111.23-252.65 249.7-256-.11 1.53-.17 3.09-.17 4.65a64.61 64.61 0 0 0 51 63.16 102.55 102.55 0 0 0 137.52 141.66 64.54 64.54 0 0 0 73.95 45.38z" fill="#ffb864"/><g fill="#784132"><ellipse cx="334.98" cy="433.94" rx="32.19" ry="32.2"/><ellipse cx="188.01" cy="60.4" rx="32.19" ry="32.2"/><ellipse cx="115.65" cy="374.02" rx="32.19" ry="32.2"/><ellipse cx="173.72" cy="231.61" rx="36.08" ry="36.09"/><circle cx="362.84" cy="24.4" r="20.44"/><circle cx="345.99" cy="118.88" r="20.44"/><circle cx="440.44" cy="114.29" r="14.59"/><circle cx="88.13" cy="128.88" r="23.95"/><circle cx="223.81" cy="309.6" r="23.95"/><path d="m303.33 175.22a24 24 0 1 1 -16.81-41h1.29a101.66 101.66 0 0 0 15.52 41z"/><circle cx="52.41" cy="255.15" r="11.77"/><circle cx="212.04" cy="468.85" r="11.77"/><circle cx="327.59" cy="255.96" r="13.04"/><circle cx="249.53" cy="406.22" r="13.04"/><circle cx="468.71" cy="281.46" r="13.04"/></g><path d="m512 254.85v1.15c0 141.39-114.62 256-256 256a255.11 255.11 0 0 1 -177.46-71.5 254.77 254.77 0 0 0 117.46 28.5c134.44 0 244.68-103.65 255.18-235.41a64.49 64.49 0 0 0 60.82 21.26z" opacity=".15"/></g></g></g></svg>