<svg width="24" height="24" viewBox="0 0 24 24" fill="none" xmlns="http://www.w3.org/2000/svg">
<path fill-rule="evenodd" clip-rule="evenodd" d="M7.00002 3.75C5.20507 3.75 3.75 5.20507 3.75 7.00002V17C3.75 18.7949 5.20507 20.25 7.00002 20.25H17C18.7949 20.25 20.25 18.7949 20.25 17V7.00002C20.25 5.20507 18.7949 3.75 17 3.75H7.00002ZM2.25 7.00002C2.25 4.37665 4.37665 2.25 7.00002 2.25H17C19.6234 2.25 21.75 4.37665 21.75 7.00002V17C21.75 19.6234 19.6234 21.75 17 21.75H7.00002C4.37665 21.75 2.25 19.6234 2.25 17V7.00002Z" fill="black"/>
<path fill-rule="evenodd" clip-rule="evenodd" d="M13.05 7.5C13.05 7.08576 13.3858 6.75 13.8 6.75H16.5C16.9143 6.75 17.25 7.08576 17.25 7.5V10.2C17.25 10.6142 16.9143 10.95 16.5 10.95C16.0858 10.95 15.75 10.6142 15.75 10.2V8.25H13.8C13.3858 8.25 13.05 7.91424 13.05 7.5Z" fill="black"/>
<path fill-rule="evenodd" clip-rule="evenodd" d="M7.5 13.0498C7.91424 13.0498 8.25 13.3856 8.25 13.7998V15.7498H10.2C10.6142 15.7498 10.95 16.0856 10.95 16.4998C10.95 16.914 10.6142 17.2498 10.2 17.2498H7.5C7.08576 17.2498 6.75 16.914 6.75 16.4998V13.7998C6.75 13.3856 7.08576 13.0498 7.5 13.0498Z" fill="black"/>
</svg>
