<svg width="24" height="24" viewBox="0 0 24 24" fill="none" xmlns="http://www.w3.org/2000/svg">
<path d="M9.88403 15.2983C9.75369 15.2975 9.62623 15.2598 9.51644 15.1896C9.40665 15.1193 9.31902 15.0194 9.26371 14.9014C9.20841 14.7834 9.1877 14.6521 9.20398 14.5228C9.22026 14.3934 9.27287 14.2714 9.35571 14.1707C9.67799 13.7839 10.0814 13.4727 10.5373 13.2591C10.9933 13.0455 11.4906 12.9348 11.9941 12.9348C12.4976 12.9348 12.9949 13.0455 13.4509 13.2591C13.9068 13.4727 14.3102 13.7839 14.6325 14.1707C14.7382 14.312 14.7858 14.4885 14.7653 14.6637C14.7448 14.839 14.6579 14.9997 14.5225 15.1129C14.3871 15.226 14.2135 15.2829 14.0373 15.2718C13.8612 15.2608 13.6961 15.1826 13.5759 15.0534C13.3824 14.822 13.1404 14.6358 12.8671 14.5081C12.5938 14.3803 12.2958 14.3141 11.9941 14.3141C11.6924 14.3141 11.3944 14.3803 11.1211 14.5081C10.8478 14.6358 10.6059 14.822 10.4124 15.0534C10.3475 15.1303 10.2666 15.1921 10.1753 15.2344C10.084 15.2767 9.98463 15.2985 9.88403 15.2983ZM15.1608 13.0432C15.0602 13.0439 14.9606 13.0223 14.8693 12.9799C14.7779 12.9376 14.6971 12.8756 14.6325 12.7984C14.3102 12.4116 13.9068 12.1003 13.4509 11.8867C12.9949 11.6732 12.4976 11.5624 11.9941 11.5624C11.4906 11.5624 10.9933 11.6732 10.5373 11.8867C10.0814 12.1003 9.67799 12.4116 9.35571 12.7984C9.2355 12.9276 9.07033 13.0057 8.89422 13.0168C8.71811 13.0278 8.54447 12.971 8.40905 12.8578C8.27362 12.7447 8.18673 12.5839 8.16627 12.4087C8.14581 12.2334 8.19334 12.057 8.29906 11.9157C8.75012 11.3735 9.31498 10.9372 9.95357 10.6378C10.5922 10.3383 11.2888 10.1831 11.9941 10.1831C12.6994 10.1831 13.3961 10.3383 14.0347 10.6378C14.6732 10.9372 15.2381 11.3735 15.6892 11.9157C15.772 12.0163 15.8246 12.1384 15.8409 12.2677C15.8572 12.397 15.8365 12.5283 15.7812 12.6463C15.7259 12.7644 15.6382 12.8643 15.5284 12.9345C15.4186 13.0048 15.2912 13.0425 15.1608 13.0432Z" fill="#2F2F2F"/>
<path fill-rule="evenodd" clip-rule="evenodd" d="M11.9974 15.8652C12.1337 15.8652 12.267 15.9057 12.3804 15.9814C12.4938 16.0572 12.5821 16.1648 12.6343 16.2908C12.6865 16.4168 12.7001 16.5554 12.6735 16.6891C12.6469 16.8229 12.5813 16.9457 12.4849 17.0421C12.3884 17.1385 12.2656 17.2042 12.1319 17.2308C11.9981 17.2574 11.8595 17.2437 11.7336 17.1916C11.6076 17.1394 11.4999 17.051 11.4242 16.9376C11.3484 16.8243 11.308 16.691 11.308 16.5546C11.308 16.3718 11.3806 16.1964 11.5099 16.0672C11.6392 15.9379 11.8145 15.8652 11.9974 15.8652Z" fill="#2F2F2F"/>
<path d="M22.042 8.27528L14.9547 2.71499C14.1077 2.04662 13.0602 1.68311 11.9813 1.68311C10.9023 1.68311 9.85485 2.04662 9.00784 2.71499L1.92056 8.27528C1.77728 8.38824 1.68461 8.55339 1.66287 8.73454C1.64113 8.9157 1.69209 9.09808 1.80459 9.24173C1.91853 9.38357 2.08351 9.47515 2.26416 9.49682C2.44481 9.5185 2.62676 9.46856 2.77103 9.3577L9.85832 3.79741C10.4631 3.3203 11.211 3.06082 11.9813 3.06082C12.7516 3.06082 13.4995 3.3203 14.1042 3.79741L21.1915 9.3577C21.3358 9.46856 21.5178 9.5185 21.6984 9.49682C21.8791 9.47515 22.044 9.38357 22.158 9.24173C22.2705 9.09808 22.3214 8.9157 22.2997 8.73454C22.2779 8.55339 22.1853 8.38824 22.042 8.27528Z" fill="#2F2F2F"/>
<path d="M16.8103 22.3083H7.18446C6.27368 22.3083 5.4002 21.9465 4.75618 21.3025C4.11216 20.6585 3.75035 19.785 3.75035 18.8742V11.3102C3.74107 11.2145 3.7519 11.1179 3.78216 11.0266C3.81242 10.9354 3.86144 10.8514 3.92606 10.7803C3.99068 10.7091 4.06948 10.6522 4.15739 10.6132C4.2453 10.5743 4.34038 10.5542 4.43653 10.5542C4.53268 10.5542 4.62776 10.5743 4.71567 10.6132C4.80359 10.6522 4.88238 10.7091 4.947 10.7803C5.01162 10.8514 5.06064 10.9354 5.0909 11.0266C5.12116 11.1179 5.13199 11.2145 5.12271 11.3102V18.8742C5.12271 19.421 5.33993 19.9455 5.72658 20.3321C6.11324 20.7188 6.63765 20.936 7.18446 20.936H16.8103C17.3571 20.936 17.8815 20.7188 18.2682 20.3321C18.6548 19.9455 18.872 19.421 18.872 18.8742V11.3102C18.8628 11.2145 18.8736 11.1179 18.9038 11.0266C18.9341 10.9354 18.9831 10.8514 19.0477 10.7803C19.1124 10.7091 19.1912 10.6522 19.2791 10.6132C19.367 10.5743 19.4621 10.5542 19.5582 10.5542C19.6544 10.5542 19.7494 10.5743 19.8374 10.6132C19.9253 10.6522 20.0041 10.7091 20.0687 10.7803C20.1333 10.8514 20.1823 10.9354 20.2126 11.0266C20.2428 11.1179 20.2537 11.2145 20.2444 11.3102V18.8742C20.2444 19.785 19.8826 20.6585 19.2386 21.3025C18.5945 21.9465 17.7211 22.3083 16.8103 22.3083Z" fill="#2F2F2F"/>
</svg>
