<svg width="24" height="24" viewBox="0 0 24 24" fill="none" xmlns="http://www.w3.org/2000/svg">
<path fill-rule="evenodd" clip-rule="evenodd" d="M14.8783 4.08306C12.9851 3.63898 11.0149 3.63898 9.12171 4.08306C6.62161 4.6695 4.6695 6.6216 4.08306 9.12171C3.63898 11.0149 3.63898 12.9851 4.08306 14.8783C4.6695 17.3784 6.62161 19.3305 9.12171 19.9169C11.0149 20.361 12.9851 20.361 14.8783 19.9169C17.3784 19.3305 19.3305 17.3784 19.9169 14.8783C20.361 12.9851 20.361 11.0149 19.9169 9.12171C19.3305 6.62161 17.3784 4.6695 14.8783 4.08306ZM8.77916 2.6227C10.8976 2.12577 13.1024 2.12577 15.2208 2.6227C18.2756 3.33924 20.6608 5.72441 21.3773 8.77916C21.8742 10.8976 21.8742 13.1024 21.3773 15.2208C20.6608 18.2756 18.2756 20.6608 15.2208 21.3773C13.1024 21.8742 10.8976 21.8742 8.77916 21.3773C5.72442 20.6608 3.33924 18.2756 2.6227 15.2208C2.12577 13.1024 2.12577 10.8976 2.6227 8.77915C3.33924 5.72441 5.72441 3.33924 8.77916 2.6227Z" fill="#2F2F2F"/>
<path fill-rule="evenodd" clip-rule="evenodd" d="M12 10.75C12.4142 10.75 12.75 11.0858 12.75 11.5V15.5C12.75 15.9142 12.4142 16.25 12 16.25C11.5858 16.25 11.25 15.9142 11.25 15.5V11.5C11.25 11.0858 11.5858 10.75 12 10.75Z" fill="#2F2F2F"/>
<path fill-rule="evenodd" clip-rule="evenodd" d="M12 10C12.5523 10 13 9.55228 13 9C13 8.44772 12.5523 8 12 8C11.4477 8 11 8.44772 11 9C11 9.55228 11.4477 10 12 10Z" fill="#2F2F2F"/>
</svg>
