<svg width="24" height="24" viewBox="0 0 24 24" fill="none" xmlns="http://www.w3.org/2000/svg">
<path fill-rule="evenodd" clip-rule="evenodd" d="M7.95832 3.26025H15.75C16.1714 3.26025 16.6107 3.35103 17.0101 3.56167C17.4063 3.75575 17.7372 4.03856 17.9957 4.36171L18.0018 4.36932L21.0381 8.26764C21.4232 8.7765 21.6169 9.39804 21.5893 10.0328C21.5621 10.659 21.3185 11.282 20.8791 11.7512C20.8783 11.752 20.8775 11.7529 20.8767 11.7538L13.061 20.22L13.0503 20.2306C12.9242 20.3567 12.7439 20.5103 12.4985 20.6126C12.3104 20.6909 12.0915 20.7502 11.84 20.7502C11.5886 20.7502 11.3697 20.6909 11.1816 20.6126C10.9361 20.5103 10.7558 20.3567 10.6297 20.2306L10.619 20.2198L2.80579 11.7455C2.37621 11.2744 2.12829 10.6666 2.10073 10.0328C2.07337 9.4035 2.26364 8.76684 2.658 8.25978L2.88321 7.97022H2.91353L5.72431 4.36167C5.99152 4.02767 6.3367 3.74839 6.71464 3.55943L6.72394 3.55478C7.11658 3.36522 7.531 3.27361 7.94662 3.26062L7.95832 3.26025ZM7.98274 4.76025C7.7644 4.76838 7.56394 4.81584 7.38082 4.9034C7.2016 4.99388 7.0297 5.13224 6.89842 5.29536L3.7221 9.3732C3.63444 9.5517 3.59019 9.75774 3.59931 9.96768C3.61173 10.2532 3.72333 10.5249 3.91299 10.7336C3.91341 10.734 3.91382 10.7345 3.91423 10.7349L11.6996 19.179C11.7387 19.217 11.7572 19.2272 11.7592 19.2283C11.7861 19.2394 11.804 19.2446 11.8155 19.2472C11.8263 19.2496 11.8337 19.2502 11.84 19.2502C11.8463 19.2502 11.8537 19.2496 11.8646 19.2472C11.8761 19.2446 11.8943 19.2393 11.9216 19.228C11.9216 19.228 11.9389 19.2194 11.9807 19.1788L19.7834 10.7267C19.9624 10.5361 20.078 10.2604 20.0907 9.96768C20.103 9.684 20.0178 9.40692 19.8448 9.17652L16.8216 5.2953C16.6838 5.12393 16.5204 4.99085 16.344 4.90567L16.3298 4.89881L16.3158 4.89137C16.159 4.80734 15.9636 4.76025 15.75 4.76025H7.98274Z" fill="black"/>
<path fill-rule="evenodd" clip-rule="evenodd" d="M16.4003 10.2695C16.6932 10.5624 16.6932 11.0373 16.4003 11.3302L14.4003 13.3302C14.1074 13.6231 13.6326 13.6231 13.3396 13.3302C13.0468 13.0372 13.0468 12.5624 13.3396 12.2695L15.3397 10.2695C15.6325 9.97657 16.1074 9.97657 16.4003 10.2695Z" fill="black"/>
</svg>
