<svg fill="none" height="512" viewBox="0 0 24 24" width="512" xmlns="http://www.w3.org/2000/svg"><path clip-rule="evenodd" d="m17.4635 2.37373c-1.1421-.12374-2.5817-.12374-4.4183-.12373h-2.0904c-1.83659-.00001-3.27619-.00001-4.41832.12373-1.16554.12628-2.10992.38859-2.91624.97442-.48815.35466-.91743.78394-1.27209 1.27209-.16168.22253-.30014.45757-.41828.70773-.36179.76607-.52316 1.6544-.60181 2.71371-.07806 1.05155-.07806 2.34052-.07806 3.92992v.0736c-.00001 1.8366-.00001 3.2762.12373 4.4183.12628 1.1656.38859 2.1099.97442 2.9163.35466.4881.78394.9174 1.27209 1.272.80632.5859 1.7507.8482 2.91624.9745 1.14211.1237 2.58169.1237 4.41822.1237h2.0906c1.8365 0 3.2761 0 4.4182-.1237 1.1656-.1263 2.1099-.3886 2.9163-.9745.4881-.3546.9174-.7839 1.272-1.272.5859-.8064.8482-1.7507.9745-2.9163.1237-1.1421.1237-2.5817.1237-4.4182v-.0744c0-1.6002 0-2.89604-.0798-3.95186-.0803-1.06398-.2454-1.95525-.6156-2.72358-.1147-.23812-.2481-.46242-.4028-.67522-.3546-.48815-.7839-.91743-1.272-1.27209-.8064-.58583-1.7507-.84814-2.9163-.97442zm-12.96159 2.18795c.50801-.36909 1.15822-.58423 2.19613-.69668 1.05195-.11397 2.41039-.115 4.30196-.115h2c1.8916 0 3.25.00103 4.302.115 1.0379.11245 1.6881.32759 2.1961.69668.3606.26201.6778.57913.9398.93971l-1.8972 1.89722c-1.6816 1.68165-2.8906 2.88839-3.9335 3.68409-1.0255.7824-1.8016 1.0962-2.6072 1.0962s-1.5817-.3138-2.60725-1.0962c-1.04281-.7957-2.25183-2.00244-3.93349-3.6841l-1.89721-1.89721c.26207-.36058.57923-.6777.93986-.93971zm16.53539 2.46169c.0604.32024.1052.68554.1372 1.10867.075.99289.0755 2.23276.0755 3.86796 0 1.8916-.001 3.25-.115 4.302-.1125 1.0379-.3276 1.6881-.6967 2.1961-.2621.3608-.5794.6781-.9402.9402-.508.3691-1.1582.5842-2.1961.6967-1.052.114-2.4104.115-4.302.115h-2c-1.89157 0-3.25001-.001-4.30196-.115-1.03791-.1125-1.68812-.3276-2.19613-.6967-.3608-.2621-.67809-.5794-.94023-.9402-.36909-.508-.58423-1.1582-.69668-2.1961-.11397-1.052-.115-2.4104-.115-4.302 0-1.6236.00047-2.85756.07395-3.84726.03206-.4319.07736-.80389.13876-1.12937l1.47646 1.47646c1.63227 1.63227 2.91145 2.91147 4.04371 3.77537 1.15893.8842 2.25162 1.4037 3.51712 1.4037s2.3582-.5195 3.5171-1.4037c1.1323-.8639 2.4114-2.1431 4.0437-3.77534z" fill="rgb(0,0,0)" fill-rule="evenodd"/></svg>