<svg width="24" height="24" viewBox="0 0 24 24" fill="none" xmlns="http://www.w3.org/2000/svg">
<path d="M4.40123 2.21484C3.11158 2.21484 2.0625 3.28311 2.0625 4.5962C2.0625 5.90928 3.11114 6.97748 4.40123 6.97748C5.69132 6.97748 6.73996 5.90928 6.73996 4.5962C6.73996 3.28311 5.69081 2.21484 4.40123 2.21484Z" fill="#2F2F2F"/>
<path d="M11.9696 2.21484C10.68 2.21484 9.63086 3.28311 9.63086 4.5962C9.63086 5.90928 10.68 6.97748 11.9696 6.97748C13.2592 6.97748 14.3085 5.90928 14.3085 4.5962C14.3085 3.28311 13.2597 2.21484 11.9696 2.21484Z" fill="#2F2F2F"/>
<path d="M19.661 6.97755C20.9504 6.97755 21.9997 5.90935 21.9997 4.59627C21.9997 3.28319 20.9512 2.21484 19.661 2.21484C18.3708 2.21484 17.3223 3.28311 17.3223 4.5962C17.3223 5.90928 18.3716 6.97755 19.661 6.97755Z" fill="#2F2F2F"/>
<path d="M4.33916 14.6081C5.62875 14.6081 6.67811 13.5401 6.67811 12.2268C6.67811 10.9134 5.62875 9.84521 4.33916 9.84521C3.04958 9.84521 2 10.9135 2 12.2268C2 13.5401 3.04958 14.6081 4.33916 14.6081Z" fill="#2F2F2F"/>
<path d="M11.909 14.6081C13.1984 14.6081 14.2478 13.5401 14.2478 12.2268C14.2478 10.9134 13.1993 9.84521 11.909 9.84521C10.619 9.84521 9.57031 10.9134 9.57031 12.2268C9.57031 13.5401 10.6195 14.6081 11.909 14.6081Z" fill="#2F2F2F"/>
<path d="M19.6013 14.6081C20.8912 14.6081 21.94 13.5401 21.94 12.2268C21.94 10.9134 20.8912 9.84521 19.6013 9.84521C18.3114 9.84521 17.2617 10.9134 17.2617 12.2268C17.2617 13.5401 18.3111 14.6081 19.6013 14.6081Z" fill="#2F2F2F"/>
<path d="M4.3919 17.4521C3.10232 17.4521 2.05273 18.5201 2.05273 19.8335C2.05273 21.1464 3.10232 22.2148 4.3919 22.2148C5.68148 22.2148 6.73056 21.1469 6.73056 19.8335C6.73056 18.5201 5.68148 17.4521 4.3919 17.4521Z" fill="#2F2F2F"/>
<path d="M11.9623 17.4521C10.6727 17.4521 9.62317 18.5201 9.62317 19.8335C9.62317 21.1464 10.6723 22.2148 11.9623 22.2148C13.2517 22.2148 14.301 21.1469 14.301 19.8335C14.301 18.5201 13.2517 17.4521 11.9623 17.4521Z" fill="#2F2F2F"/>
<path d="M19.6551 17.4521C18.3658 17.4521 17.3164 18.5201 17.3164 19.8335C17.3164 21.1464 18.3658 22.2148 19.6551 22.2148C20.945 22.2148 21.9939 21.1469 21.9939 19.8335C21.9939 18.5201 20.9445 17.4521 19.6551 17.4521Z" fill="#2F2F2F"/>
</svg>
