<svg width="40" height="40" viewBox="0 0 40 40" fill="none" xmlns="http://www.w3.org/2000/svg">
<g clip-path="url(#clip0_1066_18770)">
<path fill-rule="evenodd" clip-rule="evenodd" d="M20 39.9564C30.9941 39.9564 39.9609 30.999 39.9609 20.005C39.9609 9.0109 30.9941 0.0439453 20 0.0439453C9.00594 0.0439453 0.0390625 9.01082 0.0390625 20.0049C0.0390625 30.9989 9.00594 39.9564 20 39.9564Z" fill="url(#paint0_linear_1066_18770)"/>
<g clip-path="url(#clip1_1066_18770)">
<path fill-rule="evenodd" clip-rule="evenodd" d="M16.2371 7.52344H23.7617L24.6244 8.38613C26.5763 10.3381 28.5268 12.2886 30.4773 14.2391V25.759C30.4773 29.4523 27.455 32.4747 23.7617 32.4747H16.2371C12.5438 32.4747 9.52148 29.4523 9.52148 25.759V14.2405C9.52153 10.5458 12.5438 7.52344 16.2371 7.52344Z" fill="#D50040"/>
<path fill-rule="evenodd" clip-rule="evenodd" d="M23.7617 7.52344L30.4628 14.2245H27.1123C25.2692 14.2245 23.7617 12.717 23.7617 10.874V7.52344Z" fill="#E3547F"/>
<path d="M15.1353 18.4272H12.9989C12.6451 18.4272 12.3584 18.714 12.3584 19.0677V19.5542V21.6282V23.8967C12.3584 24.2505 12.6452 24.5372 12.9989 24.5372C13.3526 24.5372 13.6394 24.2504 13.6394 23.8967V22.2687H15.1353C16.194 22.2687 17.0553 21.4074 17.0553 20.3487C17.0553 19.2892 16.194 18.4272 15.1353 18.4272ZM15.1353 20.9877H13.6394V19.7083H15.1353C15.4876 19.7083 15.7743 19.9956 15.7743 20.3487C15.7743 20.7011 15.4876 20.9877 15.1353 20.9877ZM20.3187 18.4272H18.5991C18.2454 18.4272 17.9586 18.714 17.9586 19.0677V23.8967C17.9586 24.2505 18.2454 24.5372 18.5991 24.5372H20.3187C21.62 24.5372 22.6787 23.4778 22.6787 22.1757V20.7873C22.6788 19.486 21.62 18.4272 20.3187 18.4272ZM21.3978 22.1757C21.3978 22.7715 20.9137 23.2563 20.3187 23.2563H19.2396V19.7083H20.3187C20.9137 19.7083 21.3978 20.1923 21.3978 20.7874V22.1757H21.3978ZM27.6719 21.4423C27.6719 21.7961 27.3851 22.0828 27.0314 22.0828H25.0649V23.8968C25.0649 24.2505 24.7782 24.5373 24.4245 24.5373C24.0707 24.5373 23.784 24.2505 23.784 23.8968V19.0678C23.784 18.7141 24.0708 18.4273 24.4245 18.4273H27.0314C27.3852 18.4273 27.6719 18.7141 27.6719 19.0678C27.6719 19.4215 27.3851 19.7083 27.0314 19.7083H25.0649V20.8019H27.0314C27.3852 20.8019 27.6719 21.0886 27.6719 21.4423Z" fill="url(#paint1_linear_1066_18770)"/>
</g>
</g>
<defs>
<linearGradient id="paint0_linear_1066_18770" x1="20" y1="0.0439453" x2="20" y2="39.9564" gradientUnits="userSpaceOnUse">
<stop stop-color="#D50040" stop-opacity="0.24"/>
<stop offset="1" stop-color="#D50040" stop-opacity="0.05"/>
</linearGradient>
<linearGradient id="paint1_linear_1066_18770" x1="20.0151" y1="18.4272" x2="20.0151" y2="24.5373" gradientUnits="userSpaceOnUse">
<stop stop-color="#FFC8D1"/>
<stop offset="1" stop-color="#FFECF0"/>
</linearGradient>
<clipPath id="clip0_1066_18770">
<rect width="40" height="40" fill="white"/>
</clipPath>
<clipPath id="clip1_1066_18770">
<rect width="25" height="25" fill="white" transform="translate(7.5 7.5)"/>
</clipPath>
</defs>
</svg>
