<svg width="24" height="24" viewBox="0 0 24 24" fill="none" xmlns="http://www.w3.org/2000/svg">
<path fill-rule="evenodd" clip-rule="evenodd" d="M6.15997 3.75C5.73394 3.75 5.28449 3.92417 4.81565 4.38493L4.80935 4.39112L4.8029 4.39716C4.40024 4.77465 4.12508 5.183 3.94763 5.62522C3.77326 6.07488 3.67993 6.57126 3.67993 7.09002C3.67993 7.89966 3.87118 8.77968 4.27034 9.73698C4.68543 10.6983 5.24599 11.6697 5.95799 12.661C6.67273 13.646 7.48627 14.5957 8.39029 15.5097C9.30205 16.4115 10.2525 17.2163 11.2618 17.954C12.2505 18.6739 13.2307 19.234 14.2122 19.6493C15.1802 20.0588 16.0604 20.25 16.86 20.25C17.4017 20.25 17.89 20.1557 18.3261 19.97L18.3337 19.9667L18.3414 19.9636C18.7739 19.7906 19.1709 19.5121 19.5419 19.0989C19.7442 18.8732 19.8991 18.6246 20.0391 18.3446C20.1157 18.1914 20.1612 18.0298 20.1799 17.8705V17.7C20.1799 17.5646 20.1557 17.4413 20.0974 17.2886C20.0631 17.2151 19.9974 17.1302 19.8616 17.0357L19.8565 17.0321L16.8822 14.9261C16.6908 14.7959 16.5321 14.7086 16.4014 14.6563C16.2643 14.6015 16.1803 14.59 16.1299 14.59C16.0518 14.59 15.9871 14.6044 15.8847 14.6677L15.8496 14.6894L15.8124 14.7071C15.7167 14.7527 15.5781 14.8525 15.3703 15.0603L15.3625 15.0681L14.6755 15.7351C14.4316 15.9766 14.121 16.1 13.7799 16.1C13.6372 16.1 13.4673 16.0846 13.2832 16.0112C13.2215 15.9889 13.1717 15.9655 13.1436 15.9521L13.109 15.9355C13.1082 15.9352 13.1076 15.9349 13.107 15.9346L13.0733 15.9211L13.037 15.9017C12.6736 15.7079 12.2385 15.4021 11.7439 14.9812C11.2557 14.5657 10.7721 14.1125 10.2751 13.6258L10.2695 13.6203L10.264 13.6147C9.78265 13.1231 9.34285 12.6424 8.92477 12.163L8.91871 12.1561C8.50981 11.6756 8.18719 11.246 7.98817 10.873L7.96885 10.8367L7.95355 10.7986C7.94233 10.7705 7.93003 10.7374 7.92181 10.7152C7.91971 10.7097 7.91791 10.7048 7.91647 10.7009C7.90675 10.675 7.89889 10.6549 7.89055 10.6354L7.88377 10.6195L7.87765 10.6033C7.79947 10.3948 7.79977 10.2211 7.79989 10.1396C7.79989 10.1362 7.79995 10.133 7.79995 10.13C7.79995 9.831 7.89301 9.50892 8.15503 9.24426L8.83969 8.5398C9.02719 8.34312 9.15121 8.18364 9.22879 8.04792L9.23533 8.03646L9.24223 8.02524C9.30379 7.92582 9.31993 7.85142 9.31993 7.78002C9.31993 7.74618 9.30703 7.65954 9.24871 7.52106L9.24349 7.50858C9.19465 7.38648 9.11221 7.24122 8.96635 7.03134L6.87421 4.08832C6.80023 3.98197 6.69931 3.90019 6.56635 3.8366C6.44815 3.78007 6.31051 3.75 6.15997 3.75ZM21.5664 16.95H21.69V17.7C21.69 18.1277 21.5966 18.5837 21.3808 19.0154C21.2008 19.3752 20.9759 19.7465 20.6584 20.1007C20.1514 20.6653 19.5705 21.0861 18.9062 21.3533C18.2644 21.6253 17.5753 21.75 16.86 21.75C15.8195 21.75 14.7397 21.5012 13.6278 21.0307C12.5293 20.566 11.4497 19.9463 10.3785 19.1663L10.3774 19.1656C9.30811 18.3841 8.29957 17.53 7.33243 16.5731L7.32673 16.5675C6.37231 15.6028 5.50717 14.5939 4.74288 13.5404L4.74084 13.5376C3.97435 12.4708 3.35581 11.404 2.89127 10.3271L2.88777 10.319C2.42809 9.21786 2.17993 8.13918 2.17993 7.09002C2.17993 6.39 2.30615 5.70761 2.55094 5.07817L2.55355 5.07145C2.81514 4.41748 3.21756 3.82895 3.7706 3.30886C4.46037 2.63348 5.26868 2.25 6.15997 2.25C6.50935 2.25 6.87175 2.31994 7.21357 2.4834C7.53955 2.6393 7.85749 2.8765 8.10319 3.22825L10.1956 6.17166C10.3672 6.41826 10.523 6.67032 10.6338 6.94512C10.7343 7.18548 10.8199 7.47642 10.8199 7.78002C10.8199 8.14416 10.7186 8.48592 10.5247 8.80332C10.3633 9.08268 10.1506 9.33882 9.92245 9.57786L9.91783 9.58272L9.32707 10.1905C9.32905 10.1959 9.33079 10.2006 9.33235 10.2048C9.45853 10.4295 9.68995 10.7476 10.0581 11.1805C10.4575 11.6381 10.875 12.0944 11.3304 12.5597C11.8114 13.0307 12.2659 13.4558 12.7161 13.8388C13.1454 14.2042 13.4812 14.4349 13.7168 14.5641C13.7194 14.5653 13.7221 14.5664 13.7246 14.5676L14.3137 13.9956C14.5549 13.7548 14.823 13.5253 15.1296 13.3714C15.4371 13.1882 15.7619 13.09 16.1299 13.09C16.4196 13.09 16.6956 13.1585 16.9585 13.2637C17.2266 13.3709 17.4862 13.5224 17.7324 13.6903L17.7434 13.6978L20.7183 15.8044C20.7192 15.805 20.7201 15.8056 20.721 15.8062C21.0375 16.027 21.3112 16.3178 21.4777 16.7009L21.4833 16.7137L21.4884 16.7267C21.5172 16.8002 21.5433 16.8745 21.5664 16.95Z" fill="#2F2F2F"/>
</svg>
