<svg width="24" height="24" viewBox="0 0 24 24" fill="none" xmlns="http://www.w3.org/2000/svg">
<path d="M17.142 18.125C18.7667 15.8343 19.6975 13.1243 19.8232 10.3188C19.8232 5.5 16.5232 2 11.9795 2C7.43574 2 4.13574 5.5 4.13574 10.3188C4.13574 12.4563 5.16074 15.3188 6.81699 17.8563C7.4833 18.8964 8.28631 19.8424 9.20449 20.6688H4.64824V22H19.3107V20.6688H14.8795C15.7451 19.9269 16.5062 19.0712 17.142 18.125ZM7.93574 17.125C6.44199 14.85 5.47324 12.1812 5.47324 10.325C5.47324 6.26875 8.22949 3.33125 11.9795 3.33125C15.7295 3.33125 18.4857 6.26875 18.4857 10.3188C18.3645 12.8565 17.5162 15.3058 16.042 17.375C15.424 18.3202 14.6629 19.1637 13.7857 19.875C13.2776 20.3137 12.6472 20.5864 11.9795 20.6562C11.3149 20.5561 10.6985 20.2501 10.217 19.7812C9.33287 19.0101 8.56456 18.1154 7.93574 17.125Z" fill="#2F2F2F"/>
<path d="M11.9794 11.9546C12.556 11.9546 13.1197 11.7837 13.5992 11.4633C14.0787 11.1429 14.4523 10.6876 14.673 10.1548C14.8937 9.62208 14.9514 9.03586 14.8389 8.4703C14.7264 7.90473 14.4488 7.38523 14.041 6.97748C13.6333 6.56974 13.1138 6.29206 12.5482 6.17956C11.9826 6.06706 11.3964 6.1248 10.8637 6.34547C10.3309 6.56614 9.87557 6.93984 9.5552 7.4193C9.23484 7.89876 9.06384 8.46245 9.06384 9.03909C9.06555 9.81182 9.37327 10.5524 9.91968 11.0988C10.4661 11.6452 11.2067 11.9529 11.9794 11.9546ZM11.9794 7.47465C12.2837 7.47465 12.5812 7.56488 12.8342 7.73395C13.0872 7.90301 13.2844 8.1433 13.4009 8.42444C13.5173 8.70558 13.5478 9.01494 13.4884 9.3134C13.4291 9.61185 13.2825 9.886 13.0673 10.1012C12.8522 10.3164 12.578 10.4629 12.2796 10.5223C11.9811 10.5816 11.6717 10.5512 11.3906 10.4347C11.1095 10.3182 10.8692 10.121 10.7001 9.86803C10.531 9.61501 10.4408 9.31754 10.4408 9.01323C10.4408 8.60518 10.6029 8.21383 10.8915 7.92529C11.18 7.63675 11.5713 7.47465 11.9794 7.47465Z" fill="#2F2F2F"/>
</svg>
