<svg width="24" height="24" viewBox="0 0 24 24" fill="none" xmlns="http://www.w3.org/2000/svg">
<path d="M17.3033 18.3164C18.9788 15.9541 19.9387 13.1594 20.0684 10.2662C20.0684 5.29688 16.6652 1.6875 11.9795 1.6875C7.29375 1.6875 3.89062 5.29688 3.89062 10.2662C3.89062 12.4705 4.94766 15.4225 6.65566 18.0393C7.34279 19.1119 8.1709 20.0875 9.11777 20.9396H4.41914V22.3125H19.5398V20.9396H14.9701C15.8628 20.1746 16.6476 19.2922 17.3033 18.3164ZM7.80937 17.2852C6.26894 14.9391 5.26992 12.1869 5.26992 10.2727C5.26992 6.08965 8.1123 3.06035 11.9795 3.06035C15.8467 3.06035 18.6891 6.08965 18.6891 10.2662C18.564 12.8832 17.6893 15.4092 16.1689 17.543C15.5317 18.5178 14.7467 19.3875 13.8422 20.1211C13.3181 20.5735 12.6681 20.8547 11.9795 20.9268C11.2942 20.8235 10.6585 20.5079 10.1619 20.0244C9.25017 19.2291 8.45784 18.3066 7.80937 17.2852Z" fill="#2F2F2F"/>
<path d="M11.9795 11.9533C12.5742 11.9533 13.1555 11.7769 13.6499 11.4466C14.1444 11.1162 14.5297 10.6466 14.7573 10.0972C14.9849 9.54781 15.0444 8.94327 14.9284 8.36004C14.8124 7.7768 14.526 7.24107 14.1055 6.82058C13.6851 6.40009 13.1493 6.11373 12.5661 5.99771C11.9828 5.8817 11.3783 5.94124 10.8289 6.16881C10.2795 6.39638 9.80993 6.78175 9.47955 7.27619C9.14918 7.77064 8.97284 8.35195 8.97284 8.94661C8.9746 9.74349 9.29194 10.5072 9.85542 11.0707C10.4189 11.6342 11.1826 11.9515 11.9795 11.9533ZM11.9795 7.33328C12.2933 7.33328 12.6001 7.42633 12.861 7.60068C13.1219 7.77502 13.3253 8.02283 13.4454 8.31275C13.5655 8.60268 13.5969 8.9217 13.5357 9.22949C13.4745 9.53727 13.3233 9.81999 13.1014 10.0419C12.8796 10.2638 12.5968 10.4149 12.289 10.4761C11.9813 10.5373 11.6622 10.5059 11.3723 10.3858C11.0824 10.2657 10.8346 10.0624 10.6602 9.80145C10.4859 9.54052 10.3928 9.23376 10.3928 8.91994C10.3928 8.49913 10.56 8.09556 10.8576 7.798C11.1551 7.50044 11.5587 7.33328 11.9795 7.33328Z" fill="#2F2F2F"/>
</svg>
