<svg width="24" height="24" viewBox="0 0 24 24" fill="none" xmlns="http://www.w3.org/2000/svg">
<path d="M7.58451 3.49204C7.34309 3.63181 7.27955 3.94947 7.41932 4.1909C7.5718 4.41961 7.87676 4.49585 8.11818 4.35608C8.81704 3.92406 9.57943 3.58099 10.3799 3.35227C11.1677 3.13626 11.981 3.00919 12.845 3.00919C15.3228 3.00919 17.5718 4.02571 19.1982 5.63944C20.8247 7.26586 21.8285 9.51491 21.8285 11.9927C21.8285 14.4831 20.8247 16.7195 19.1982 18.3459C17.5718 19.9723 15.3228 20.9762 12.845 20.9762C10.3545 20.9762 8.11818 19.9723 6.49175 18.3459C4.97968 16.8338 4.00128 14.7881 3.87422 12.5009H3.97587C4.83991 12.5009 5.55147 11.8021 5.55147 10.938V8.62546C5.55147 8.34592 5.32275 8.1172 5.04321 8.1172H4.89073V6.60513C4.89073 6.32559 4.66202 6.09687 4.38248 6.09687C4.10293 6.09687 3.87422 6.32559 3.87422 6.60513V8.1172H2.81958V6.60513C2.81958 6.32559 2.59086 6.09687 2.31132 6.09687C2.03178 6.09687 1.80306 6.32559 1.80306 6.60513V8.1172H1.66329C1.38375 8.1172 1.15503 8.34592 1.15503 8.62546V10.938C1.15503 11.8021 1.86659 12.5009 2.73063 12.5009H2.8577C2.98476 15.0676 4.07752 17.3675 5.76748 19.0702C7.58451 20.8745 10.075 21.9927 12.845 21.9927C15.6023 21.9927 18.1055 20.8745 19.9098 19.0702C21.7268 17.2532 22.845 14.7627 22.845 11.9927C22.845 9.23537 21.7268 6.73219 19.9098 4.92787C18.1055 3.11085 15.6023 1.99268 12.845 1.99268C11.892 1.99268 10.9771 2.13245 10.1131 2.37387C9.21094 2.628 8.3596 3.00919 7.58451 3.49204ZM12.0064 7.45646C13.4803 8.29509 15.9835 9.55303 17.2541 10.4806C17.5083 10.6331 17.7116 10.8491 17.8513 11.1032C18.0038 11.3701 18.0928 11.675 18.0928 11.9927C18.0928 12.3103 18.0038 12.628 17.8513 12.8948C17.7116 13.149 17.432 13.4285 17.1652 13.5683L12.0064 16.5416C11.7776 16.6814 11.5362 16.7576 11.2821 16.7703C10.6468 16.8338 10.0496 16.567 9.66837 16.0333C9.46507 15.7411 9.3253 15.3599 9.3253 15.0041V8.99395C9.3253 8.98124 9.3253 8.95583 9.3253 8.94312C9.338 8.62546 9.42695 8.34592 9.56672 8.10449C9.7319 7.82495 9.96062 7.59623 10.2275 7.44376C10.4943 7.29128 10.812 7.20233 11.1296 7.21504C11.4219 7.21504 11.7268 7.29128 12.0064 7.45646ZM11.4981 8.33321C11.371 8.25697 11.244 8.21885 11.1169 8.21885C10.9771 8.21885 10.8501 8.25697 10.7357 8.3205C10.6087 8.39674 10.5197 8.48569 10.4435 8.61275C10.3799 8.72711 10.3418 8.85418 10.3418 8.99395V15.0041C10.3418 15.1439 10.4053 15.3091 10.4943 15.4361C10.6595 15.6776 10.9136 15.7919 11.1931 15.7665C11.2948 15.7538 11.3965 15.7284 11.4981 15.6648L16.6696 12.6915C16.7967 12.5899 16.8857 12.5518 16.9746 12.3866C17.0381 12.2722 17.0763 12.1324 17.0763 11.9927C17.0763 11.8656 17.0381 11.7258 16.9746 11.6115C16.9111 11.5098 16.8348 11.4082 16.7205 11.3446C15.094 10.5568 13.1118 9.26078 11.4981 8.33321ZM4.53495 9.13372H4.38248H2.31132H2.17155V10.938C2.17155 11.243 2.42568 11.4844 2.73063 11.4844H3.35325H3.97587C4.28082 11.4844 4.53495 11.243 4.53495 10.938V9.13372Z" fill="black"/>
</svg>
