<svg width="24" height="24" viewBox="0 0 24 24" fill="none" xmlns="http://www.w3.org/2000/svg">
<path fill-rule="evenodd" clip-rule="evenodd" d="M13.6511 3.84196C11.926 3.43729 10.1306 3.43729 8.40542 3.84196C6.1411 4.3731 4.3731 6.1411 3.84196 8.40542C3.43729 10.1306 3.43729 11.926 3.84196 13.6511C4.3731 15.9154 6.1411 17.6834 8.40542 18.2145C10.1306 18.6192 11.926 18.6192 13.6511 18.2145C15.9154 17.6834 17.6834 15.9154 18.2145 13.6511C18.6192 11.926 18.6192 10.1306 18.2145 8.40542C17.6834 6.1411 15.9154 4.3731 13.6511 3.84196ZM8.05408 2.34415C10.0103 1.88528 12.0462 1.88528 14.0024 2.34415C16.8356 3.00873 19.0477 5.2209 19.7123 8.05409C20.1712 10.0103 20.1712 12.0462 19.7123 14.0024C19.4409 15.1593 18.9115 16.2126 18.1872 17.0993L21.7747 20.6869C22.0751 20.9873 22.0751 21.4743 21.7747 21.7747C21.4743 22.0751 20.9873 22.0751 20.6869 21.7747L17.0993 18.1872C16.2126 18.9115 15.1593 19.4409 14.0024 19.7123C12.0462 20.1712 10.0103 20.1712 8.05409 19.7123C5.22091 19.0477 3.00873 16.8356 2.34415 14.0024C1.88528 12.0462 1.88528 10.0103 2.34415 8.05408C3.00873 5.2209 5.2209 3.00873 8.05408 2.34415Z" fill="#2F2F2F"/>
</svg>
