<svg width="24" height="24" viewBox="0 0 24 24" fill="none" xmlns="http://www.w3.org/2000/svg">
<path fill-rule="evenodd" clip-rule="evenodd" d="M12.4835 3.5C11.6355 3.5 6.28541 5.384 5.66841 5.899C5.48641 6.082 5.47941 6.4 5.51841 8.529C5.53641 9.555 5.56141 10.949 5.56141 12.879C5.56141 18.08 11.2835 20.389 12.4825 20.814C13.6805 20.387 19.4055 18.065 19.4055 12.879C19.4055 10.947 19.4305 9.552 19.4495 8.526C19.4875 6.399 19.4805 6.081 19.2875 5.889C18.6825 5.384 13.3315 3.5 12.4835 3.5ZM12.4835 22.356C12.4105 22.356 12.3375 22.346 12.2665 22.324C11.9315 22.223 4.06141 19.761 4.06141 12.879C4.06141 10.962 4.03641 9.575 4.01841 8.557C3.97241 6.014 3.96241 5.484 4.61941 4.828C5.40441 4.041 11.3495 2 12.4835 2C13.6165 2 19.5615 4.041 20.3485 4.828C21.0045 5.484 20.9945 6.014 20.9485 8.554C20.9305 9.572 20.9055 10.959 20.9055 12.879C20.9055 19.761 13.0355 22.223 12.7005 22.324C12.6295 22.346 12.5565 22.356 12.4835 22.356Z" fill="black"/>
<path fill-rule="evenodd" clip-rule="evenodd" d="M11.777 14.5194C11.578 14.5194 11.387 14.4404 11.246 14.2994L9.35401 12.4054C9.06201 12.1124 9.06201 11.6364 9.35501 11.3444C9.64701 11.0514 10.123 11.0514 10.416 11.3444L11.777 12.7074L15.145 9.33938C15.438 9.04638 15.912 9.04638 16.205 9.33938C16.498 9.63238 16.498 10.1074 16.205 10.4004L12.307 14.2994C12.167 14.4404 11.976 14.5194 11.777 14.5194Z" fill="black"/>
</svg>
