<svg width="32" height="32" viewBox="0 0 32 32" fill="none" xmlns="http://www.w3.org/2000/svg">
<g clip-path="url(#clip0_1291_3968)">
<path d="M25.3019 14.1036C23.4002 14.1036 21.6378 13.4952 20.1993 12.4627V19.9162C20.1993 23.6385 17.171 26.6668 13.4486 26.6668C12.0101 26.6668 10.6764 26.2131 9.57988 25.4434C7.83901 24.2212 6.69797 22.2001 6.69797 19.9162C6.69797 16.1938 9.72626 13.1654 13.4486 13.1654C13.7576 13.1654 14.0603 13.1908 14.3583 13.2313V14.1001V16.9756C14.0704 16.8854 13.766 16.833 13.4486 16.833C11.7487 16.833 10.3656 18.2162 10.3656 19.9162C10.3656 21.1 11.0372 22.1285 12.0185 22.645C12.4464 22.8702 12.9325 22.9992 13.4486 22.9992C15.1094 22.9992 16.4641 21.6782 16.5258 20.0322L16.5317 5.3335H20.1993C20.1993 5.65145 20.23 5.96216 20.2859 6.26412C20.5446 7.66158 21.374 8.86045 22.5232 9.60966C23.3234 10.1315 24.2775 10.436 25.3019 10.436L25.3019 14.1036Z" fill="#2F2F2F"/>
</g>
<defs>
<clipPath id="clip0_1291_3968">
<rect width="21.3333" height="21.3333" fill="white" transform="translate(5.33318 5.3335)"/>
</clipPath>
</defs>
</svg>
