<svg width="32" height="32" viewBox="0 0 32 32" fill="none" xmlns="http://www.w3.org/2000/svg">
<g clip-path="url(#clip0_1291_3958)">
<path d="M16 7.25541C18.8481 7.25541 19.1855 7.26629 20.3103 7.31758C21.4725 7.37062 22.6704 7.63587 23.5173 8.4827C24.3723 9.33762 24.6293 10.5238 24.6825 11.6899C24.7339 12.8147 24.7447 13.152 24.7447 16.0001C24.7447 18.8482 24.7338 19.1856 24.6825 20.3104C24.6298 21.4667 24.3593 22.6755 23.5174 23.5174C22.662 24.3728 21.4774 24.6294 20.3102 24.6827C19.1856 24.734 18.8483 24.7449 16 24.7449C13.1516 24.7449 12.8143 24.734 11.6897 24.6827C10.5423 24.6303 9.31763 24.3525 8.48267 23.5176C7.63225 22.6672 7.37029 21.47 7.31738 20.3104C7.26604 19.1856 7.25521 18.8482 7.25521 16.0001C7.25521 13.152 7.26609 12.8146 7.31738 11.6898C7.36996 10.5377 7.64392 9.32145 8.4825 8.48283C9.33579 7.6295 10.5258 7.37066 11.6897 7.31754C12.8145 7.26629 13.1519 7.25541 16 7.25541ZM16 5.3335C13.1031 5.3335 12.7399 5.34575 11.6021 5.39766C9.95263 5.47295 8.31592 5.93154 7.12363 7.12375C5.92688 8.3205 5.47271 9.95404 5.3975 11.6023C5.34559 12.74 5.33334 13.1032 5.33334 16.0002C5.33334 18.8971 5.34559 19.2603 5.3975 20.398C5.47267 22.0449 5.93375 23.6867 7.12359 24.8765C8.31888 26.0718 9.95575 26.5275 11.6021 26.6026C12.7399 26.6546 13.1031 26.6668 16 26.6668C18.8969 26.6668 19.2601 26.6546 20.3979 26.6027C22.0456 26.5275 23.6854 26.0675 24.8764 24.8766C26.0736 23.6794 26.5273 22.0467 26.6025 20.398C26.6544 19.2603 26.6667 18.8971 26.6667 16.0002C26.6667 13.1033 26.6544 12.74 26.6025 11.6023C26.5273 9.9537 26.0678 8.31525 24.8764 7.12383C23.6828 5.9302 22.0413 5.47266 20.3978 5.39766C19.2601 5.34575 18.8969 5.3335 16 5.3335Z" fill="#2F2F2F"/>
<path d="M16.0003 10.522C12.9751 10.522 10.5228 12.9743 10.5228 15.9995C10.5228 19.0246 12.9751 21.4769 16.0003 21.4769C19.0254 21.4769 21.4777 19.0246 21.4777 15.9995C21.4777 12.9743 19.0254 10.522 16.0003 10.522ZM16.0003 19.555C14.0366 19.555 12.4447 17.9631 12.4447 15.9995C12.4447 14.0358 14.0366 12.4439 16.0003 12.4439C17.9639 12.4439 19.5558 14.0358 19.5558 15.9995C19.5558 17.9631 17.9639 19.555 16.0003 19.555Z" fill="#2F2F2F"/>
<path d="M21.6942 11.5859C22.4011 11.5859 22.9742 11.0128 22.9742 10.3059C22.9742 9.59895 22.4011 9.02588 21.6942 9.02588C20.9873 9.02588 20.4142 9.59895 20.4142 10.3059C20.4142 11.0128 20.9873 11.5859 21.6942 11.5859Z" fill="#2F2F2F"/>
</g>
<defs>
<clipPath id="clip0_1291_3958">
<rect width="21.3333" height="21.3333" fill="white" transform="translate(5.33334 5.3335)"/>
</clipPath>
</defs>
</svg>
