<svg width="32" height="32" viewBox="0 0 32 32" fill="none" xmlns="http://www.w3.org/2000/svg">
<g clip-path="url(#clip0_1291_3964)">
<path d="M26.2209 10.8315C25.9755 9.90778 25.2525 9.18028 24.335 8.9332C22.6713 8.48486 16 8.48486 16 8.48486C16 8.48486 9.32879 8.48486 7.66504 8.9332C6.74754 9.18028 6.02462 9.90778 5.77921 10.8315C5.33337 12.5061 5.33337 15.9999 5.33337 15.9999C5.33337 15.9999 5.33337 19.4936 5.77921 21.1682C6.02462 22.0919 6.74754 22.8194 7.66504 23.0665C9.32879 23.5149 16 23.5149 16 23.5149C16 23.5149 22.6713 23.5149 24.335 23.0665C25.2525 22.8194 25.9755 22.0919 26.2209 21.1682C26.6667 19.4936 26.6667 15.9999 26.6667 15.9999C26.6667 15.9999 26.6667 12.5061 26.2209 10.8315ZM13.8184 19.1719V12.8278L19.3938 15.9999L13.8184 19.1719Z" fill="#2F2F2F"/>
</g>
<defs>
<clipPath id="clip0_1291_3964">
<rect width="21.3333" height="21.3333" fill="white" transform="translate(5.33318 5.3335)"/>
</clipPath>
</defs>
</svg>
