<svg width="24" height="24" viewBox="0 0 24 24" fill="none" xmlns="http://www.w3.org/2000/svg">
<path fill-rule="evenodd" clip-rule="evenodd" d="M9.24368 9.18451C9.61843 6.89394 10.289 4.56891 10.6155 3.50604C11.0659 3.43324 11.5283 3.39535 12 3.39535C12.4717 3.39535 12.9341 3.43324 13.3845 3.50604C13.711 4.56891 14.3816 6.89395 14.7563 9.18451C13.7837 9.34153 12.8337 9.44186 12 9.44186C11.1663 9.44186 10.2163 9.34153 9.24368 9.18451ZM16.1287 8.931C15.8185 7.04736 15.3218 5.16 14.9633 3.91905C16.993 4.66367 18.6654 6.15202 19.6488 8.0543C18.7313 8.31844 17.4679 8.65514 16.1287 8.931ZM16.3195 10.3162C17.8153 10.0118 19.2197 9.63274 20.1892 9.35051C20.4588 10.1845 20.6047 11.0746 20.6047 12C20.6047 12.4717 20.5668 12.9341 20.494 13.3845C19.6505 13.6435 18.008 14.1207 16.2174 14.494C16.3402 13.6366 16.4186 12.7836 16.4186 12C16.4186 11.4629 16.3818 10.8946 16.3195 10.3162ZM15.9674 15.9674C17.5369 15.6639 19.037 15.2648 20.0809 14.9633C19.2123 17.3314 17.3314 19.2123 14.9633 20.0809C15.2648 19.037 15.6639 17.5369 15.9674 15.9674ZM14.494 16.2174C14.1207 18.008 13.6435 19.6505 13.3845 20.494C12.9341 20.5668 12.4717 20.6047 12 20.6047C11.5283 20.6047 11.0659 20.5668 10.6155 20.494C10.3565 19.6505 9.8793 18.008 9.50598 16.2174C10.3634 16.3402 11.2164 16.4186 12 16.4186C12.7836 16.4186 13.6366 16.3402 14.494 16.2174ZM8.03251 15.9674C8.33609 17.5369 8.73517 19.037 9.0367 20.0809C6.66859 19.2123 4.78775 17.3314 3.91903 14.9633C4.96298 15.2648 6.46311 15.6639 8.03251 15.9674ZM7.78264 14.494C5.99201 14.1207 4.34947 13.6435 3.50604 13.3845C3.43324 12.9341 3.39535 12.4717 3.39535 12C3.39535 11.0746 3.54118 10.1845 3.81077 9.35051C4.78026 9.63274 6.18461 10.0118 7.6805 10.3162C7.61821 10.8946 7.5814 11.4629 7.5814 12C7.5814 12.7836 7.65982 13.6366 7.78264 14.494ZM7.87131 8.931C6.53213 8.65514 5.26873 8.31844 4.35114 8.0543C5.33458 6.15202 7.00695 4.66366 9.03668 3.91905C8.67824 5.16 8.18148 7.04736 7.87131 8.931ZM8.97674 12C8.97674 11.5527 9.00567 11.0706 9.0571 10.5678C10.0643 10.7291 11.0802 10.8372 12 10.8372C12.9198 10.8372 13.9357 10.7291 14.9429 10.5678C14.9943 11.0706 15.0233 11.5527 15.0233 12C15.0233 12.8354 14.9224 13.7885 14.7646 14.7646C13.7885 14.9224 12.8354 15.0233 12 15.0233C11.1646 15.0233 10.2115 14.9224 9.23542 14.7646C9.07754 13.7885 8.97674 12.8354 8.97674 12ZM12 2C11.2914 2 10.5993 2.0738 9.93131 2.21437C6.65801 2.90314 3.97661 5.1906 2.73887 8.22103C2.26231 9.38784 2 10.6642 2 12C2 12.7086 2.0738 13.4007 2.21437 14.0687C3.0273 17.9321 6.06794 20.9727 9.93131 21.7856C10.5993 21.9262 11.2914 22 12 22C12.7086 22 13.4007 21.9262 14.0687 21.7856C17.9321 20.9727 20.9727 17.9321 21.7856 14.0687C21.9262 13.4007 22 12.7086 22 12C22 10.6652 21.7381 9.38983 21.2622 8.22377C20.025 5.19198 17.343 2.90336 14.0687 2.21438C13.4007 2.0738 12.7086 2 12 2Z" fill="#2F2F2F"/>
</svg>
