<svg width="117" height="36" viewBox="0 0 117 36" fill="none" xmlns="http://www.w3.org/2000/svg">
<g clip-path="url(#clip0_40001207_3256)">
<path d="M0.15625 34.6159H0.752129C0.848109 34.6159 0.926093 34.6299 0.986748 34.6572C1.0474 34.6852 1.09406 34.7199 1.12672 34.7612C1.15938 34.8025 1.18204 34.8485 1.19404 34.8972C1.20604 34.9465 1.21203 34.9918 1.21203 35.0332C1.21203 35.0745 1.20604 35.1198 1.19404 35.1685C1.18204 35.2171 1.15938 35.2624 1.12672 35.3038C1.09406 35.3451 1.0474 35.3797 0.986748 35.4071C0.926093 35.4344 0.848109 35.4477 0.752129 35.4477H0.392868V35.9663H0.15625V34.6152V34.6159ZM0.392202 35.2558H0.738798C0.765459 35.2558 0.792121 35.2518 0.820115 35.2444C0.848109 35.2371 0.873437 35.2244 0.896766 35.2078C0.920094 35.1905 0.938757 35.1678 0.953421 35.1398C0.968085 35.1111 0.975417 35.0758 0.975417 35.0332C0.975417 34.9905 0.968751 34.9525 0.956754 34.9232C0.94409 34.8938 0.927426 34.8712 0.905431 34.8539C0.884102 34.8372 0.85944 34.8252 0.831446 34.8192C0.803452 34.8132 0.774124 34.8099 0.742797 34.8099H0.392868V35.2564L0.392202 35.2558Z" fill="white"/>
<path d="M2.07103 34.585C2.17168 34.585 2.26232 34.6036 2.34231 34.6416C2.42229 34.6796 2.49028 34.7303 2.5456 34.7949C2.60092 34.8589 2.64358 34.9342 2.67357 35.0202C2.7029 35.1062 2.71823 35.1968 2.71823 35.2928C2.71823 35.3888 2.70357 35.4814 2.67357 35.5674C2.64425 35.6534 2.60159 35.7281 2.5456 35.7927C2.49028 35.8574 2.42229 35.908 2.34231 35.9453C2.26232 35.9827 2.17168 36.0013 2.07103 36.0013C1.97038 36.0013 1.87974 35.9827 1.79975 35.9453C1.71977 35.908 1.65178 35.8574 1.59646 35.7927C1.54114 35.7287 1.49848 35.6534 1.46849 35.5674C1.43916 35.4814 1.42383 35.3901 1.42383 35.2928C1.42383 35.1955 1.43849 35.1062 1.46849 35.0202C1.49781 34.9342 1.54047 34.8596 1.59646 34.7949C1.65178 34.7303 1.71977 34.6796 1.79975 34.6416C1.87974 34.6036 1.97038 34.585 2.07103 34.585ZM2.07103 34.7776C1.99904 34.7776 1.93706 34.7923 1.8844 34.8209C1.83175 34.8502 1.78975 34.8889 1.75643 34.9376C1.72377 34.9862 1.69911 35.0415 1.68378 35.1029C1.66778 35.1648 1.66045 35.2275 1.66045 35.2921C1.66045 35.3568 1.66844 35.4195 1.68378 35.4814C1.69977 35.5434 1.72377 35.5988 1.75643 35.6467C1.78909 35.6954 1.83175 35.7341 1.8844 35.7634C1.93706 35.7927 1.99904 35.8067 2.07103 35.8067C2.14301 35.8067 2.205 35.792 2.25766 35.7634C2.31031 35.7347 2.35231 35.6954 2.38563 35.6467C2.41829 35.5981 2.44295 35.5428 2.45828 35.4814C2.47428 35.4195 2.48161 35.3568 2.48161 35.2921C2.48161 35.2275 2.47361 35.1648 2.45828 35.1029C2.44229 35.0409 2.41829 34.9862 2.38563 34.9376C2.35297 34.8889 2.31031 34.8502 2.25766 34.8209C2.205 34.7916 2.14301 34.7776 2.07103 34.7776Z" fill="white"/>
<path d="M2.87695 34.6172H3.11757L3.36152 35.6503H3.36552L3.63813 34.6172H3.88008L4.14469 35.6503H4.14869L4.40064 34.6172H4.64126L4.26867 35.9682H4.02805L3.75744 34.9351H3.75344L3.47683 35.9682H3.23288L2.87695 34.6172Z" fill="white"/>
<path d="M4.87305 34.6172H5.84552V34.8218H5.10967V35.1757H5.79086V35.369H5.10967V35.7643H5.85885V35.9689H4.87305V34.6179V34.6172Z" fill="white"/>
<path d="M6.14062 34.6172H6.78583C6.93446 34.6172 7.04644 34.6492 7.12043 34.7138C7.19508 34.7778 7.23174 34.8678 7.23174 34.9824C7.23174 35.0464 7.2224 35.0998 7.20307 35.1424C7.18441 35.1844 7.16175 35.2191 7.13709 35.2444C7.11176 35.2704 7.0871 35.2891 7.06244 35.3004C7.03778 35.3117 7.01978 35.319 7.00845 35.323V35.327C7.02844 35.3297 7.05044 35.3357 7.07377 35.3457C7.0971 35.3557 7.11909 35.3717 7.13909 35.3937C7.15908 35.4157 7.17575 35.4444 7.18908 35.4797C7.20241 35.515 7.20907 35.559 7.20907 35.6123C7.20907 35.6916 7.21507 35.7643 7.22707 35.8289C7.23907 35.8943 7.25773 35.9403 7.28306 35.9682H7.02978C7.01178 35.9389 7.00178 35.9069 6.99845 35.8716C6.99512 35.8363 6.99378 35.8023 6.99378 35.7696C6.99378 35.7076 6.98979 35.6543 6.98245 35.6097C6.97512 35.565 6.96112 35.5277 6.94113 35.4983C6.92113 35.469 6.8938 35.447 6.85915 35.433C6.82449 35.419 6.77983 35.4124 6.72584 35.4124H6.37791V35.9689H6.14129V34.6179L6.14062 34.6172ZM6.37658 35.2324H6.7645C6.84048 35.2324 6.8978 35.2144 6.93646 35.1784C6.97579 35.1424 6.99512 35.0884 6.99512 35.0164C6.99512 34.9738 6.98845 34.9385 6.97645 34.9111C6.96379 34.8838 6.94646 34.8631 6.92447 34.8478C6.90247 34.8325 6.87714 34.8225 6.84848 34.8178C6.81982 34.8125 6.79049 34.8105 6.7605 34.8105H6.37658V35.2324Z" fill="white"/>
<path d="M7.54688 34.6172H8.51934V34.8218H7.78349V35.1757H8.46469V35.369H7.78349V35.7643H8.53267V35.9689H7.54688V34.6179V34.6172Z" fill="white"/>
<path d="M8.81445 34.6159H9.37434C9.47765 34.6159 9.56763 34.6339 9.64295 34.6686C9.71894 34.7039 9.78026 34.7519 9.82825 34.8132C9.87624 34.8745 9.91156 34.9458 9.93489 35.0278C9.95822 35.1098 9.96955 35.1971 9.96955 35.2911C9.96955 35.3851 9.95755 35.4724 9.93489 35.5544C9.91156 35.6364 9.87557 35.7077 9.82825 35.769C9.78026 35.8303 9.71827 35.8783 9.64295 35.9136C9.56697 35.949 9.47765 35.9663 9.37434 35.9663H8.81445V34.6152V34.6159ZM9.05107 35.7743H9.28369C9.37567 35.7743 9.45099 35.7623 9.50965 35.7377C9.5683 35.713 9.61429 35.679 9.64762 35.6357C9.68094 35.5924 9.70361 35.541 9.7156 35.4824C9.7276 35.4237 9.7336 35.3604 9.7336 35.2924C9.7336 35.2244 9.7276 35.1611 9.7156 35.1025C9.70361 35.0438 9.68094 34.9925 9.64762 34.9492C9.61429 34.9058 9.5683 34.8719 9.50965 34.8472C9.45099 34.8225 9.37567 34.8105 9.28369 34.8105H9.05107V35.7757V35.7743Z" fill="white"/>
<path d="M10.8574 34.6172H11.514C11.6353 34.6172 11.7319 34.6452 11.8052 34.7005C11.8785 34.7558 11.9152 34.8398 11.9152 34.9525C11.9152 35.0204 11.8985 35.0791 11.8652 35.1278C11.8319 35.1764 11.7839 35.2137 11.7226 35.2404V35.2444C11.8059 35.2617 11.8692 35.3017 11.9119 35.3624C11.9545 35.4237 11.9759 35.5003 11.9759 35.5923C11.9759 35.645 11.9665 35.695 11.9472 35.741C11.9285 35.7869 11.8985 35.8269 11.8586 35.8603C11.8179 35.8936 11.7666 35.9203 11.7032 35.9396C11.6399 35.9589 11.5653 35.9689 11.478 35.9689H10.8574V34.6179V34.6172ZM11.094 35.1831H11.48C11.5366 35.1831 11.5839 35.1671 11.6219 35.1351C11.6599 35.1031 11.6786 35.0564 11.6786 34.9958C11.6786 34.9278 11.6613 34.8798 11.6273 34.8518C11.5933 34.8238 11.5439 34.8105 11.48 34.8105H11.094V35.1831ZM11.094 35.7756H11.512C11.5839 35.7756 11.6399 35.757 11.6793 35.7196C11.7192 35.6823 11.7386 35.6297 11.7386 35.5617C11.7386 35.4937 11.7186 35.4437 11.6793 35.4077C11.6393 35.3717 11.5839 35.3537 11.512 35.3537H11.094V35.7756Z" fill="white"/>
<path d="M12.6166 35.4384L12.1094 34.6172H12.384L12.7419 35.2224L13.0938 34.6172H13.3585L12.8532 35.4384V35.9682H12.6166V35.4384Z" fill="white"/>
<path d="M14.1719 34.6172H15.105V34.8218H14.4085V35.1757H15.0197V35.369H14.4085V35.9689H14.1719V34.6179V34.6172Z" fill="white"/>
<path d="M15.3672 34.6172H15.6038V35.9682H15.3672V34.6172Z" fill="white"/>
<path d="M15.9707 34.6172H16.6159C16.7645 34.6172 16.8765 34.6492 16.9505 34.7138C17.0252 34.7778 17.0618 34.8678 17.0618 34.9824C17.0618 35.0464 17.0525 35.0998 17.0332 35.1424C17.0145 35.1844 16.9918 35.2191 16.9672 35.2444C16.9418 35.2704 16.9172 35.2891 16.8925 35.3004C16.8679 35.3117 16.8499 35.319 16.8385 35.323V35.327C16.8585 35.3297 16.8805 35.3357 16.9038 35.3457C16.9272 35.3557 16.9492 35.3717 16.9692 35.3937C16.9892 35.4157 17.0058 35.4444 17.0192 35.4797C17.0325 35.515 17.0392 35.559 17.0392 35.6123C17.0392 35.6916 17.0452 35.7643 17.0571 35.8289C17.0691 35.8943 17.0878 35.9403 17.1131 35.9682H16.8599C16.8419 35.9389 16.8319 35.9069 16.8285 35.8716C16.8252 35.8363 16.8239 35.8023 16.8239 35.7696C16.8239 35.7076 16.8199 35.6543 16.8125 35.6097C16.8052 35.565 16.7912 35.5277 16.7712 35.4983C16.7512 35.469 16.7239 35.447 16.6892 35.433C16.6546 35.419 16.6099 35.4124 16.5559 35.4124H16.208V35.9689H15.9714V34.6179L15.9707 34.6172ZM16.2073 35.2324H16.5952C16.6712 35.2324 16.7285 35.2144 16.7672 35.1784C16.8065 35.1424 16.8259 35.0884 16.8259 35.0164C16.8259 34.9738 16.8192 34.9385 16.8072 34.9111C16.7945 34.8838 16.7772 34.8631 16.7552 34.8478C16.7332 34.8325 16.7079 34.8225 16.6792 34.8178C16.6506 34.8125 16.6212 34.8105 16.5912 34.8105H16.2073V35.2324Z" fill="white"/>
<path d="M17.5354 35.5177C17.5354 35.5697 17.5441 35.6137 17.5621 35.6504C17.5794 35.687 17.6041 35.717 17.636 35.7404C17.668 35.7637 17.704 35.781 17.7447 35.7917C17.7853 35.8024 17.83 35.8077 17.878 35.8077C17.93 35.8077 17.974 35.8017 18.0106 35.7897C18.0473 35.7777 18.0766 35.7624 18.0993 35.743C18.1219 35.7244 18.1386 35.7024 18.1486 35.6777C18.1586 35.6531 18.1639 35.6284 18.1639 35.6031C18.1639 35.5511 18.1519 35.5131 18.1286 35.4884C18.1053 35.4638 18.08 35.4464 18.052 35.4364C18.004 35.4191 17.948 35.4018 17.8847 35.3864C17.8207 35.3704 17.7427 35.3504 17.6494 35.3251C17.5914 35.3098 17.5434 35.2898 17.5047 35.2658C17.4661 35.2411 17.4354 35.2138 17.4128 35.1831C17.3901 35.1532 17.3741 35.1205 17.3648 35.0865C17.3554 35.0525 17.3508 35.0179 17.3508 34.9825C17.3508 34.9145 17.3648 34.8552 17.3934 34.8059C17.4221 34.7559 17.4594 34.7146 17.5061 34.6819C17.5527 34.6493 17.6061 34.6246 17.6647 34.6093C17.724 34.5933 17.784 34.5859 17.8447 34.5859C17.9153 34.5859 17.982 34.5953 18.0446 34.6133C18.1073 34.6313 18.1619 34.6593 18.2093 34.6959C18.2566 34.7326 18.2939 34.7779 18.3219 34.8312C18.3499 34.8845 18.3632 34.9472 18.3632 35.0178H18.1266C18.1206 34.9305 18.0906 34.8692 18.038 34.8332C17.9853 34.7972 17.9173 34.7792 17.8353 34.7792C17.8073 34.7792 17.7793 34.7819 17.75 34.7879C17.7207 34.7932 17.6947 34.8032 17.6707 34.8166C17.6467 34.8299 17.6267 34.8479 17.6114 34.8705C17.5954 34.8932 17.5881 34.9219 17.5881 34.9559C17.5881 35.0039 17.6027 35.0412 17.6327 35.0685C17.662 35.0958 17.7014 35.1158 17.7494 35.1298C17.7547 35.1312 17.774 35.1365 17.8087 35.1458C17.8433 35.1552 17.882 35.1658 17.9253 35.1772C17.968 35.1885 18.01 35.1998 18.0513 35.2105C18.0926 35.2211 18.1219 35.2291 18.1393 35.2338C18.1833 35.2478 18.2219 35.2665 18.2546 35.2905C18.2872 35.3145 18.3146 35.3418 18.3366 35.3731C18.3586 35.4038 18.3752 35.4371 18.3859 35.4724C18.3966 35.5077 18.4019 35.5431 18.4019 35.5784C18.4019 35.6544 18.3866 35.719 18.3552 35.7724C18.3239 35.8257 18.2839 35.8697 18.2333 35.9037C18.1826 35.9377 18.1253 35.963 18.0613 35.9783C17.9973 35.9937 17.9313 36.0016 17.8647 36.0016C17.788 36.0016 17.7154 35.9923 17.6474 35.973C17.5794 35.9537 17.5201 35.925 17.4694 35.8857C17.4188 35.8463 17.3788 35.7964 17.3481 35.735C17.3181 35.6737 17.3021 35.6017 17.3008 35.5184H17.5374L17.5354 35.5177Z" fill="white"/>
<path d="M18.5508 34.6172H19.6446V34.8218H19.2153V35.9682H18.9787V34.8218H18.5508V34.6172Z" fill="white"/>
<path d="M20.4746 34.6172H20.8079L21.1805 35.675H21.1845L21.5477 34.6172H21.877V35.9682H21.6517V34.9258H21.6477L21.2731 35.9682H21.0785L20.7039 34.9258H20.6999V35.9682H20.4746V34.6172Z" fill="white"/>
<path d="M22.2363 34.6172H23.2088V34.8218H22.4729V35.1757H23.1541V35.369H22.4729V35.7643H23.2221V35.9689H22.2363V34.6179V34.6172Z" fill="white"/>
<path d="M23.5059 34.6159H24.0657C24.1691 34.6159 24.259 34.6339 24.3344 34.6686C24.4103 34.7039 24.4717 34.7519 24.5197 34.8132C24.5676 34.8745 24.603 34.9458 24.6263 35.0278C24.6496 35.1098 24.661 35.1971 24.661 35.2911C24.661 35.3851 24.649 35.4724 24.6263 35.5544C24.603 35.6364 24.567 35.7077 24.5197 35.769C24.4717 35.8303 24.4097 35.8783 24.3344 35.9136C24.2584 35.949 24.1691 35.9663 24.0657 35.9663H23.5059V34.6152V34.6159ZM23.7425 35.7743H23.9751C24.0671 35.7743 24.1424 35.7623 24.2011 35.7377C24.2597 35.713 24.3057 35.679 24.339 35.6357C24.3723 35.5924 24.395 35.541 24.407 35.4824C24.419 35.4237 24.425 35.3604 24.425 35.2924C24.425 35.2244 24.419 35.1611 24.407 35.1025C24.395 35.0438 24.3723 34.9925 24.339 34.9492C24.3057 34.9058 24.2597 34.8719 24.2011 34.8472C24.1424 34.8225 24.0671 34.8105 23.9751 34.8105H23.7425V35.7757V35.7743Z" fill="white"/>
<path d="M24.9473 34.6172H25.1839V35.9682H24.9473V34.6172Z" fill="white"/>
<path d="M25.9098 34.6172H26.1618L26.6823 35.9682H26.429L26.3024 35.6103H25.7632L25.6365 35.9682H25.3926L25.9111 34.6172H25.9098ZM25.8265 35.431H26.2391L26.0364 34.8498H26.0304L25.8258 35.431H25.8265Z" fill="white"/>
<path d="M94.2656 11.9277V23.5687L104.348 17.7472L94.2656 11.9284V11.9277Z" fill="white"/>
<path d="M116.576 15.3975C116.238 16.2026 115.682 16.9125 114.953 17.435L114.77 17.5517L108.129 21.3876L99.2945 26.4945V26.5019L98.1768 27.1464L96.7164 27.9909L96.6271 28.0409L96.5944 28.0569L94.2676 29.4026L92.8065 30.2458C92.4839 30.3944 92.126 30.4811 91.7481 30.4811C91.6528 30.4811 91.5588 30.4744 91.4668 30.4644V32.7266C91.6054 33.9963 92.6792 34.9841 93.9863 34.9841C94.3649 34.9841 94.7221 34.8982 95.0447 34.7489H95.0481C95.0714 34.7382 95.0967 34.7289 95.1207 34.7169L95.218 34.6609C95.3093 34.6129 95.4013 34.5662 95.4913 34.5162L113.314 24.2243C115.496 22.8986 116.952 20.4991 116.952 17.761C116.952 17.7583 116.952 17.7563 116.952 17.7536C116.952 17.7516 116.952 17.749 116.952 17.7463C116.952 16.9271 116.819 16.1373 116.577 15.3981L116.576 15.3975Z" fill="#DA2126"/>
<path d="M89.2312 32.8461V32.7248V28.247C89.2312 28.2383 89.2285 28.2297 89.2278 28.2217V7.28327C89.2778 6.82469 89.4518 6.40345 89.7131 6.05085L89.2478 5.78224L87.7861 4.93908C87.4635 4.79044 87.1069 4.70312 86.7277 4.70312C85.432 4.70312 84.3662 5.67559 84.2135 6.92934C84.2109 6.95533 84.2089 6.98199 84.2075 7.00866C84.1949 7.18662 84.1862 7.36592 84.1855 7.54788V7.54988V7.55121V27.9524V27.9537V27.9564C84.1855 28.137 84.1949 28.3176 84.2075 28.4956C84.2109 28.5369 84.2135 28.5783 84.2175 28.6209C84.2335 28.7936 84.2529 28.9662 84.2802 29.1362C84.2849 29.1661 84.2909 29.1961 84.2962 29.2255C84.3215 29.3761 84.3522 29.5241 84.3862 29.6707C84.3955 29.7074 84.4035 29.7454 84.4128 29.7834C84.4528 29.9447 84.4995 30.1053 84.5501 30.2633C84.5621 30.3026 84.5768 30.3392 84.5888 30.3792C84.6374 30.5199 84.6894 30.6598 84.7454 30.7978C84.7554 30.8225 84.7648 30.8471 84.7748 30.8718C84.8387 31.0258 84.9094 31.1744 84.9834 31.3224C85.0027 31.3617 85.022 31.399 85.042 31.4377C85.1194 31.585 85.1993 31.7316 85.2866 31.8729C85.2933 31.8849 85.302 31.8969 85.3093 31.9083C85.3926 32.0429 85.4799 32.1735 85.5706 32.3022C85.5939 32.3348 85.6166 32.3675 85.6386 32.3982C85.7366 32.5315 85.8379 32.6628 85.9439 32.7887C85.9619 32.8107 85.9818 32.8327 86.0005 32.8547C86.0978 32.9687 86.1991 33.08 86.3038 33.188C86.3244 33.2093 86.3451 33.232 86.3664 33.2533C86.4844 33.3726 86.6057 33.4873 86.7304 33.5986C86.7557 33.6212 86.7817 33.6432 86.8077 33.6659C86.9297 33.7712 87.0543 33.8732 87.1829 33.9712C87.1929 33.9778 87.2016 33.9858 87.2116 33.9938C87.3476 34.0958 87.4875 34.1918 87.6302 34.2851C87.6608 34.3044 87.6908 34.3244 87.7222 34.3444C87.8668 34.4351 88.0134 34.5224 88.1641 34.6044C88.1747 34.609 88.1861 34.615 88.1967 34.6204C88.3387 34.697 88.4833 34.7663 88.6313 34.8337C88.664 34.849 88.698 34.8643 88.7313 34.879C88.8846 34.9456 89.0412 35.0083 89.1992 35.0649C89.2099 35.0683 89.2192 35.0729 89.2298 35.0769V35.0749C89.5411 35.1849 89.8644 35.2696 90.193 35.3382C89.6838 34.6697 89.3445 33.8599 89.2472 32.9687L89.2332 32.8467L89.2312 32.8461Z" fill="#DA2126"/>
<path d="M113.653 11.5097L113.657 11.505C113.545 11.429 113.431 11.353 113.314 11.2824L95.4911 0.991131C95.4011 0.939809 95.3091 0.893151 95.2178 0.846494L95.1205 0.790506C94.9632 0.712521 94.8012 0.640536 94.6386 0.573217C94.6246 0.568551 94.6113 0.563219 94.5986 0.558553C94.4893 0.513895 94.268 0.433912 94.268 0.433912C93.4795 0.154635 92.6323 0 91.7479 0C90.864 0 90.0169 0.153302 89.2284 0.431912V0.429912C89.2177 0.433245 89.2084 0.438577 89.1977 0.44191C89.0391 0.498565 88.8831 0.561219 88.7298 0.627872C88.6958 0.642536 88.6625 0.657866 88.6298 0.67253C88.4819 0.739849 88.3372 0.809835 88.1952 0.88582C88.1846 0.891818 88.1732 0.897151 88.1626 0.902483C88.0119 0.9838 87.866 1.07112 87.7207 1.16243C87.69 1.18176 87.66 1.20176 87.6287 1.22108C87.4861 1.31373 87.3461 1.41038 87.2108 1.51236C87.2008 1.51969 87.1908 1.52836 87.1808 1.53502C87.0535 1.63233 86.9288 1.73431 86.8069 1.83963C86.7815 1.86162 86.7555 1.88428 86.7295 1.90694C86.6049 2.01759 86.4836 2.13223 86.3656 2.25154C86.3443 2.27287 86.3236 2.29487 86.303 2.31686C86.2423 2.38018 86.1837 2.44683 86.125 2.51282C86.323 2.48749 86.5229 2.47016 86.7275 2.47016C87.4154 2.47016 88.0853 2.61813 88.7205 2.91007L88.8138 2.9534L88.9038 3.00472L90.3648 3.84855L91.4819 4.49375L106.957 13.4439L107.052 13.4973L107.061 13.5039L110.861 15.7001C111.228 15.9627 111.52 16.3233 111.706 16.7413L113.653 15.6175C114.294 15.1589 114.716 14.4111 114.718 13.5639C114.716 12.7161 114.294 11.9689 113.653 11.5103L113.653 11.5097Z" fill="#DA2126"/>
<path d="M8.17496 23.3458C2.97469 23.3458 0.337891 21.6455 0.337891 18.2915V9.35997C0.337891 6.00665 2.97469 4.30566 8.17496 4.30566H15.5375C20.7377 4.30566 23.3745 6.00598 23.3745 9.35997V18.2915C23.3745 21.6448 20.7377 23.3458 15.5375 23.3458H8.17496ZM8.27627 7.73497C6.85923 7.73497 5.82677 7.9116 5.20823 8.25953C4.64635 8.57546 4.37374 8.93539 4.37374 9.36063V18.2921C4.37374 18.7021 4.64768 19.058 5.21157 19.3819C5.82944 19.7372 6.86056 19.9178 8.27694 19.9178H15.4375C16.8532 19.9178 17.885 19.7379 18.5029 19.3826C19.0667 19.0587 19.3407 18.7021 19.3407 18.2921V9.36063C19.3407 8.93605 19.0674 8.57546 18.5062 8.25953C17.887 7.9116 16.8552 7.73497 15.4381 7.73497H8.27761H8.27627Z" fill="white"/>
<path d="M8.17273 22.9986C3.17975 22.9986 0.683594 21.4295 0.683594 18.2922V9.36067C0.683594 6.22331 3.17975 4.6543 8.17273 4.6543H15.5352C20.5282 4.6543 23.0244 6.22264 23.0244 9.36067V18.2922C23.0244 21.4295 20.5276 22.9986 15.5352 22.9986H8.17273ZM15.4346 20.2665C16.9183 20.2665 17.9981 20.0725 18.6733 19.6846C19.3478 19.2966 19.6851 18.8327 19.6851 18.2929V9.36134C19.6851 8.80478 19.3478 8.33688 18.6733 7.95696C17.9981 7.57703 16.919 7.38774 15.4346 7.38774H8.27405C6.78968 7.38774 5.7099 7.5777 5.03537 7.95696C4.36084 8.33621 4.02358 8.80478 4.02358 9.36134V18.2929C4.02358 18.8327 4.36084 19.2966 5.03537 19.6846C5.7099 20.0725 6.78968 20.2665 8.27405 20.2665H15.4346Z" fill="white"/>
<path d="M50.8318 23.4462C50.5865 23.4462 50.3779 23.4368 50.2119 23.4189C50.0199 23.3975 49.836 23.3435 49.6647 23.2582C49.514 23.1836 49.3527 23.0843 49.1861 22.9629C49.0261 22.8476 48.8315 22.693 48.6082 22.5037L33.4433 9.72831V21.9098C33.4433 22.5357 33.2367 22.9623 32.8281 23.1789C32.4868 23.3595 32.0196 23.4475 31.4004 23.4475C30.7972 23.4475 30.3386 23.3595 29.998 23.1789C29.5901 22.9629 29.3828 22.5364 29.3828 21.9098V5.74112C29.3828 5.13991 29.5761 4.72 29.958 4.49338C30.286 4.29875 30.7332 4.2041 31.3251 4.2041C31.9356 4.2041 32.4129 4.28409 32.7828 4.44938C33.1334 4.60669 33.5193 4.8673 33.9319 5.22523L48.8662 17.942V5.74112C48.8662 5.11525 49.0735 4.688 49.4814 4.47205C49.822 4.29142 50.2812 4.2041 50.8838 4.2041C51.5036 4.2041 51.9702 4.29208 52.3115 4.47205C52.7201 4.68867 52.9267 5.11525 52.9267 5.74112V21.9092C52.9267 22.535 52.7194 22.9616 52.3115 23.1782C51.9702 23.3589 51.4863 23.4468 50.8331 23.4468L50.8318 23.4462Z" fill="white"/>
<path d="M50.8308 23.0996C50.5942 23.0996 50.4009 23.091 50.249 23.0743C50.097 23.0576 49.9537 23.015 49.819 22.9477C49.6837 22.8803 49.5411 22.7917 49.3891 22.6817C49.2372 22.5724 49.0519 22.4244 48.8326 22.2391L33.0951 8.98117V21.9105C33.0951 22.3998 32.9518 22.7204 32.6652 22.8717C32.3779 23.0236 31.9567 23.0996 31.4001 23.0996C30.8602 23.0996 30.447 23.0236 30.1604 22.8717C29.8731 22.7197 29.7305 22.3998 29.7305 21.9105V5.74249C29.7305 5.27059 29.8651 4.95399 30.1351 4.79335C30.405 4.63338 30.8009 4.55273 31.3241 4.55273C31.8807 4.55273 32.3193 4.62472 32.6399 4.76802C32.9598 4.91133 33.3144 5.15195 33.7023 5.48921L49.2125 18.6965V5.74249C49.2125 5.25326 49.3558 4.93266 49.6424 4.78069C49.929 4.62872 50.3423 4.55273 50.8822 4.55273C51.4387 4.55273 51.86 4.62872 52.1472 4.78069C52.4338 4.93266 52.5771 5.25326 52.5771 5.74249V21.9105C52.5771 22.3998 52.4338 22.7204 52.1472 22.8717C51.86 23.0236 51.4221 23.0996 50.8315 23.0996H50.8308Z" fill="white"/>
<path d="M66.7687 23.3458C61.5684 23.3458 58.9316 21.6455 58.9316 18.2915V9.35997C58.9316 6.00665 61.5684 4.30566 66.7687 4.30566H70.5386C71.1885 4.30566 71.4824 4.58894 71.6144 4.82623C71.7717 5.10883 71.8483 5.49942 71.8483 6.01998C71.8483 6.54054 71.7717 6.93113 71.6144 7.21374C71.4824 7.45102 71.1891 7.7343 70.5386 7.7343H66.87C65.453 7.7343 64.4205 7.91093 63.802 8.25886C63.2401 8.57479 62.9675 8.93472 62.9675 9.35997V12.2507H79.0402C79.5794 12.2507 79.9494 12.426 80.1413 12.7713C80.2986 13.0539 80.3746 13.4445 80.3746 13.965C80.3746 14.4856 80.298 14.8762 80.1407 15.1588C79.9494 15.504 79.5788 15.6793 79.0395 15.6793H62.9668V18.2915C62.9668 18.7014 63.2408 19.0573 63.8046 19.3819C64.4225 19.7372 65.4536 19.9172 66.87 19.9172H78.9642C79.5028 19.9172 79.8734 20.0924 80.0653 20.4377C80.2226 20.7203 80.2986 21.1109 80.2986 21.6315C80.2986 22.1334 80.2233 22.518 80.0673 22.8079C79.936 23.0532 79.6381 23.3458 78.9636 23.3458H66.768H66.7687Z" fill="white"/>
<path d="M62.6212 15.3315V18.2916C62.6212 18.8315 62.9585 19.2954 63.633 19.6833C64.3076 20.0712 65.3873 20.2652 66.8717 20.2652H78.9659C79.3705 20.2652 79.6364 20.3791 79.7631 20.6064C79.8897 20.8344 79.953 21.1756 79.953 21.6309C79.953 22.0695 79.8897 22.4067 79.7631 22.6427C79.6364 22.8793 79.3712 22.9966 78.9659 22.9966H66.7704C61.7774 22.9966 59.2812 21.4276 59.2812 18.2902V9.35872C59.2812 6.22136 61.7774 4.65234 66.7704 4.65234H70.5403C70.9282 4.65234 71.1855 4.76632 71.3121 4.99361C71.4388 5.22156 71.5021 5.56282 71.5021 6.01807C71.5021 6.47331 71.4388 6.81524 71.3121 7.04252C71.1855 7.27048 70.9282 7.38445 70.5403 7.38445H66.8717C65.3873 7.38445 64.3076 7.57442 63.633 7.95367C62.9585 8.33293 62.6212 8.8015 62.6212 9.35805V12.5967H79.0419C79.4471 12.5967 79.7124 12.7107 79.8391 12.938C79.9657 13.1659 80.029 13.5072 80.029 13.9624C80.029 14.4177 79.9657 14.7596 79.8391 14.9869C79.7124 15.2149 79.4471 15.3288 79.0419 15.3288H62.6212V15.3315Z" fill="white"/>
<path d="M2.41951 29.5139C0.806502 29.5139 0 29.0074 0 27.9942V27.6756C0 26.6625 0.806502 26.1553 2.41951 26.1553H3.23667C3.36731 26.1553 3.4533 26.1919 3.49396 26.2659C3.53461 26.3392 3.55528 26.4499 3.55528 26.5972C3.55528 26.7445 3.53461 26.8545 3.49396 26.9284C3.4533 27.0018 3.36731 27.0391 3.23667 27.0391H2.39485C1.91494 27.0391 1.57635 27.1004 1.37705 27.2231C1.17843 27.3457 1.07911 27.497 1.07911 27.6763V27.9949C1.07911 28.1695 1.17843 28.3195 1.37705 28.4441C1.57568 28.5694 1.91494 28.6321 2.39485 28.6321H4.32379C5.93679 28.6321 6.74329 29.1387 6.74329 30.1525V30.561C6.74329 31.5742 5.93679 32.0814 4.32379 32.0814H0.318602C0.187962 32.0814 0.101979 32.0447 0.0613208 31.9708C0.0206625 31.8968 0 31.7861 0 31.6395C0 31.4922 0.0206625 31.3822 0.0613208 31.3082C0.101979 31.2349 0.187962 31.1976 0.318602 31.1976H4.34778C4.82702 31.1976 5.16628 31.1363 5.36557 31.0136C5.5642 30.891 5.66418 30.7397 5.66418 30.5604V30.1518C5.66418 29.9772 5.56487 29.8279 5.36557 29.7026C5.16695 29.5772 4.82768 29.5146 4.34778 29.5146H2.41884L2.41951 29.5139Z" fill="white"/>
<path d="M15.9199 27.0381V31.7298C15.9199 31.8878 15.8732 31.9911 15.7813 32.0404C15.6886 32.0898 15.5526 32.1137 15.3727 32.1137C15.198 32.1137 15.0647 32.0891 14.9721 32.0404C14.8794 31.9918 14.8335 31.8878 14.8335 31.7298V27.0381H12.3733C12.2426 27.0381 12.1567 27.0015 12.116 26.9275C12.0753 26.8542 12.0547 26.7435 12.0547 26.5962C12.0547 26.4489 12.0753 26.3389 12.116 26.2649C12.1567 26.1916 12.2426 26.1543 12.3733 26.1543H18.3887C18.5194 26.1543 18.6054 26.191 18.646 26.2649C18.6867 26.3383 18.7073 26.4489 18.7073 26.5962C18.7073 26.7435 18.6867 26.8535 18.646 26.9275C18.6054 27.0008 18.5194 27.0381 18.3887 27.0381H15.9206H15.9199Z" fill="white"/>
<path d="M26.0566 26.5312C26.0566 26.2806 26.1846 26.1553 26.4406 26.1553H31.0336C31.4042 26.1553 31.7375 26.1866 32.0348 26.2493C32.332 26.3119 32.5833 26.4006 32.7906 26.5152C32.9972 26.6298 33.1572 26.7685 33.2685 26.9318C33.3798 27.0951 33.4358 27.2777 33.4358 27.4797V28.5095C33.4358 28.7108 33.3798 28.8934 33.2685 29.0567C33.1565 29.22 32.9972 29.3593 32.7906 29.4733C32.5833 29.5879 32.3314 29.6766 32.0348 29.7385C31.7375 29.8012 31.4042 29.8325 31.0336 29.8325H30.707C30.4671 29.8325 30.2585 29.8325 30.0818 29.8325C29.9045 29.8325 29.7479 29.8312 29.6119 29.8285C29.4759 29.8259 29.3533 29.8219 29.244 29.8159C29.1347 29.8105 29.0287 29.8052 28.9254 29.7999V29.8159C29.0127 29.8485 29.1067 29.8825 29.2073 29.9178C29.308 29.9532 29.432 29.9985 29.5793 30.0525C29.7266 30.1071 29.9045 30.1751 30.1145 30.2571C30.3244 30.3391 30.5844 30.4424 30.895 30.5677L32.8646 31.3602C33.0386 31.4309 33.1259 31.5535 33.1259 31.7281C33.1259 31.8754 33.0779 31.9761 32.9832 32.0307C32.8879 32.0854 32.7499 32.1127 32.5706 32.1127C32.5327 32.1127 32.4847 32.1114 32.428 32.1087C32.3707 32.1061 32.312 32.1007 32.252 32.0921C32.1921 32.0841 32.1334 32.0734 32.0761 32.0594C32.0188 32.0461 31.9688 32.0254 31.9248 31.9981L27.1438 29.9305V31.7288C27.1438 31.8868 27.0971 31.9901 27.0044 32.0394C26.9118 32.0887 26.7758 32.1127 26.5959 32.1127C26.4212 32.1127 26.2879 32.0881 26.1953 32.0394C26.1026 31.9901 26.0566 31.8868 26.0566 31.7288V26.5305V26.5312ZM27.1438 27.0378V28.9667H30.9363C31.2143 28.9667 31.4442 28.9534 31.6268 28.926C31.8095 28.8987 31.9548 28.8621 32.0641 28.8154C32.1727 28.7694 32.2494 28.7148 32.2927 28.6521C32.336 28.5894 32.358 28.5201 32.358 28.4435V27.561C32.358 27.4903 32.336 27.4223 32.2927 27.3564C32.2494 27.291 32.1727 27.2351 32.0641 27.1891C31.9548 27.1431 31.8095 27.1057 31.6268 27.0784C31.4442 27.0511 31.2143 27.0378 30.9363 27.0378H27.1438Z" fill="white"/>
<path d="M41.9763 29.6036V30.5601C41.9763 30.7347 42.0849 30.8847 42.3029 31.0093C42.5208 31.1346 42.8694 31.1973 43.3493 31.1973H47.2559C47.3865 31.1973 47.4725 31.2339 47.5131 31.3079C47.5538 31.3812 47.5745 31.4919 47.5745 31.6392C47.5745 31.7812 47.5538 31.8898 47.5131 31.9658C47.4725 32.0424 47.3865 32.0804 47.2559 32.0804H43.316C41.703 32.0804 40.8965 31.5739 40.8965 30.5601V27.6747C40.8965 26.6615 41.703 26.1543 43.316 26.1543H44.5337C44.659 26.1543 44.7424 26.191 44.783 26.2649C44.8237 26.3383 44.8443 26.4489 44.8443 26.5962C44.8443 26.7435 44.8237 26.8535 44.783 26.9275C44.7424 27.0008 44.659 27.0381 44.5337 27.0381H43.3487C42.8687 27.0381 42.5202 27.0994 42.3022 27.2221C42.0842 27.3447 41.9756 27.496 41.9756 27.6753V28.7218H47.2798C47.4105 28.7218 47.4965 28.7584 47.5371 28.8324C47.5778 28.9057 47.5985 29.0164 47.5985 29.1637C47.5985 29.311 47.5778 29.421 47.5371 29.4949C47.4965 29.5683 47.4105 29.6056 47.2798 29.6056H41.9756L41.9763 29.6036Z" fill="white"/>
<path d="M58.897 26.1315C59.0549 26.1315 59.1842 26.1562 59.2849 26.2048C59.3855 26.2542 59.4689 26.3248 59.5342 26.4175L63.0974 31.5011C63.1354 31.5611 63.1548 31.6237 63.1548 31.6891C63.1548 31.749 63.1368 31.8064 63.1014 31.8604C63.0661 31.915 63.0195 31.961 62.9621 31.9997C62.9048 32.0377 62.8408 32.0677 62.7702 32.0896C62.6995 32.1116 62.6282 32.1223 62.5576 32.1223C62.4809 32.1223 62.4129 32.1103 62.3529 32.0856C62.2929 32.061 62.241 32.019 62.1976 31.959L61.2332 30.5533H56.6888L55.7816 31.959C55.7436 32.019 55.693 32.061 55.6303 32.0856C55.5676 32.1103 55.501 32.1223 55.4303 32.1223C55.365 32.1223 55.297 32.111 55.2257 32.0896C55.1551 32.0677 55.0911 32.0363 55.0338 31.9957C54.9764 31.955 54.9304 31.9083 54.8951 31.8564C54.8598 31.805 54.8418 31.7464 54.8418 31.6804C54.8418 31.6257 54.8611 31.5658 54.8991 31.5004L58.2504 26.4168C58.3104 26.3242 58.3917 26.2535 58.4957 26.2042C58.599 26.1549 58.733 26.1309 58.8963 26.1309L58.897 26.1315ZM57.254 29.6701H60.6293L58.8963 27.128L57.2533 29.6701H57.254Z" fill="white"/>
<path d="M79.2962 26.4578C79.3835 26.3545 79.4802 26.2805 79.5862 26.2372C79.6921 26.1939 79.8108 26.1719 79.9414 26.1719C80.3447 26.1719 80.546 26.3572 80.546 26.7278V31.7301C80.546 31.888 80.4993 31.9914 80.4066 32.0407C80.314 32.09 80.178 32.114 79.9981 32.114C79.8181 32.114 79.6821 32.0893 79.5895 32.0407C79.4968 31.9914 79.4502 31.888 79.4502 31.7301V27.8562L76.1888 31.8041C76.0962 31.9134 76.0009 31.992 75.9029 32.0413C75.8049 32.0907 75.6849 32.1147 75.543 32.1147C75.385 32.1147 75.253 32.09 75.1464 32.0413C75.0404 31.992 74.9431 31.9134 74.8564 31.8041L71.5871 27.8562V31.7301C71.5871 31.888 71.5405 31.9914 71.4478 32.0407C71.3552 32.09 71.2192 32.114 71.0392 32.114C70.8593 32.114 70.7313 32.0893 70.6386 32.0407C70.546 31.9914 70.5 31.888 70.5 31.7301V26.7278C70.5 26.3572 70.6986 26.1719 71.0966 26.1719C71.3632 26.1719 71.5784 26.2672 71.7424 26.4578L75.5023 30.9942L79.2949 26.4578H79.2962Z" fill="white"/>
</g>
<defs>
<clipPath id="clip0_40001207_3256">
<rect width="116.952" height="36" fill="white"/>
</clipPath>
</defs>
</svg>
