<svg xmlns="http://www.w3.org/2000/svg" viewBox="0 0 112.86 117.83"><defs><style>.cls-1{fill:#100f10;}.cls-2{fill:#fff;}.cls-3{fill:#5a5a5a;}.cls-4{fill:#282727;}.cls-5{fill:#262524;}.cls-6{fill:#d22d2d;}.cls-7{fill:#e40f00;}</style></defs><g id="Layer_2" data-name="Layer 2"><g id="Layer_1-2" data-name="Layer 1"><circle class="cls-1" cx="56.99" cy="62.27" r="55.56"/><circle class="cls-2" cx="56.43" cy="56.43" r="56.43"/><circle class="cls-3" cx="56.99" cy="57.3" r="55.56"/><circle class="cls-1" cx="56.12" cy="56.62" r="39.18"/><circle class="cls-4" cx="56.12" cy="56.62" r="37.64"/><path class="cls-5" d="M102.2,58.6h-1A45.89,45.89,0,1,1,87.76,26.15,45.72,45.72,0,0,1,101.2,58.6h2a47.88,47.88,0,1,0-47.88,47.88A47.88,47.88,0,0,0,103.19,58.6Z"/><path class="cls-6" d="M102.2,56.62h-1A45.89,45.89,0,1,1,87.76,24.17,45.7,45.7,0,0,1,101.2,56.62h2a47.88,47.88,0,1,0-47.88,47.87,47.88,47.88,0,0,0,47.88-47.87Z"/><path class="cls-7" d="M55.32,67.35a6.32,6.32,0,0,0-4.54,1.91.14.14,0,0,0,0,.21l4.43,4.15a.13.13,0,0,0,.2,0l4.44-4.16a.14.14,0,0,0,0-.21A6.34,6.34,0,0,0,55.32,67.35Z"/><path class="cls-7" d="M55.32,54.59a19,19,0,0,0-13.53,5.6l-.32.34a.14.14,0,0,0,0,.21l4.11,3.85a.15.15,0,0,0,.21,0,13.17,13.17,0,0,1,19.05,0,.13.13,0,0,0,.2,0l4.12-3.85a.15.15,0,0,0,0-.21l-.32-.33A19,19,0,0,0,55.32,54.59Z"/><path class="cls-7" d="M67.07,45.91A30.14,30.14,0,0,0,34,52.38c-.2.19-.39.39-.58.59a.14.14,0,0,0,0,.2L37.52,57h0a.13.13,0,0,0,.2,0A24.22,24.22,0,0,1,72.9,57a.14.14,0,0,0,.2,0h0l4.12-3.86a.15.15,0,0,0,0-.21c-.18-.2-.37-.39-.56-.58A30.12,30.12,0,0,0,67.07,45.91Z"/></g></g></svg>