<svg xmlns="http://www.w3.org/2000/svg" viewBox="0 0 112.86 117.83"><defs><style>.cls-1{fill:#100f10;}.cls-2{fill:#fff;}.cls-3{fill:#5a5a5a;}.cls-4{fill:#282727;}.cls-5{fill:#262524;}.cls-6{fill:#d22d2d;}.cls-7{fill:#e40f00;}</style></defs><g id="Layer_2" data-name="Layer 2"><g id="Layer_1-2" data-name="Layer 1"><circle class="cls-1" cx="56.99" cy="62.27" r="55.56"/><circle class="cls-2" cx="56.43" cy="56.43" r="56.43"/><circle class="cls-3" cx="56.99" cy="57.3" r="55.56"/><circle class="cls-1" cx="56.12" cy="56.62" r="39.18"/><circle class="cls-4" cx="56.12" cy="56.62" r="37.64"/><path class="cls-5" d="M102.2,58.6h-1A45.89,45.89,0,1,1,87.76,26.15,45.72,45.72,0,0,1,101.2,58.6h2a47.88,47.88,0,1,0-47.88,47.88A47.88,47.88,0,0,0,103.19,58.6Z"/><path class="cls-6" d="M102.2,56.62h-1A45.89,45.89,0,1,1,87.76,24.17,45.7,45.7,0,0,1,101.2,56.62h2a47.88,47.88,0,1,0-47.88,47.87,47.88,47.88,0,0,0,47.88-47.87Z"/><rect class="cls-7" x="48.58" y="39.18" width="13.47" height="23.73" rx="5.5"/><path class="cls-7" d="M68.65,57.41h-3.3a8.8,8.8,0,0,1-8.8,8.79H54.08a8.79,8.79,0,0,1-6.48-2.85l-2.43,2.23a12,12,0,0,0,8.49,3.91v5.24H51.33V78h8v-3.3H57V69.49A12.11,12.11,0,0,0,68.65,57.41Z"/><path class="cls-7" d="M42,57.41a12,12,0,0,0,3.19,8.17l2.43-2.23a8.75,8.75,0,0,1-2.32-5.94Z"/></g></g></svg>