<svg xmlns="http://www.w3.org/2000/svg" viewBox="0 0 112.86 117.83"><defs><style>.cls-1{fill:#100f10;}.cls-2{fill:#fff;}.cls-3{fill:#5a5a5a;}.cls-4{fill:#282727;}.cls-5{fill:#262524;}.cls-6{fill:#d22d2d;}.cls-7{fill:#e40f00;fill-rule:evenodd;}</style></defs><g id="Layer_2" data-name="Layer 2"><g id="Layer_1-2" data-name="Layer 1"><circle class="cls-1" cx="56.99" cy="62.27" r="55.56"/><circle class="cls-2" cx="56.43" cy="56.43" r="56.43"/><circle class="cls-3" cx="56.99" cy="57.3" r="55.56"/><circle class="cls-1" cx="56.12" cy="56.62" r="39.18"/><circle class="cls-4" cx="56.12" cy="56.62" r="37.64"/><path class="cls-5" d="M102.2,58.6h-1A45.89,45.89,0,1,1,87.76,26.15,45.72,45.72,0,0,1,101.2,58.6h2a47.88,47.88,0,1,0-47.88,47.88A47.88,47.88,0,0,0,103.19,58.6Z"/><path class="cls-6" d="M102.2,56.62h-1A45.89,45.89,0,1,1,87.76,24.17,45.7,45.7,0,0,1,101.2,56.62h2a47.88,47.88,0,1,0-47.88,47.87,47.88,47.88,0,0,0,47.88-47.87Z"/><path class="cls-7" d="M79.76,66.26a23.51,23.51,0,0,0-3.29-12L71.78,58.8a17.31,17.31,0,0,1,1.72,7.54,3.13,3.13,0,1,0,6.26,0Z"/><path class="cls-7" d="M67.56,53.25l5.91-3a23.67,23.67,0,0,0-41.06,16v.08a3.14,3.14,0,1,0,6.27,0A17.41,17.41,0,0,1,67.56,53.25Z"/><path class="cls-7" d="M54.4,62.06a4,4,0,0,0,2.42,7.68A4,4,0,0,0,59,68.36l18.73-18Z"/></g></g></svg>