<svg xmlns="http://www.w3.org/2000/svg" viewBox="0 0 112.86 117.83"><defs><style>.cls-1{fill:#100f10;}.cls-2{fill:#fff;}.cls-3{fill:#5a5a5a;}.cls-4{fill:#282727;}.cls-5{fill:#262524;}.cls-6{fill:#d22d2d;}.cls-7{fill:#e40f00;}</style></defs><g id="Layer_2" data-name="Layer 2"><g id="Layer_1-2" data-name="Layer 1"><circle class="cls-1" cx="56.99" cy="62.27" r="55.56"/><circle class="cls-2" cx="56.43" cy="56.43" r="56.43"/><circle class="cls-3" cx="56.99" cy="57.3" r="55.56"/><circle class="cls-1" cx="56.12" cy="56.62" r="39.18"/><circle class="cls-4" cx="56.12" cy="56.62" r="37.64"/><path class="cls-5" d="M102.2,58.6h-1A45.89,45.89,0,1,1,87.76,26.15,45.72,45.72,0,0,1,101.2,58.6h2a47.88,47.88,0,1,0-47.88,47.88A47.88,47.88,0,0,0,103.19,58.6Z"/><path class="cls-6" d="M102.2,56.62h-1A45.89,45.89,0,1,1,87.76,24.17,45.7,45.7,0,0,1,101.2,56.62h2a47.88,47.88,0,1,0-47.88,47.87,47.88,47.88,0,0,0,47.88-47.87Z"/><path class="cls-7" d="M81.68,57.16,65.15,44a1.84,1.84,0,0,0-3,1.43h0a1.84,1.84,0,0,1-1.84,1.85H33.55a1.81,1.81,0,0,0-1.82,1.82h0a1.82,1.82,0,0,0,1.82,1.83H53.23a1.43,1.43,0,0,1,1.46,1.35,1.39,1.39,0,0,1-1.39,1.43H41.78A1.77,1.77,0,0,0,40,55.43h0a1.77,1.77,0,0,0,1.77,1.78H60.29a1.42,1.42,0,0,1,1.45,1.35A1.38,1.38,0,0,1,60.35,60H37.41a1.78,1.78,0,0,0-1.78,1.78h0a1.78,1.78,0,0,0,1.78,1.77H53.24a1.44,1.44,0,0,1,1.45,1.35,1.4,1.4,0,0,1-1.39,1.44H47a1.81,1.81,0,0,0-1.82,1.82h0A1.82,1.82,0,0,0,47,70H60.32a1.84,1.84,0,0,1,1.84,1.84h0a1.84,1.84,0,0,0,3,1.44L81.68,60A1.84,1.84,0,0,0,81.68,57.16Z"/><path class="cls-7" d="M35.17,54H29.74a1.49,1.49,0,1,0,0,3h5.43a1.49,1.49,0,0,0,0-3ZM42,67H38.71a1.55,1.55,0,1,0,0,3.1H42A1.55,1.55,0,0,0,42,67Z"/></g></g></svg>