<svg xmlns="http://www.w3.org/2000/svg" viewBox="0 0 112.86 117.83"><defs><style>.cls-1{fill:#100f10;}.cls-2{fill:#fff;}.cls-3{fill:#5a5a5a;}.cls-4{fill:#282727;}.cls-5{fill:#262524;}.cls-6{fill:#d22d2d;}.cls-7{fill:#e40f00;}</style></defs><g id="Layer_2" data-name="Layer 2"><g id="Layer_1-2" data-name="Layer 1"><circle class="cls-1" cx="56.99" cy="62.27" r="55.56"/><circle class="cls-2" cx="56.43" cy="56.43" r="56.43"/><circle class="cls-3" cx="56.99" cy="57.3" r="55.56"/><circle class="cls-1" cx="56.12" cy="56.62" r="39.18"/><circle class="cls-4" cx="56.12" cy="56.62" r="37.64"/><path class="cls-5" d="M102.2,58.6h-1A45.89,45.89,0,1,1,87.76,26.15,45.72,45.72,0,0,1,101.2,58.6h2a47.88,47.88,0,1,0-47.88,47.88A47.88,47.88,0,0,0,103.19,58.6Z"/><path class="cls-6" d="M102.2,56.62h-1A45.89,45.89,0,1,1,87.76,24.17,45.7,45.7,0,0,1,101.2,56.62h2a47.88,47.88,0,1,0-47.88,47.87,47.88,47.88,0,0,0,47.88-47.87Z"/><path class="cls-7" d="M71.14,55.72a1.7,1.7,0,0,0-.66-.67L45.3,40.63a1.78,1.78,0,0,0-2.45.66,1.7,1.7,0,0,0-.24.91V71.05a1.79,1.79,0,0,0,2.69,1.56L70.48,58.18A1.8,1.8,0,0,0,71.14,55.72Z"/></g></g></svg>