<svg xmlns="http://www.w3.org/2000/svg" viewBox="0 0 112.86 117.83"><defs><style>.cls-1{fill:#100f10;}.cls-2{fill:#fff;}.cls-3{fill:#5a5a5a;}.cls-4{fill:#282727;}.cls-5{fill:#262524;}.cls-6{fill:#d22d2d;}.cls-7{fill:#e40f00;}</style></defs><g id="Layer_2" data-name="Layer 2"><g id="Layer_1-2" data-name="Layer 1"><circle class="cls-1" cx="56.99" cy="62.27" r="55.56"/><circle class="cls-2" cx="56.43" cy="56.43" r="56.43"/><circle class="cls-3" cx="56.99" cy="57.3" r="55.56"/><circle class="cls-1" cx="56.12" cy="56.62" r="39.18"/><circle class="cls-4" cx="56.12" cy="56.62" r="37.64"/><path class="cls-5" d="M102.2,58.6h-1A45.89,45.89,0,1,1,87.76,26.15,45.72,45.72,0,0,1,101.2,58.6h2a47.88,47.88,0,1,0-47.88,47.88A47.88,47.88,0,0,0,103.19,58.6Z"/><path class="cls-6" d="M102.2,56.62h-1A45.89,45.89,0,1,1,87.76,24.17,45.7,45.7,0,0,1,101.2,56.62h2a47.88,47.88,0,1,0-47.88,47.87,47.88,47.88,0,0,0,47.88-47.87Z"/><path class="cls-7" d="M72,70.77a2.12,2.12,0,0,0-2.84.14A19.34,19.34,0,1,1,46.72,40l.68,2.79a.85.85,0,0,0,1.43.39l6.48-6.56a.84.84,0,0,0-.34-1.4l-8.78-2.84a.85.85,0,0,0-1.08,1l.59,2.4A23.58,23.58,0,1,0,72.1,73.91,2.13,2.13,0,0,0,72,70.77Z"/><polygon class="cls-7" points="57.13 65.43 62.57 65.43 72.39 47.16 72.39 43.53 56.62 43.53 56.62 47.7 66.92 47.7 57.13 65.43"/></g></g></svg>