<svg xmlns="http://www.w3.org/2000/svg" viewBox="0 0 112.86 117.83"><defs><style>.cls-1{fill:#100f10;}.cls-2{fill:#fff;}.cls-3{fill:#433e3b;}.cls-4{fill:#282727;}.cls-5{fill:#262524;}.cls-6{fill:#d22d2d;}.cls-7{fill:#e40f00;}</style></defs><g id="Layer_2" data-name="Layer 2"><g id="Layer_1-2" data-name="Layer 1"><circle class="cls-1" cx="56.99" cy="62.27" r="55.56"/><circle class="cls-2" cx="56.43" cy="56.43" r="56.43"/><circle class="cls-3" cx="56.99" cy="57.3" r="55.56"/><circle class="cls-1" cx="56.12" cy="56.62" r="39.18"/><circle class="cls-4" cx="56.12" cy="56.62" r="37.64"/><path class="cls-5" d="M102.2,58.6h-1A45.89,45.89,0,1,1,87.76,26.15,45.72,45.72,0,0,1,101.2,58.6h2a47.88,47.88,0,1,0-47.88,47.88A47.88,47.88,0,0,0,103.19,58.6Z"/><path class="cls-6" d="M102.2,56.62h-1A45.89,45.89,0,1,1,87.76,24.17,45.7,45.7,0,0,1,101.2,56.62h2a47.88,47.88,0,1,0-47.88,47.87,47.88,47.88,0,0,0,47.88-47.87Z"/><path class="cls-7" d="M79.36,49.66a10.43,10.43,0,0,0-5.29-8.28,9.59,9.59,0,0,0-11.17,1,2.46,2.46,0,0,1-1.73.6c-3.45,0-6.91,0-10.36,0a1.72,1.72,0,0,1-1.26-.45A9.15,9.15,0,0,0,43,40.06a10.37,10.37,0,0,0-10.07,9.5c-.48,4.3-1.09,8.58-1.59,12.88a15,15,0,0,0-.21,5,7.25,7.25,0,0,0,5.72,5.71,6.76,6.76,0,0,0,7-3.5c.91-1.63,1.94-3.17,2.89-4.77.28-.47.53-.49,1-.28a4,4,0,0,0,4.78-.9A4.19,4.19,0,0,0,53.81,61c.06-.78.4-1,1.17-1a15.23,15.23,0,0,0,2.34,0c.77-.07,1,.24,1.11,1a4.33,4.33,0,0,0,6.2,3.51.54.54,0,0,1,.83.25c.94,1.57,2,3.11,2.86,4.7a6.69,6.69,0,0,0,6.26,3.71,6.93,6.93,0,0,0,6.72-7,38.45,38.45,0,0,0-.52-5C80.33,57.32,79.77,53.5,79.36,49.66ZM44.17,54.92H41.38V51.41H38.06V48.7h3.32V45.23h2.79V48.7H47.5v2.71H44.17Zm5.21,8.63a3.24,3.24,0,1,1,3.24-3.24A3.24,3.24,0,0,1,49.38,63.55Zm6-7.89H52.44V54.19h2.91Zm1.51,0V54.19h2.91v1.47ZM63,63.55a3.24,3.24,0,1,1,3.24-3.24A3.24,3.24,0,0,1,63,63.55Zm3.5-11.92a1.74,1.74,0,1,1,1.74-1.74A1.74,1.74,0,0,1,66.48,51.63ZM70,55.19a1.74,1.74,0,1,1,1.74-1.74A1.74,1.74,0,0,1,70,55.19Zm0-7.13a1.74,1.74,0,1,1,1.74-1.74A1.73,1.73,0,0,1,70,48.06Zm3.56,3.57a1.74,1.74,0,1,1,1.74-1.74A1.74,1.74,0,0,1,73.6,51.63Z"/></g></g></svg>