<svg xmlns="http://www.w3.org/2000/svg" viewBox="0 0 112.86 117.83"><defs><style>.cls-1{fill:#100f10;}.cls-2{fill:#fff;}.cls-3{fill:#5a5a5a;}.cls-4{fill:#282727;}.cls-5{fill:#262524;}.cls-6{fill:#d22d2d;}.cls-7{fill:#e40f00;fill-rule:evenodd;}</style></defs><g id="Layer_2" data-name="Layer 2"><g id="Layer_1-2" data-name="Layer 1"><circle class="cls-1" cx="56.99" cy="62.27" r="55.56"/><circle class="cls-2" cx="56.43" cy="56.43" r="56.43"/><circle class="cls-3" cx="56.99" cy="57.3" r="55.56"/><circle class="cls-1" cx="56.12" cy="56.62" r="39.18"/><circle class="cls-4" cx="56.12" cy="56.62" r="37.64"/><path class="cls-5" d="M102.2,58.6h-1A45.89,45.89,0,1,1,87.76,26.15,45.72,45.72,0,0,1,101.2,58.6h2a47.88,47.88,0,1,0-47.88,47.88A47.88,47.88,0,0,0,103.19,58.6Z"/><path class="cls-6" d="M102.2,56.62h-1A45.89,45.89,0,1,1,87.76,24.17,45.7,45.7,0,0,1,101.2,56.62h2a47.88,47.88,0,1,0-47.88,47.87,47.88,47.88,0,0,0,47.88-47.87Z"/><path id="cast" class="cls-7" d="M36.9,68.64v5h5a5,5,0,0,0-5-5Zm0-6.69V65.3a8.36,8.36,0,0,1,8.37,8.36h3.35A11.71,11.71,0,0,0,36.9,62Zm0-6.7V58.6A15.07,15.07,0,0,1,52,73.66h3.34A18.41,18.41,0,0,0,36.9,55.25ZM70.38,43.54H40.25a3.36,3.36,0,0,0-3.35,3.35v5h3.35v-5H70.38V70.32H58.66v3.34H70.38a3.35,3.35,0,0,0,3.34-3.34V46.89a3.35,3.35,0,0,0-3.34-3.35Z"/></g></g></svg>